STARTFONT 2.1
COMMENT
COMMENT Converted from OpenType font "times.ttf" by "otf2bdf 3.0".
COMMENT
FONT -FreeType-Times New Roman-Medium-R-Normal--60-600-72-72-P-290-ISO10646-1
SIZE 60 72 72
FONTBOUNDINGBOX 102 79 -34 -18
STARTPROPERTIES 19
FOUNDRY "FreeType"
FAMILY_NAME "Times New Roman"
WEIGHT_NAME "Medium"
SLANT "R"
SETWIDTH_NAME "Normal"
ADD_STYLE_NAME ""
PIXEL_SIZE 60
POINT_SIZE 600
RESOLUTION_X 72
RESOLUTION_Y 72
SPACING "P"
AVERAGE_WIDTH 290
CHARSET_REGISTRY "ISO10646"
CHARSET_ENCODING "1"
FONT_ASCENT 53
FONT_DESCENT 12
COPYRIGHT "Typeface © The Monotype Corporation plc. Data © The Monotype Corporation plc/Type Solutions Inc. 1990-1992. All Rights Reserved"
_OTF_FONTFILE "times.ttf"
_OTF_PSNAME "TimesNewRomanPSMT"
ENDPROPERTIES
CHARS 1170
STARTCHAR 0020
ENCODING 32
SWIDTH 250 0
DWIDTH 15 0
BBX 0 0 0 0
BITMAP
ENDCHAR
STARTCHAR 0021
ENCODING 33
SWIDTH 333 0
DWIDTH 20 0
BBX 6 42 7 -1
BITMAP
78
FC
FC
FC
FC
FC
FC
FC
FC
FC
FC
FC
FC
78
78
78
78
78
78
78
78
78
78
30
30
30
30
30
30
30
30
30
00
00
00
00
00
78
FC
FC
FC
78
ENDCHAR
STARTCHAR 0022
ENCODING 34
SWIDTH 416 0
DWIDTH 25 0
BBX 17 17 4 24
BITMAP
700E00
F81F00
FC1F00
FC1F80
FC1F00
F81F00
F81F00
F81F00
781F00
781F00
780F00
700E00
700E00
700E00
300E00
300600
300400
ENDCHAR
STARTCHAR 0023
ENCODING 35
SWIDTH 500 0
DWIDTH 30 0
BBX 28 42 1 0
BITMAP
001801C0
00380180
00380180
00380180
00300380
00300380
00700300
00700300
00700300
00600700
00600700
00E00600
00E00600
00E00600
00C00E00
FFFFFFF0
FFFFFFF0
01C00C00
01C00C00
01801C00
01801C00
03801800
03801800
03801800
03003800
03003800
07003000
FFFFFFF0
FFFFFFF0
06007000
06007000
0E006000
0E006000
0E006000
0C00E000
0C00E000
1C00C000
1C00C000
1C00C000
1801C000
1801C000
38018000
ENDCHAR
STARTCHAR 0024
ENCODING 36
SWIDTH 500 0
DWIDTH 30 0
BBX 24 48 3 -4
BITMAP
001000
001000
001000
00FF00
07FFE0
0F11FC
1E107C
3C101C
78101C
78100C
F8100C
F81004
F81004
FC1004
FC1000
7E1000
7F1000
3F9000
3FF000
1FF000
0FFC00
03FE00
01FF80
007FC0
003FE0
001FF0
0017F8
0011FC
0010FE
00107E
00103F
00101F
00101F
80101F
C0101F
C0101F
C0101E
E0101E
E0103C
F0107C
F810F8
FF13F0
1FFFC0
03FE00
001000
001000
001000
001000
ENDCHAR
STARTCHAR 0025
ENCODING 37
SWIDTH 833 0
DWIDTH 50 0
BBX 46 42 2 -1
BITMAP
03E000000C00
0FF800001C00
1E3C00003800
3C1E00003000
3C1E00007000
780F0000E000
780F0000C000
F80F8001C000
F80F80038000
F80F80030000
F80F80070000
F80F800E0000
F80F800C0000
F80F80180000
F80F80380000
780F00700000
780F00600000
3C1F00E00000
3C1E01C00000
1E3C01800000
0FF803801F00
03E007007FC0
00000600F1E0
00000E01E0F0
00001C01E0F0
00001803C078
00003803C078
00007007C078
00006007C07C
0000C007C07C
0001C007C07C
00038007C07C
00030007C07C
00070007C07C
000E0007C07C
000C0003C078
001C0003C078
00380001E0F8
00300001E0F0
00700000F1E0
00E000007FC0
00C000001F00
ENDCHAR
STARTCHAR 0026
ENCODING 38
SWIDTH 783 0
DWIDTH 47 0
BBX 43 42 2 -1
BITMAP
00007E000000
0003FF800000
0007C3C00000
000F00E00000
001F00F00000
001E00700000
003E00700000
003E00700000
003E00F00000
003E00F00000
003F01E00000
003F03C00000
003F07C00000
001F8F000000
001FBE07FF80
001FF803FC00
000FF001F800
000FE001F000
001FE001E000
007FF001E000
00F3F001C000
03E3F801C000
0781FC038000
0F81FC038000
1F00FE030000
1E00FF070000
3E007F0E0000
7E003F8E0000
7C003FDC0000
7C001FF80000
FC000FF80000
FC000FF00000
FE0007F00000
FE0003F80060
FF0007FC0060
7F000FFF00C0
7F801EFFC1C0
3FE07C7FFF80
3FFFF03FFF80
1FFFE01FFF00
07FF8007FE00
01FC0001F800
ENDCHAR
STARTCHAR 0027
ENCODING 39
SWIDTH 183 0
DWIDTH 11 0
BBX 6 17 2 24
BITMAP
38
7C
FC
FC
FC
7C
7C
7C
78
78
78
38
38
38
30
30
10
ENDCHAR
STARTCHAR 0028
ENCODING 40
SWIDTH 333 0
DWIDTH 20 0
BBX 17 55 2 -13
BITMAP
000080
000300
000C00
001800
003000
006000
00E000
01C000
03C000
038000
078000
070000
0F0000
0F0000
1E0000
1E0000
3E0000
3E0000
3E0000
7E0000
7C0000
7C0000
7C0000
7C0000
7C0000
7C0000
FC0000
FC0000
FC0000
7C0000
7C0000
7C0000
7C0000
7C0000
7C0000
7E0000
3E0000
3E0000
3E0000
1E0000
1F0000
0F0000
0F0000
070000
078000
038000
03C000
01C000
00E000
007000
003800
001C00
000E00
000300
000080
ENDCHAR
STARTCHAR 0029
ENCODING 41
SWIDTH 333 0
DWIDTH 20 0
BBX 17 55 1 -13
BITMAP
800000
600000
380000
1C0000
0E0000
070000
038000
01C000
01C000
00E000
00F000
007000
007800
007800
007C00
003C00
003E00
003E00
003E00
003F00
003F00
001F00
001F00
001F00
001F00
001F00
001F00
001F80
001F00
001F00
001F00
001F00
001F00
001F00
001F00
003F00
003E00
003E00
003E00
003C00
003C00
007800
007800
007000
00F000
00E000
01E000
01C000
038000
030000
060000
0C0000
180000
600000
800000
ENDCHAR
STARTCHAR 002A
ENCODING 42
SWIDTH 500 0
DWIDTH 30 0
BBX 22 24 4 18
BITMAP
003000
007800
007800
007800
007800
707838
FC78FC
FE31FC
7F33F8
3FB7F0
07FF80
007800
00FC00
0FFFC0
3F33F0
7E31F8
FE31FC
FC78FC
707838
007800
007800
007800
007800
003000
ENDCHAR
STARTCHAR 002B
ENCODING 43
SWIDTH 566 0
DWIDTH 34 0
BBX 32 30 1 5
BITMAP
00018000
00018000
00018000
00018000
00018000
00018000
00018000
00018000
00018000
00018000
00018000
00018000
00018000
00018000
FFFFFFFF
FFFFFFFF
00018000
00018000
00018000
00018000
00018000
00018000
00018000
00018000
00018000
00018000
00018000
00018000
00018000
00018000
ENDCHAR
STARTCHAR 002C
ENCODING 44
SWIDTH 250 0
DWIDTH 15 0
BBX 9 14 3 -10
BITMAP
3C00
7E00
FF00
FF80
7B80
0180
0380
0380
0300
0700
0E00
1C00
7000
C000
ENDCHAR
STARTCHAR 002D
ENCODING 45
SWIDTH 333 0
DWIDTH 20 0
BBX 16 5 2 11
BITMAP
FFFF
FFFF
FFFF
FFFF
FFFF
ENDCHAR
STARTCHAR 002E
ENCODING 46
SWIDTH 250 0
DWIDTH 15 0
BBX 7 5 4 -1
BITMAP
38
FC
FE
7C
38
ENDCHAR
STARTCHAR 002F
ENCODING 47
SWIDTH 283 0
DWIDTH 17 0
BBX 17 43 0 -1
BITMAP
000380
000300
000300
000700
000600
000600
000E00
000C00
000C00
001C00
001800
001800
003800
003000
003000
007000
006000
006000
00E000
00C000
00C000
01C000
018000
018000
038000
030000
030000
070000
060000
060000
0E0000
0C0000
0C0000
1C0000
180000
180000
380000
300000
300000
700000
600000
600000
E00000
ENDCHAR
STARTCHAR 0030
ENCODING 48
SWIDTH 500 0
DWIDTH 30 0
BBX 26 41 2 0
BITMAP
003F0000
00FFC000
01E1E000
03C07000
07807800
0F003C00
0F003E00
1F001E00
3E001F00
3E001F00
3E001F00
7E000F80
7E000F80
7C000F80
7C000F80
7C000FC0
FC000FC0
FC000FC0
FC000FC0
FC000FC0
FC000FC0
FC000FC0
FC000FC0
FC000FC0
FC000FC0
FC000FC0
7C000F80
7C000F80
7C000F80
7E001F80
3E001F00
3E001F00
3E001F00
1E001E00
1F003E00
0F003C00
07807800
03C0F000
01E1E000
00FFC000
003F0000
ENDCHAR
STARTCHAR 0031
ENCODING 49
SWIDTH 500 0
DWIDTH 30 0
BBX 16 41 7 0
BITMAP
0060
01E0
07E0
1FE0
7FE0
C7E0
07E0
03E0
03E0
03E0
03E0
03E0
03E0
03E0
03E0
03E0
03E0
03E0
03E0
03E0
03E0
03E0
03E0
03E0
03E0
03E0
03E0
03E0
03E0
03E0
03E0
03E0
03E0
03E0
03E0
03E0
03E0
03E0
07E0
0FF0
7FFF
ENDCHAR
STARTCHAR 0032
ENCODING 50
SWIDTH 500 0
DWIDTH 30 0
BBX 26 41 1 0
BITMAP
007F0000
01FFE000
03FFF000
07FFF800
0F03FC00
1C01FE00
18007E00
30007F00
30003F00
20003F00
60001F00
00001F00
00001F00
00001F00
00001F00
00001E00
00001E00
00003C00
00003C00
00003800
00007800
00007000
0000E000
0000E000
0001C000
00038000
00070000
00060000
000C0000
00180000
00300000
00600000
00C00000
01800000
03000040
070000C0
0E000380
1FFFFF80
3FFFFF80
7FFFFF00
FFFFFF00
ENDCHAR
STARTCHAR 0033
ENCODING 51
SWIDTH 500 0
DWIDTH 30 0
BBX 23 41 2 0
BITMAP
00FE00
03FF80
07FFE0
0FFFE0
1E0FF0
3803F8
3001F8
6001F8
0000F8
0000F8
0000F8
0000F0
0000F0
0000E0
0001C0
000180
000300
000780
001FE0
007FF0
01FFF8
001FF8
0003FC
0001FC
00007E
00007E
00003E
00003E
00003E
00001E
00001E
00001C
00003C
00003C
000038
000070
7800E0
7F03C0
FFFF80
7FFE00
1FF000
ENDCHAR
STARTCHAR 0034
ENCODING 52
SWIDTH 500 0
DWIDTH 30 0
BBX 27 41 1 0
BITMAP
00003C00
00007C00
00007C00
0000FC00
0001FC00
0001FC00
00037C00
00077C00
000E7C00
000C7C00
001C7C00
00387C00
00307C00
00707C00
00E07C00
00C07C00
01807C00
03807C00
07007C00
06007C00
0E007C00
1C007C00
18007C00
38007C00
70007C00
60007C00
FFFFFFE0
FFFFFFE0
FFFFFFE0
FFFFFFE0
00007C00
00007C00
00007C00
00007C00
00007C00
00007C00
00007C00
00007C00
00007C00
00007C00
00007C00
ENDCHAR
STARTCHAR 0035
ENCODING 53
SWIDTH 500 0
DWIDTH 30 0
BBX 23 40 3 0
BITMAP
007FFE
00FFFC
00FFFC
01FFF8
01FFF8
038000
070000
060000
0E0000
0C0000
1F8000
1FF000
3FFC00
3FFF00
7FFF80
03FFC0
003FE0
000FF0
0007F8
0001F8
0000FC
0000FC
00007C
00003C
00003C
00003C
00003C
00001C
00001C
00003C
000038
000038
000070
000070
0000E0
F801C0
FE0780
FFFE00
7FF800
1FE000
ENDCHAR
STARTCHAR 0036
ENCODING 54
SWIDTH 500 0
DWIDTH 30 0
BBX 25 41 3 0
BITMAP
00003F00
0001F800
0007C000
001F0000
003C0000
00780000
00F00000
01E00000
03E00000
07C00000
0F800000
1F800000
1F000000
3F000000
3E000000
7E1FC000
7E7FF000
7DFFF800
FF83FC00
FE00FE00
FC007E00
FC007F00
F8003F00
F8003F00
F8001F80
F8001F80
F8001F80
F8001F80
F8001F80
F8001F00
FC001F00
7C001F00
7C001F00
7C001E00
3E001E00
1F003C00
1F003800
0F807000
07E1E000
01FFC000
007E0000
ENDCHAR
STARTCHAR 0037
ENCODING 55
SWIDTH 500 0
DWIDTH 30 0
BBX 25 40 2 0
BITMAP
0FFFFF80
1FFFFF80
1FFFFF80
1FFFFF80
3FFFFF00
3C000F00
70000F00
60000E00
40001E00
80001E00
00001C00
00003C00
00003C00
00003800
00007800
00007800
00007000
0000F000
0000E000
0000E000
0001E000
0001C000
0001C000
0003C000
00038000
00038000
00078000
00070000
00070000
000F0000
000E0000
000E0000
001E0000
001C0000
001C0000
003C0000
00380000
00380000
00780000
00700000
ENDCHAR
STARTCHAR 0038
ENCODING 56
SWIDTH 500 0
DWIDTH 30 0
BBX 23 41 4 0
BITMAP
01FE00
07FF80
1F03E0
3C00F0
3800F0
780078
700078
F0007C
F0007C
F8007C
F80078
FC0078
7C0078
7E00F0
7F01E0
3FC3C0
1FE780
0FFE00
07FC00
03FE00
01FF00
03FF80
073FC0
0E1FE0
1C0FF0
3C07F8
7803F8
7801FC
F000FC
F0007C
F0003E
F0003E
F0003C
F0003C
F8003C
780038
7C0078
3E00F0
1F83E0
07FF80
01FE00
ENDCHAR
STARTCHAR 0039
ENCODING 57
SWIDTH 500 0
DWIDTH 30 0
BBX 25 41 2 0
BITMAP
007F0000
01FFC000
03C3F000
0700F800
0E007C00
1E003C00
3C003E00
3C003E00
7C001F00
7C001F00
7C001F80
7C000F80
FC000F80
FC000F80
FC000F80
FC000F80
7C000F80
7E000F80
7E000F80
7E001F80
3F001F80
3F803F80
1FE0FF80
0FFFDF00
07FF3F00
01FC3F00
00003E00
00007E00
00007C00
0000FC00
0000F800
0001F000
0003E000
0003C000
00078000
000F0000
001E0000
003C0000
00F00000
07C00000
7E000000
ENDCHAR
STARTCHAR 003A
ENCODING 58
SWIDTH 283 0
DWIDTH 17 0
BBX 7 29 5 -1
BITMAP
38
FC
FE
FC
38
00
00
00
00
00
00
00
00
00
00
00
00
00
00
00
00
00
00
00
78
FC
FE
FC
78
ENDCHAR
STARTCHAR 003B
ENCODING 59
SWIDTH 283 0
DWIDTH 17 0
BBX 9 38 4 -10
BITMAP
3C00
7E00
7F00
7E00
3C00
0000
0000
0000
0000
0000
0000
0000
0000
0000
0000
0000
0000
0000
0000
0000
0000
0000
0000
0000
3C00
FE00
FF00
FF80
7F80
0380
0380
0380
0300
0600
0E00
1C00
7000
C000
ENDCHAR
STARTCHAR 003C
ENCODING 60
SWIDTH 566 0
DWIDTH 34 0
BBX 32 29 1 5
BITMAP
00000003
0000000F
0000003E
000000F8
000007E0
00001F80
00007C00
0001F000
000FC000
003F0000
00F80000
03E00000
1F800000
7E000000
F8000000
7E000000
1F800000
03E00000
00F80000
003F0000
000FC000
0001F000
00007C00
00001F80
000007E0
000000F8
0000003E
0000000F
00000003
ENDCHAR
STARTCHAR 003D
ENCODING 61
SWIDTH 566 0
DWIDTH 34 0
BBX 32 11 1 16
BITMAP
FFFFFFFF
FFFFFFFF
00000000
00000000
00000000
00000000
00000000
00000000
00000000
FFFFFFFF
FFFFFFFF
ENDCHAR
STARTCHAR 003E
ENCODING 62
SWIDTH 566 0
DWIDTH 34 0
BBX 32 29 1 5
BITMAP
80000000
E0000000
FC000000
1F000000
07C00000
01F00000
007E0000
000F8000
0003E000
0000F800
00003F00
000007C0
000001F0
0000007C
0000001F
0000007C
000001F0
00000FC0
00003F00
0000F800
0003E000
000F8000
007E0000
01F00000
07C00000
1F000000
7C000000
E0000000
80000000
ENDCHAR
STARTCHAR 003F
ENCODING 63
SWIDTH 450 0
DWIDTH 27 0
BBX 21 42 3 -1
BITMAP
03FC00
0FFF80
1C1FC0
3807E0
7003F0
F001F0
F001F8
F000F8
F800F8
F800F8
F800F8
F800F8
7000F8
0001F0
0001F0
0001F0
0003E0
0003C0
0007C0
000780
000F00
000E00
000E00
001C00
001800
003800
003000
003000
002000
006000
006000
006000
004000
004000
000000
000000
000000
00F000
01F800
01F800
01F800
00F000
ENDCHAR
STARTCHAR 0040
ENCODING 64
SWIDTH 916 0
DWIDTH 55 0
BBX 51 56 3 -14
BITMAP
000003FF000000
00001FFFF00000
0000FE00FC0000
0003E0000F0000
00078000038000
001E000001E000
003C0000006000
00780000003000
00E00000001800
01C00000001C00
03C00000000C00
07800000000600
07000000000600
0E000000000600
0E00007C300300
1C0001C37C0300
1C0003017C0300
38000E01F80300
38001E00F80100
78003C00F80100
70007800F80100
70007001F00100
7000F001F00100
E001E001F00100
E001E001E00300
E003C003E00300
E003C003E00300
E007C003C00300
E0078007C00600
E00F8007C00600
E00F800F800600
E00F000F800C00
E00F001F800C00
E00F003F801800
E01F006F001800
E00F00CF003000
600F818F006000
700FC30F00C060
700FFF0F0380C0
3007FC0F8F00C0
3807F807FC01C0
3801E003F00180
18000000000380
1C000000000300
0E000000000600
06000000000E00
07000000001C00
03800000003800
01C00000007000
00E0000000E000
0078000003C000
001E00000F0000
000F80003E0000
0003F801F80000
0000FFFFC00000
00000FFE000000
ENDCHAR
STARTCHAR 0041
ENCODING 65
SWIDTH 716 0
DWIDTH 43 0
BBX 43 41 0 0
BITMAP
000004000000
00000E000000
00000E000000
00001E000000
00001F000000
00001F000000
00003F800000
00003F800000
00007FC00000
00007FC00000
00007FC00000
0000E7E00000
0000E7E00000
0001C7F00000
0001C3F00000
0003C3F00000
000381F80000
000381F80000
000701FC0000
000700FC0000
000E00FC0000
000E007E0000
001E007E0000
001C003F0000
001C003F0000
0038003F8000
003FFFFF8000
007FFFFF8000
0070000FC000
00E0000FC000
00E00007E000
00E00007E000
01C00003E000
01C00003F000
03800003F000
03800001F800
07800001F800
07000001FC00
0F800001FE00
3FC00003FF00
FFF8001FFFE0
ENDCHAR
STARTCHAR 0042
ENCODING 66
SWIDTH 666 0
DWIDTH 40 0
BBX 36 40 1 0
BITMAP
FFFFFF0000
0FFFFFE000
07F007F800
07E000FE00
03E0007F00
03E0003F00
03E0001F80
03E0001F80
03E0000FC0
03E0000FC0
03E0000FC0
03E0000FC0
03E0001FC0
03E0001F80
03E0003F80
03E0003F00
03E000FE00
03E003FC00
03FFFFF000
03FFFFF000
03E007FE00
03E000FF00
03E0003F80
03E0001FC0
03E0001FE0
03E0000FE0
03E0000FE0
03E00007F0
03E00007F0
03E00007F0
03E00007F0
03E00007E0
03E0000FE0
03E0000FE0
03E0001FC0
03E0003F80
07E0007F00
07F803FE00
0FFFFFF800
FFFFFFC000
ENDCHAR
STARTCHAR 0043
ENCODING 67
SWIDTH 666 0
DWIDTH 40 0
BBX 36 42 2 -1
BITMAP
0000FF8040
0007FFF8C0
001F807FC0
007E001FC0
00F80007C0
01F00003C0
03E00001E0
07C00001E0
0FC00000E0
1F800000E0
1F80000060
3F00000060
3F00000020
3F00000020
7E00000000
7E00000000
7E00000000
FE00000000
FE00000000
FE00000000
FE00000000
FE00000000
FE00000000
FE00000000
FE00000000
FE00000000
7E00000000
7E00000000
7F00000000
7F00000000
3F00000000
3F80000010
1F80000020
1FC0000040
0FE00000C0
07F0000180
03F8000300
01FE000E00
00FFC03C00
007FFFF800
000FFFE000
0001FF0000
ENDCHAR
STARTCHAR 0044
ENCODING 68
SWIDTH 716 0
DWIDTH 43 0
BBX 40 40 1 0
BITMAP
FFFFFF0000
0FFFFFF000
07F807FE00
07E000FF00
03E0003FC0
03E0001FE0
03E00007F0
03E00007F0
03E00003F8
03E00001FC
03E00001FC
03E00000FE
03E00000FE
03E000007E
03E000007E
03E000007F
03E000007F
03E000007F
03E000007F
03E000007F
03E000007F
03E000007F
03E000007F
03E000007F
03E000007F
03E000007E
03E00000FE
03E00000FE
03E00000FC
03E00001FC
03E00001F8
03E00003F8
03E00007F0
03E00007E0
03E0001FC0
03E0003F80
07E000FF00
07F803FC00
0FFFFFF000
FFFFFF0000
ENDCHAR
STARTCHAR 0045
ENCODING 69
SWIDTH 616 0
DWIDTH 37 0
BBX 34 40 1 0
BITMAP
FFFFFFFE00
0FFFFFFE00
07F0001E00
03F0000E00
03F0000600
03F0000600
03F0000200
03F0000200
03F0000200
03F0000000
03F0000000
03F0000000
03F0003000
03F0003000
03F0003000
03F0003000
03F0007000
03F000F000
03FFFFF000
03FFFFF000
03F000F000
03F0007000
03F0003000
03F0003000
03F0003000
03F0003000
03F0000000
03F0000000
03F0000000
03F0000000
03F0000040
03F00000C0
03F0000080
03F0000180
03F0000380
03F0000700
03F0000F00
07F0003F00
0FFFFFFE00
FFFFFFFE00
ENDCHAR
STARTCHAR 0046
ENCODING 70
SWIDTH 550 0
DWIDTH 33 0
BBX 30 40 1 0
BITMAP
FFFFFFFC
0FFFFFFC
07E000FC
07E0003C
03E0001C
03E0000C
03E0000C
03E0000C
03E00004
03E00000
03E00000
03E00000
03E00080
03E00180
03E00180
03E00180
03E00380
03E00780
03FFFF80
03FFFF80
03E00780
03E00180
03E00180
03E00180
03E00080
03E00080
03E00000
03E00000
03E00000
03E00000
03E00000
03E00000
03E00000
03E00000
03E00000
03E00000
07F00000
07F00000
0FF80000
FFFF8000
ENDCHAR
STARTCHAR 0047
ENCODING 71
SWIDTH 716 0
DWIDTH 43 0
BBX 40 42 2 -1
BITMAP
0000FFC020
0007FFFC60
001FC03FE0
007E000FE0
00F80003E0
01F00001E0
03E00000E0
07E00000E0
0FC0000070
0F80000070
1F80000030
1F00000030
3F00000010
3F00000000
7E00000000
7E00000000
7E00000000
FE00000000
FE00000000
FE00007FFF
FE00000FFC
FE000003F8
FE000003F0
FE000003F0
FE000003F0
FE000003F0
7F000003F0
7F000003F0
7F000003F0
3F000003F0
3F800003F0
1F800003F0
1FC00003F0
0FC00003F0
07E00003F0
07F00003F0
03F80003F0
01FC0003F0
007F0007F0
001FE03FC0
0007FFFE00
0000FFF000
ENDCHAR
STARTCHAR 0048
ENCODING 72
SWIDTH 716 0
DWIDTH 43 0
BBX 41 40 1 0
BITMAP
FFFF80FFFF80
0FF8000FF800
07F00007F000
07F00003F000
03E00003F000
03E00003E000
03E00003E000
03E00003E000
03E00003E000
03E00003E000
03E00003E000
03E00003E000
03E00003E000
03E00003E000
03E00003E000
03E00003E000
03E00003E000
03E00003E000
03E00003E000
03FFFFFFE000
03FFFFFFE000
03E00003E000
03E00003E000
03E00003E000
03E00003E000
03E00003E000
03E00003E000
03E00003E000
03E00003E000
03E00003E000
03E00003E000
03E00003E000
03E00003E000
03E00003E000
03E00003E000
03E00003F000
07F00007F000
07F00007F000
0FF8000FF800
FFFF80FFFF80
ENDCHAR
STARTCHAR 0049
ENCODING 73
SWIDTH 333 0
DWIDTH 20 0
BBX 18 40 1 0
BITMAP
FFFFC0
0FFC00
07F800
03F000
03F000
03F000
03F000
03F000
03F000
03F000
03F000
03F000
03F000
03F000
03F000
03F000
03F000
03F000
03F000
03F000
03F000
03F000
03F000
03F000
03F000
03F000
03F000
03F000
03F000
03F000
03F000
03F000
03F000
03F000
03F000
03F000
03F000
07F000
0FFC00
FFFFC0
ENDCHAR
STARTCHAR 004A
ENCODING 74
SWIDTH 383 0
DWIDTH 23 0
BBX 22 41 1 -1
BITMAP
07FFFC
007FC0
003F80
003F80
001F00
001F00
001F00
001F00
001F00
001F00
001F00
001F00
001F00
001F00
001F00
001F00
001F00
001F00
001F00
001F00
001F00
001F00
001F00
001F00
001F00
001F00
001F00
001F00
001F00
001F00
001F00
001F00
001F00
381E00
7C1E00
FC1E00
FC1C00
FE3800
7F3000
3FE000
1F8000
ENDCHAR
STARTCHAR 004B
ENCODING 75
SWIDTH 716 0
DWIDTH 43 0
BBX 43 40 1 0
BITMAP
FFFF81FFFC00
0FF8003FE000
07F0001F8000
07F0003E0000
03E0003C0000
03E000780000
03E000F00000
03E000E00000
03E001C00000
03E003800000
03E007000000
03E00E000000
03E01C000000
03E038000000
03E0F0000000
03E1E0000000
03E3C0000000
03E7C0000000
03EF80000000
03FFC0000000
03EFE0000000
03E7F0000000
03E3F8000000
03E1FC000000
03E0FE000000
03E07F000000
03E03F800000
03E01FC00000
03E00FE00000
03E007F00000
03E003F80000
03E001FC0000
03E000FE0000
03E0007F0000
03E0003FC000
03E0001FE000
07F0001FF000
07F0001FFC00
0FF8003FFF00
FFFF80FFFFE0
ENDCHAR
STARTCHAR 004C
ENCODING 76
SWIDTH 616 0
DWIDTH 37 0
BBX 34 40 1 0
BITMAP
FFFFC00000
0FFC000000
07F0000000
03F0000000
03F0000000
03F0000000
03F0000000
03F0000000
03F0000000
03F0000000
03F0000000
03F0000000
03F0000000
03F0000000
03F0000000
03F0000000
03F0000000
03F0000000
03F0000000
03F0000000
03F0000000
03F0000000
03F0000000
03F0000000
03F0000000
03F0000000
03F0000000
03F0000000
03F0000000
03F0000040
03F0000040
03F00000C0
03F0000080
03F0000180
03F0000180
03F0000300
03F0000F00
07F8003F00
0FFFFFFE00
FFFFFFFE00
ENDCHAR
STARTCHAR 004D
ENCODING 77
SWIDTH 883 0
DWIDTH 53 0
BBX 51 40 1 0
BITMAP
FFE0000000FFE0
1FF0000001FE00
07F0000001FC00
07F8000003FC00
07F8000003FC00
03FC000007FC00
03FC000007F800
037E00000EF800
037E00000EF800
033F00000CF800
033F00001CF800
031F00001CF800
031F800038F800
031F800038F800
030FC00070F800
030FC00070F800
0307E000E0F800
0307E000E0F800
0303F000C0F800
0303F001C0F800
0301F00180F800
0301F80380F800
0300F80300F800
0300FC0700F800
0300FC0700F800
03007E0E00F800
03007E0E00F800
03003F0C00F800
03003F1C00F800
03001F9800F800
03001FB800F800
03000FB000F800
03000FF000F800
030007E000F800
030007E000FC00
070007E000FC00
070003C000FC00
078003C001FC00
0FC0018003FE00
FFFC01803FFFE0
ENDCHAR
STARTCHAR 004E
ENCODING 78
SWIDTH 716 0
DWIDTH 43 0
BBX 43 41 -1 -1
BITMAP
FFE00003FFE0
1FF000007F00
07F800001E00
01FC00001C00
00FC00001C00
00FE00001C00
00FF00001C00
00FF80001C00
00FFC0001C00
00EFC0001C00
00EFE0001C00
00E7F0001C00
00E3F8001C00
00E1F8001C00
00E0FC001C00
00E07E001C00
00E07F001C00
00E03F801C00
00E01F801C00
00E00FC01C00
00E007E01C00
00E007F01C00
00E003F01C00
00E001F81C00
00E000FC1C00
00E0007E1C00
00E0007E1C00
00E0003F1C00
00E0001F9C00
00E0000FDC00
00E00007FC00
00E00007FC00
00E00003FC00
00E00001FC00
00E00000FC00
00E000007C00
00E000007C00
01E000003C00
03F000001C00
3FFF00000C00
000000000400
ENDCHAR
STARTCHAR 004F
ENCODING 79
SWIDTH 716 0
DWIDTH 43 0
BBX 39 42 2 -1
BITMAP
0001FF0000
000FFFE000
003F01F800
007C007E00
01F0001F00
03E0000F80
07C00007C0
0FC00007E0
0F800003E0
1F800003F0
3F000001F8
3F000001F8
3F000001FC
7F000000FC
7E000000FC
7E000000FC
FE000000FE
FE000000FE
FE000000FE
FE000000FE
FE000000FE
FE000000FE
FE000000FE
FE000000FE
FE000000FE
FE000000FE
7E000000FC
7E000000FC
7F000000FC
3F000001F8
3F000001F8
3F800001F8
1F800003F0
0F800003E0
0FC00007E0
07E00007C0
03E0000F80
01F0001F00
00FC007C00
003F01F800
000FFFE000
0001FF0000
ENDCHAR
STARTCHAR 0050
ENCODING 80
SWIDTH 550 0
DWIDTH 33 0
BBX 30 40 1 0
BITMAP
FFFFF800
0FFFFF00
07F03FC0
07E00FE0
03E007F0
03E003F8
03E001F8
03E001FC
03E001FC
03E001FC
03E000FC
03E000FC
03E001FC
03E001FC
03E001FC
03E001F8
03E003F8
03E007F0
03E00FE0
03F01FC0
03FFFF80
03E7FC00
03E00000
03E00000
03E00000
03E00000
03E00000
03E00000
03E00000
03E00000
03E00000
03E00000
03E00000
03E00000
03E00000
03E00000
07F00000
07F00000
0FF80000
FFFF8000
ENDCHAR
STARTCHAR 0051
ENCODING 81
SWIDTH 716 0
DWIDTH 43 0
BBX 39 52 2 -11
BITMAP
0001FF0000
000FFFE000
003F01F800
007C007E00
01F0001F00
03E0000F80
07C0000FC0
0FC00007E0
0F800003E0
1F800003F0
3F000001F8
3F000001F8
3F000001FC
7E000001FC
7E000000FC
7E000000FC
FE000000FE
FE000000FE
FE000000FE
FE000000FE
FE000000FE
FE000000FE
FE000000FE
FE000000FE
FE000000FE
7E000000FE
7E000000FC
7E000000FC
7F000000FC
3F000001F8
3F000001F8
1F800001F0
1F800003F0
0F800003E0
07C00007C0
03E0000780
01E0000F00
00F0001E00
007C007C00
001F01F000
0007FFC000
0001FF8000
0000FF8000
00007FC000
00003FE000
00000FF000
000003F800
000001FC00
0000007E00
0000001F80
00000003F0
000000003E
ENDCHAR
STARTCHAR 0052
ENCODING 82
SWIDTH 666 0
DWIDTH 40 0
BBX 40 40 1 0
BITMAP
FFFFFC0000
0FFFFF8000
07F81FE000
07E007F000
03E003F800
03E001FC00
03E000FC00
03E000FE00
03E000FE00
03E000FE00
03E000FE00
03E000FE00
03E000FE00
03E000FC00
03E001FC00
03E001F800
03E003F000
03E00FE000
03E03F8000
03FFFE0000
03FFFC0000
03E0FC0000
03E07E0000
03E07F0000
03E03F0000
03E01F8000
03E01FC000
03E00FC000
03E007E000
03E003F000
03E003F000
03E001F800
03E000FC00
03E000FE00
03E0007E00
03E0003F00
07F0003F80
07F0001FE0
0FF8000FF8
FFFF8007FF
ENDCHAR
STARTCHAR 0053
ENCODING 83
SWIDTH 550 0
DWIDTH 33 0
BBX 26 42 4 -1
BITMAP
00FE0300
07FFE300
0F83FF00
1E007F00
3C003F00
78001F00
F8000F00
F0000700
F0000700
F8000700
F8000300
FC000300
FC000300
FF000300
7F800000
7FE00000
3FF00000
1FFC0000
0FFF0000
03FFC000
01FFE000
007FF800
003FFC00
000FFE00
0003FF00
0000FF80
00007F80
00003FC0
80001FC0
80000FC0
C0000FC0
C00007C0
C00007C0
E00007C0
E0000780
F0000F80
F8000F00
FC001F00
FE003E00
FFC0FC00
C7FFF000
807FC000
ENDCHAR
STARTCHAR 0054
ENCODING 84
SWIDTH 616 0
DWIDTH 37 0
BBX 33 40 2 0
BITMAP
FFFFFFFF80
FFFFFFFF80
F803E00F80
E003E00380
C003E00180
C003E00180
8003E00080
8003E00080
8003E00080
0003E00000
0003E00000
0003E00000
0003E00000
0003E00000
0003E00000
0003E00000
0003E00000
0003E00000
0003E00000
0003E00000
0003E00000
0003E00000
0003E00000
0003E00000
0003E00000
0003E00000
0003E00000
0003E00000
0003E00000
0003E00000
0003E00000
0003E00000
0003E00000
0003E00000
0003E00000
0007E00000
0007E00000
0007F00000
000FF80000
00FFFF8000
ENDCHAR
STARTCHAR 0055
ENCODING 85
SWIDTH 716 0
DWIDTH 43 0
BBX 43 41 0 -1
BITMAP
FFFF8007FFE0
0FFC0000FE00
07F800003C00
03F000003800
03F000003800
03F000003800
03F000003800
03F000003800
03F000003800
03F000003800
03F000003800
03F000003800
03F000003800
03F000003800
03F000003800
03F000003800
03F000003800
03F000003800
03F000003800
03F000003800
03F000003800
03F000003800
03F000003800
03F000003800
03F000003800
03F000003800
03F000003800
03F000003800
03F000003800
03F000003800
01F000003000
01F000003000
01F800007000
01F800007000
00F80000E000
007C0001C000
007E0003C000
003F00078000
001FC03E0000
0007FFFC0000
0000FFC00000
ENDCHAR
STARTCHAR 0056
ENCODING 86
SWIDTH 716 0
DWIDTH 43 0
BBX 42 41 1 -1
BITMAP
FFFF0007FFC0
3FF80001FF00
0FF000007C00
0FE000003800
07E000007800
07F000007000
03F000007000
03F000006000
01F80000E000
01F80000E000
01FC0001C000
00FC0001C000
00FE00018000
007E00038000
007E00038000
003F00070000
003F00070000
001F80060000
001F800E0000
001FC00E0000
000FC01C0000
000FC01C0000
0007E0380000
0007E0380000
0003F0380000
0003F0700000
0003F8700000
0001F8E00000
0001F8E00000
0000FCE00000
0000FDC00000
00007FC00000
00007F800000
00007F800000
00003F000000
00003F000000
00001F000000
00001E000000
00000E000000
00000C000000
00000C000000
ENDCHAR
STARTCHAR 0057
ENCODING 87
SWIDTH 950 0
DWIDTH 57 0
BBX 55 41 1 -1
BITMAP
FFFE1FFFC01FFE
3FF007FE0003F8
0FE003FC0001F0
0FE001FC0000E0
07E000FC0000C0
07E000FC0001C0
07E000FC0001C0
03F0007E000180
03F0007E000180
03F0007E000380
01F8003F000300
01F8003F000700
01F8003F000700
00FC003F800600
00FC007F800E00
007C007F800E00
007E006FC00C00
007E00EFC01C00
003E00E7E01C00
003F00C7E01800
003F01C7E03800
001F01C3F03800
001F8183F03000
001F8383F07000
000FC381F87000
000FC301F86000
000FC700F8E000
0007E600FCE000
0007E600FCC000
0003EE007DC000
0003FC007F8000
0003FC007F8000
0001FC003F8000
0001F8003F0000
0001F8003F0000
0000F8001F0000
0000F0001E0000
0000F0001E0000
000070000E0000
000060000C0000
00006000040000
ENDCHAR
STARTCHAR 0058
ENCODING 88
SWIDTH 716 0
DWIDTH 43 0
BBX 43 40 0 0
BITMAP
7FFFF00FFFC0
0FFF8001FE00
03FF0000F800
00FF0000F000
00FF0000E000
007F0001C000
003F80038000
001F80038000
000FC0070000
000FE00E0000
0007E01C0000
0003F0180000
0003F8380000
0001F8700000
0000FCE00000
0000FFC00000
00007FC00000
00003F800000
00003F800000
00001F800000
00001FC00000
00001FE00000
00003FE00000
000073F00000
0000E3F80000
0000E1F80000
0001C0FC0000
000380FE0000
0007007F0000
000E003F0000
000E003F8000
001C001FC000
0038000FC000
0070000FE000
00F00007F000
01E00007F000
03E00007F800
07E00007FC00
1FF0000FFF00
FFFE003FFFE0
ENDCHAR
STARTCHAR 0059
ENCODING 89
SWIDTH 716 0
DWIDTH 43 0
BBX 41 40 1 0
BITMAP
FFFF800FFF80
3FF80003FE00
0FF00001F800
07F00000F000
07F00000E000
03F80001C000
01F80001C000
01FC00038000
00FC00030000
007E00070000
007F000E0000
003F000E0000
001F801C0000
000FC0380000
000FC0380000
0007E0700000
0003F0700000
0003F0E00000
0001F9C00000
0000F9C00000
0000FF800000
00007F000000
00003F000000
00003E000000
00003E000000
00003E000000
00003E000000
00003E000000
00003E000000
00003E000000
00003E000000
00003E000000
00003E000000
00003E000000
00003E000000
00007E000000
00007F000000
00007F000000
0000FF800000
000FFFF80000
ENDCHAR
STARTCHAR 005A
ENCODING 90
SWIDTH 616 0
DWIDTH 37 0
BBX 34 40 1 0
BITMAP
0FFFFFFF80
0FFFFFFF80
0F00007F00
0E0000FE00
0C0000FC00
080001FC00
080003F800
180007F000
180007F000
10000FE000
00001FC000
00001FC000
00003F8000
00007F0000
00007F0000
0000FE0000
0001FC0000
0001FC0000
0003F80000
0007F00000
0007E00000
000FE00000
001FC00000
003F800000
003F800000
007F000000
00FE000000
00FE000000
01FC000000
03F8000000
03F8000040
07F00000C0
0FE0000080
0FE0000180
1FC0000180
3F80000380
3F00000780
7F00001F80
FFFFFFFF00
FFFFFFFF00
ENDCHAR
STARTCHAR 005B
ENCODING 91
SWIDTH 333 0
DWIDTH 20 0
BBX 13 53 5 -12
BITMAP
FFF8
FFF8
F000
F000
F000
F000
F000
F000
F000
F000
F000
F000
F000
F000
F000
F000
F000
F000
F000
F000
F000
F000
F000
F000
F000
F000
F000
F000
F000
F000
F000
F000
F000
F000
F000
F000
F000
F000
F000
F000
F000
F000
F000
F000
F000
F000
F000
F000
F000
F000
F000
FFF8
FFF8
ENDCHAR
STARTCHAR 005C
ENCODING 92
SWIDTH 283 0
DWIDTH 17 0
BBX 17 43 0 -1
BITMAP
E00000
600000
600000
700000
300000
300000
380000
180000
180000
1C0000
0C0000
0C0000
0E0000
060000
060000
070000
030000
030000
038000
018000
018000
01C000
00C000
00C000
00E000
006000
006000
007000
003000
003000
003800
001800
001800
001C00
000C00
000C00
000E00
000600
000600
000700
000300
000300
000380
ENDCHAR
STARTCHAR 005D
ENCODING 93
SWIDTH 333 0
DWIDTH 20 0
BBX 13 53 2 -12
BITMAP
FFF8
FFF8
0078
0078
0078
0078
0078
0078
0078
0078
0078
0078
0078
0078
0078
0078
0078
0078
0078
0078
0078
0078
0078
0078
0078
0078
0078
0078
0078
0078
0078
0078
0078
0078
0078
0078
0078
0078
0078
0078
0078
0078
0078
0078
0078
0078
0078
0078
0078
0078
0078
FFF8
FFF8
ENDCHAR
STARTCHAR 005E
ENCODING 94
SWIDTH 466 0
DWIDTH 28 0
BBX 26 21 1 20
BITMAP
000C0000
000C0000
001E0000
001F0000
003B0000
00738000
00618000
00E1C000
00C0E000
01C0E000
03807000
03803000
07003800
06001C00
0E001C00
1C000E00
1C000600
38000700
30000380
70000380
E00001C0
ENDCHAR
STARTCHAR 005F
ENCODING 95
SWIDTH 500 0
DWIDTH 30 0
BBX 32 2 -1 -13
BITMAP
FFFFFFFF
FFFFFFFF
ENDCHAR
STARTCHAR 0060
ENCODING 96
SWIDTH 333 0
DWIDTH 20 0
BBX 9 10 4 31
BITMAP
FC00
7C00
3E00
3E00
1E00
0F00
0700
0300
0180
0080
ENDCHAR
STARTCHAR 0061
ENCODING 97
SWIDTH 450 0
DWIDTH 27 0
BBX 25 29 2 -1
BITMAP
01FE0000
07FF8000
1F0FC000
3E03E000
3C03F000
7C01F000
7C01F000
7C01F000
7C01F000
3801F000
0003F000
001FF000
007DF000
01E1F000
0781F000
0F01F000
3E01F000
3C01F000
7801F000
F801F000
F801F000
F801F000
FC01F000
FC07F080
FE1DF100
7FF9FF00
7FF1FE00
3FE0FC00
0F807000
ENDCHAR
STARTCHAR 0062
ENCODING 98
SWIDTH 500 0
DWIDTH 30 0
BBX 28 43 0 -1
BITMAP
01800000
0F800000
7F800000
FF800000
0F800000
0F800000
0F800000
0F800000
0F800000
0F800000
0F800000
0F800000
0F800000
0F800000
0F81F800
0F87FE00
0F8FFF00
0F9FFF80
0FB83FC0
0FE01FC0
0FC00FE0
0F8007E0
0F8003E0
0F8003F0
0F8003F0
0F8001F0
0F8001F0
0F8001F0
0F8001F0
0F8001F0
0F8001F0
0F8001F0
0F8001E0
0F8003E0
0F8003E0
0F8003C0
0F800780
0F800780
0FC00F00
0FE01E00
03F83C00
00FFF000
003FC000
ENDCHAR
STARTCHAR 0063
ENCODING 99
SWIDTH 450 0
DWIDTH 27 0
BBX 23 29 2 -1
BITMAP
007F00
01FFE0
0783F0
0F01F8
1E00F8
1C00FC
3C00FC
7800FC
780078
780000
F80000
F80000
F80000
F80000
F80000
F80000
F80000
FC0002
FC0004
7E0004
7E000C
7F0018
3F8038
3FE0F0
1FFFF0
0FFFE0
07FFC0
03FF00
00FC00
ENDCHAR
STARTCHAR 0064
ENCODING 100
SWIDTH 500 0
DWIDTH 30 0
BBX 28 43 2 -1
BITMAP
00000700
00003F00
0000FF00
0001FF00
00003F00
00001F00
00001F00
00001F00
00001F00
00001F00
00001F00
00001F00
00001F00
00001F00
003F1F00
01FFDF00
03C1FF00
0780FF00
0F007F00
1E003F00
1E003F00
3C001F00
7C001F00
7C001F00
7C001F00
F8001F00
F8001F00
F8001F00
F8001F00
F8001F00
FC001F00
FC001F00
FC001F00
FC001F00
7E001F00
7F001F00
7F001F00
3FC03F00
1FE0FF00
1FFFDFF0
0FFF9FE0
03FF1F00
00FC1C00
ENDCHAR
STARTCHAR 0065
ENCODING 101
SWIDTH 450 0
DWIDTH 27 0
BBX 23 29 2 -1
BITMAP
007F00
01FFC0
0787E0
0E01F0
1C00F8
1800FC
3800FC
78007E
70007E
7FFFFE
7FFFFE
F00000
F00000
F00000
F80000
F80000
F80000
F80000
7C0002
7E0006
7E0004
7F000C
3F801C
3FE078
1FFFF0
0FFFF0
07FFE0
03FF80
007E00
ENDCHAR
STARTCHAR 0066
ENCODING 102
SWIDTH 333 0
DWIDTH 20 0
BBX 24 42 2 0
BITMAP
0007F0
001FFC
0030FE
00603F
00E03F
01E01F
01E00E
03C000
03C000
03C000
03C000
03C000
03C000
03C000
03C000
FFFF80
FFFF80
03C000
03C000
03C000
03C000
03C000
03C000
03C000
03C000
03C000
03C000
03C000
03C000
03C000
03C000
03C000
03C000
03C000
03C000
07C000
07C000
07E000
07E000
07E000
0FF000
FFFF80
ENDCHAR
STARTCHAR 0067
ENCODING 103
SWIDTH 500 0
DWIDTH 30 0
BBX 27 41 2 -13
BITMAP
007F0000
01C3E000
0780FFE0
0F00FFE0
0F007C00
1E007C00
1E003E00
3E003E00
3E003E00
3E003E00
3E003E00
3E003E00
3E003E00
1F003C00
1F007C00
0F807800
0780F000
03E1E000
01FF0000
03000000
06000000
0C000000
1C000000
1E000000
3FFFFC00
1FFFFF00
1FFFFF80
07FFFFC0
0C0003C0
180000E0
180000E0
300000C0
700000C0
F00000C0
F8000180
FC000700
FF801F00
7FFFFC00
3FFFF800
0FFFE000
01FF0000
ENDCHAR
STARTCHAR 0068
ENCODING 104
SWIDTH 500 0
DWIDTH 30 0
BBX 29 42 1 0
BITMAP
03800000
1F800000
7F800000
FF800000
1F800000
0F800000
0F800000
0F800000
0F800000
0F800000
0F800000
0F800000
0F800000
0F800000
0F81F000
0F87FC00
0F8FFE00
0F9FFE00
0FB83F00
0FE01F00
0FC01F00
0F801F00
0F800F80
0F800F80
0F800F80
0F800F80
0F800F80
0F800F80
0F800F80
0F800F80
0F800F80
0F800F80
0F800F80
0F800F80
0F800F80
0F800F80
0F800F80
0F800F80
0F800F80
1F801F80
3FC03FC0
FFF9FFF8
ENDCHAR
STARTCHAR 0069
ENCODING 105
SWIDTH 283 0
DWIDTH 17 0
BBX 13 42 2 0
BITMAP
0700
0F80
0FC0
0F80
0700
0000
0000
0000
0000
0000
0000
0000
0000
0000
0380
0F80
7F80
FF80
0F80
0F80
0F80
0F80
0F80
0F80
0F80
0F80
0F80
0F80
0F80
0F80
0F80
0F80
0F80
0F80
0F80
0F80
0F80
0F80
0F80
0FC0
1FC0
FFF8
ENDCHAR
STARTCHAR 006A
ENCODING 106
SWIDTH 283 0
DWIDTH 17 0
BBX 17 55 -5 -13
BITMAP
000E00
001F00
001F80
001F00
000E00
000000
000000
000000
000000
000000
000000
000000
000000
000000
000300
001F00
00FF00
01FF00
001F00
001F00
001F00
001F00
001F00
001F00
001F00
001F00
001F00
001F00
001F00
001F00
001F00
001F00
001F00
001F00
001F00
001F00
001F00
001F00
001F00
001F00
001F00
001F00
001F00
001F00
001F00
001F00
001F00
001E00
001E00
001E00
781C00
7C1800
FE3000
7FE000
3F8000
ENDCHAR
STARTCHAR 006B
ENCODING 107
SWIDTH 500 0
DWIDTH 30 0
BBX 30 42 0 0
BITMAP
01C00000
0FC00000
3FC00000
7FC00000
0FC00000
07C00000
07C00000
07C00000
07C00000
07C00000
07C00000
07C00000
07C00000
07C00000
07C00000
07C07FF8
07C01FC0
07C01E00
07C01C00
07C03800
07C07000
07C0E000
07C1C000
07C30000
07CE0000
07DE0000
07FF0000
07FF0000
07DF8000
07CFC000
07C7E000
07C7E000
07C3F000
07C1F800
07C0FC00
07C0FE00
07C07E00
07C03F00
07C01F80
0FC01FC0
0FE01FE0
FFFC7FFC
ENDCHAR
STARTCHAR 006C
ENCODING 108
SWIDTH 283 0
DWIDTH 17 0
BBX 13 42 2 0
BITMAP
0380
0F80
7F80
FF80
0F80
0F80
0F80
0F80
0F80
0F80
0F80
0F80
0F80
0F80
0F80
0F80
0F80
0F80
0F80
0F80
0F80
0F80
0F80
0F80
0F80
0F80
0F80
0F80
0F80
0F80
0F80
0F80
0F80
0F80
0F80
0F80
0F80
0F80
0F80
0FC0
1FC0
FFF8
ENDCHAR
STARTCHAR 006D
ENCODING 109
SWIDTH 783 0
DWIDTH 47 0
BBX 45 28 1 0
BITMAP
0380F800F800
0F83FC03FE00
7F8FFE0FFF00
FF9FFF1FFF00
0FB83F3C3F80
0FE01FF01F80
0FC00FC00F80
0F800F800F80
0F800F800F80
0F800F800F80
0F800F800F80
0F800F800F80
0F800F800F80
0F800F800F80
0F800F800F80
0F800F800F80
0F800F800F80
0F800F800F80
0F800F800F80
0F800F800F80
0F800F800F80
0F800F800F80
0F800F800F80
0F800F800F80
0F800F800F80
0F800F800FC0
1FC01FE01FE0
FFF8FFFCFFF8
ENDCHAR
STARTCHAR 006E
ENCODING 110
SWIDTH 500 0
DWIDTH 30 0
BBX 29 28 1 0
BITMAP
0381F000
1F87FC00
7F8FFE00
FF9FFE00
1FB83F00
0FE01F00
0FC01F00
0F801F80
0F800F80
0F800F80
0F800F80
0F800F80
0F800F80
0F800F80
0F800F80
0F800F80
0F800F80
0F800F80
0F800F80
0F800F80
0F800F80
0F800F80
0F800F80
0F800F80
0F800F80
1F801F80
1FC03FC0
FFF9FFF8
ENDCHAR
STARTCHAR 006F
ENCODING 111
SWIDTH 500 0
DWIDTH 30 0
BBX 26 29 2 -1
BITMAP
003F8000
01FFE000
03C1F800
0F00FC00
0E007E00
1E003E00
3C003F00
3C001F00
7C001F80
7C000F80
7C000FC0
F8000FC0
F8000FC0
F8000FC0
FC000FC0
FC000FC0
FC000FC0
FC000FC0
FC000F80
7C000F80
7E000F80
7E000F00
3F000F00
1F001E00
1F801C00
0FC03800
07F0F000
01FFE000
007F0000
ENDCHAR
STARTCHAR 0070
ENCODING 112
SWIDTH 500 0
DWIDTH 30 0
BBX 28 41 0 -13
BITMAP
0181F800
0F87FE00
7F8FFF00
FF9FFF80
0FB83FC0
0FB01FC0
0FE00FE0
0FC007E0
0F8007E0
0F8003F0
0F8003F0
0F8003F0
0F8003F0
0F8001F0
0F8001F0
0F8001F0
0F8001F0
0F8001F0
0F8001E0
0F8003E0
0F8003E0
0F8003C0
0FC003C0
0FC00780
0FC00F80
0FE00F00
0FF83E00
0F9FF800
0F8FE000
0F800000
0F800000
0F800000
0F800000
0F800000
0F800000
0F800000
0F800000
0F800000
0FC00000
1FE00000
FFFC0000
ENDCHAR
STARTCHAR 0071
ENCODING 113
SWIDTH 500 0
DWIDTH 30 0
BBX 28 41 2 -13
BITMAP
003F8300
00FFEF00
03C1FF00
07807F00
0F003F00
1E003F00
3C001F00
3C001F00
7C001F00
78001F00
78001F00
F8001F00
F8001F00
F8001F00
F8001F00
F8001F00
F8001F00
F8001F00
FC001F00
FC001F00
7C001F00
7E001F00
7F003F00
3F807F00
3FC0DF00
1FFF9F00
0FFF1F00
07FE1F00
01F81F00
00001F00
00001F00
00001F00
00001F00
00001F00
00001F00
00001F00
00001F00
00001F00
00003F00
00003F80
0003FFF0
ENDCHAR
STARTCHAR 0072
ENCODING 114
SWIDTH 333 0
DWIDTH 20 0
BBX 19 28 1 0
BITMAP
0387C0
1F8FE0
7F9FE0
FFBFE0
1FE3C0
0FC000
0FC000
0F8000
0F8000
0F8000
0F8000
0F8000
0F8000
0F8000
0F8000
0F8000
0F8000
0F8000
0F8000
0F8000
0F8000
0F8000
0F8000
0F8000
0F8000
1FC000
3FE000
FFF800
ENDCHAR
STARTCHAR 0073
ENCODING 115
SWIDTH 383 0
DWIDTH 23 0
BBX 18 29 3 -1
BITMAP
07E100
1FFF00
3C1F00
700F00
700700
E00300
E00300
F00100
F00100
FC0000
FE0000
7F8000
3FE000
1FF800
0FFE00
03FF00
00FF80
003F80
000FC0
0007C0
8007C0
8003C0
C003C0
E003C0
E00380
F80780
FC0F00
FFFC00
87F000
ENDCHAR
STARTCHAR 0074
ENCODING 116
SWIDTH 283 0
DWIDTH 17 0
BBX 16 37 1 -1
BITMAP
0080
0180
0180
0380
0380
0780
0F80
1F80
3F80
7FFE
FFFE
0F80
0F80
0F80
0F80
0F80
0F80
0F80
0F80
0F80
0F80
0F80
0F80
0F80
0F80
0F80
0F80
0F80
0F80
0F80
0F80
0F83
0FC6
0FFE
07FC
07F8
01E0
ENDCHAR
STARTCHAR 0075
ENCODING 117
SWIDTH 500 0
DWIDTH 30 0
BBX 30 28 0 -1
BITMAP
FF80FF80
1F801F80
0F800F80
0F800F80
07800780
07800780
07800780
07800780
07800780
07800780
07800780
07800780
07800780
07800780
07800780
07800780
07800780
07800780
07800780
07C00780
07C00F80
07C01F80
07C037C0
07F0E7C0
03FFC7FC
03FF87F8
01FF07C0
007C0600
ENDCHAR
STARTCHAR 0076
ENCODING 118
SWIDTH 500 0
DWIDTH 30 0
BBX 29 28 0 -1
BITMAP
FFF807F8
3FE001F0
0FC000E0
0FC000C0
07C001C0
07E00180
03E00380
03E00300
01F00300
01F00700
01F80600
00F80E00
00FC0C00
007C0C00
007C1C00
003E1800
003E3800
003F3000
001F3000
001F6000
000FE000
000FE000
000FC000
0007C000
00078000
00038000
00038000
00010000
ENDCHAR
STARTCHAR 0077
ENCODING 119
SWIDTH 716 0
DWIDTH 43 0
BBX 43 28 0 -1
BITMAP
FFF1FFF03FE0
3FC03FC00780
1F801F800700
0F801F800600
0F800F800600
07C00F800E00
07C007C00C00
03E007C00C00
03E007C01C00
03E00FE01800
01F00FE03800
01F00FF03000
01F019F03000
00F819F07000
00F830F86000
007830F86000
007C70F8C000
007C607CC000
003EE07DC000
003EC03F8000
003FC03F8000
001F803F8000
001F801F0000
000F001F0000
000F000E0000
000E000E0000
0006000E0000
000600040000
ENDCHAR
STARTCHAR 0078
ENCODING 120
SWIDTH 500 0
DWIDTH 30 0
BBX 28 27 1 0
BITMAP
FFF0FF80
3FE03E00
0FC03C00
0FC03800
07E03000
03F07000
01F0E000
01F9C000
00FD8000
007F8000
007F0000
003F0000
001F0000
001F8000
003FC000
0037C000
0067E000
00E3F000
01C1F000
0181F800
0300FC00
07007C00
0E007E00
0C003F00
1C003F80
7E007FC0
FF80FFF0
ENDCHAR
STARTCHAR 0079
ENCODING 121
SWIDTH 500 0
DWIDTH 30 0
BBX 30 40 0 -13
BITMAP
FFF807FC
3FC001F0
1FC000E0
0FC000C0
0FC001C0
07C001C0
07E00180
03E00380
03F00300
01F00700
01F00700
00F80600
00F80E00
007C0C00
007C1C00
003E1C00
003E1800
001F3800
001F3000
001FF000
000FF000
000FE000
0007E000
0007C000
0003C000
0003C000
00018000
00038000
00038000
00030000
00070000
00060000
000E0000
000C0000
001C0000
1E380000
3FF80000
3FF00000
3FC00000
1F000000
ENDCHAR
STARTCHAR 007A
ENCODING 122
SWIDTH 450 0
DWIDTH 27 0
BBX 25 27 1 0
BITMAP
3FFFFF80
3FFFFF00
38003F00
30007E00
3000FC00
2001F800
2001F800
0003F000
0007E000
000FC000
000FC000
001F8000
003F0000
007E0000
007E0000
00FC0000
01F80000
03F00000
03F00000
07E00100
0FC00100
1F800100
1F800100
3F000300
7E000700
7FFFFF00
FFFFFF00
ENDCHAR
STARTCHAR 007B
ENCODING 123
SWIDTH 483 0
DWIDTH 29 0
BBX 17 55 8 -13
BITMAP
000380
000E00
003800
007000
00E000
01C000
01C000
03C000
03C000
03C000
03C000
03C000
03E000
03E000
03E000
03E000
03E000
01E000
01E000
01E000
01E000
01C000
01C000
038000
070000
0E0000
380000
E00000
380000
0E0000
070000
038000
01C000
01C000
01E000
01E000
01E000
01E000
03E000
03E000
03E000
03E000
03E000
03C000
03C000
03C000
03C000
03C000
01C000
01C000
00E000
007000
003800
000E00
000380
ENDCHAR
STARTCHAR 007C
ENCODING 124
SWIDTH 200 0
DWIDTH 12 0
BBX 2 55 5 -13
BITMAP
C0
C0
C0
C0
C0
C0
C0
C0
C0
C0
C0
C0
C0
C0
C0
C0
C0
C0
C0
C0
C0
C0
C0
C0
C0
C0
C0
C0
C0
C0
C0
C0
C0
C0
C0
C0
C0
C0
C0
C0
C0
C0
C0
C0
C0
C0
C0
C0
C0
C0
C0
C0
C0
C0
C0
ENDCHAR
STARTCHAR 007D
ENCODING 125
SWIDTH 483 0
DWIDTH 29 0
BBX 17 55 5 -13
BITMAP
E00000
380000
0E0000
070000
038000
038000
01C000
01C000
01E000
01E000
01E000
03E000
03E000
03E000
03E000
03E000
07E000
07C000
03C000
03C000
03C000
01C000
01C000
00E000
006000
003800
000E00
000380
000C00
003800
006000
00E000
01C000
01C000
03C000
03C000
03C000
07C000
07C000
03E000
03E000
03E000
03E000
03E000
01E000
01E000
01E000
01C000
01C000
038000
038000
070000
0C0000
380000
C00000
ENDCHAR
STARTCHAR 007E
ENCODING 126
SWIDTH 533 0
DWIDTH 32 0
BBX 31 7 1 13
BITMAP
0FC00006
3FF80006
707F0004
E00FC00C
C001F838
80003FF0
800007C0
ENDCHAR
STARTCHAR 00A0
ENCODING 160
SWIDTH 250 0
DWIDTH 15 0
BBX 0 0 0 0
BITMAP
ENDCHAR
STARTCHAR 00A1
ENCODING 161
SWIDTH 333 0
DWIDTH 20 0
BBX 6 42 7 -13
BITMAP
78
FC
FC
FC
78
00
00
00
00
00
30
30
30
30
30
30
30
30
30
78
78
78
78
78
78
78
78
78
78
FC
FC
FC
FC
FC
FC
FC
FC
FC
FC
FC
FC
78
ENDCHAR
STARTCHAR 00A2
ENCODING 162
SWIDTH 500 0
DWIDTH 30 0
BBX 22 50 4 -11
BITMAP
000030
000030
000060
000060
000060
0000C0
0000C0
0001C0
000180
000180
000380
007F00
01FFC0
0787E0
0F07F0
1E07F8
3C0CF8
380CFC
780CF8
781878
F81800
F83800
F03000
F03000
F87000
F86000
F86000
F8C000
F8C004
FCC004
FD800C
7F800C
7F8018
7F8038
3FE0F0
1FFFE0
0FFFE0
07FFC0
0FFF00
0CFC00
0C0000
180000
180000
180000
300000
300000
700000
600000
600000
C00000
ENDCHAR
STARTCHAR 00A3
ENCODING 163
SWIDTH 500 0
DWIDTH 30 0
BBX 26 42 2 -1
BITMAP
0003F000
000FFC00
003C1E00
00781F00
00F00F00
00F00F00
01E00F00
01E00600
01E00000
03E00000
03E00000
03E00000
03E00000
03E00000
03E00000
03E00000
03E00000
01F00000
7FFFE000
7FFFE000
7FFFE000
01F00000
01F00000
01F00000
01F00000
01F00000
01F00000
01E00000
01E00000
01E00000
01E00000
01E00000
01E00040
01C00040
3FC00040
7FF000C0
C3FF03C0
C3FFFF80
833FFF80
C60FFF00
FE07FE00
7801F800
ENDCHAR
STARTCHAR 00A4
ENCODING 164
SWIDTH 500 0
DWIDTH 30 0
BBX 28 28 1 6
BITMAP
40000020
E01F8070
70FFF0E0
3BE07DC0
1F801F80
0E000700
1C000380
18000180
380001C0
300000C0
700000C0
700000E0
600000E0
60000060
60000060
600000E0
700000E0
700000C0
300000C0
380001C0
18000180
1C000380
0E000700
1F801F80
3BE07DC0
70FFF0E0
E03FC070
40000020
ENDCHAR
STARTCHAR 00A5
ENCODING 165
SWIDTH 500 0
DWIDTH 30 0
BBX 30 40 0 0
BITMAP
FFF80FFC
3FE003F0
1FC001E0
0FC001C0
0FC00180
07C00380
07E00380
03E00700
03F00700
01F00600
01F00E00
01F80E00
00F81C00
00FC1C00
007C1800
007C3800
007E3000
003E7000
003F7000
001F6000
001FE000
FFFFFFFC
FFFFFFFC
000F8000
000F8000
000F8000
000F8000
000F8000
FFFFFFFC
FFFFFFFC
000F8000
000F8000
000F8000
000F8000
000FC000
000FC000
000FC000
000FC000
001FE000
01FFFE00
ENDCHAR
STARTCHAR 00A6
ENCODING 166
SWIDTH 200 0
DWIDTH 12 0
BBX 2 55 5 -13
BITMAP
C0
C0
C0
C0
C0
C0
C0
C0
C0
C0
C0
C0
C0
C0
C0
C0
C0
C0
C0
C0
C0
C0
00
00
00
00
00
00
00
00
00
00
00
C0
C0
C0
C0
C0
C0
C0
C0
C0
C0
C0
C0
C0
C0
C0
C0
C0
C0
C0
C0
C0
C0
ENDCHAR
STARTCHAR 00A7
ENCODING 167
SWIDTH 500 0
DWIDTH 30 0
BBX 20 53 5 -12
BITMAP
00FC00
038700
060380
0C0380
1C03C0
1C03C0
1C03C0
3C03C0
3C0380
3C0000
1E0000
1F0000
1F8000
0FC000
07E000
03F800
07FC00
0CFE00
187F00
303F80
601FC0
600FE0
E007E0
E001F0
E001F0
E000F0
E00070
F00070
F00070
F80070
7C0070
7E0060
3F8060
1FC0C0
0FE180
07F300
03FE00
01FC00
00FE00
007F00
003F80
001F80
000F80
000780
1C03C0
3C03C0
3C0180
3C0180
3C0380
1C0300
1C0600
060C00
03F000
ENDCHAR
STARTCHAR 00A8
ENCODING 168
SWIDTH 333 0
DWIDTH 20 0
BBX 16 5 2 33
BITMAP
781E
FC3F
FC3F
FC3F
781E
ENDCHAR
STARTCHAR 00A9
ENCODING 169
SWIDTH 766 0
DWIDTH 46 0
BBX 42 42 2 -1
BITMAP
0000FF800000
0007FFF00000
001F807E0000
0078000F0000
00E00003C000
01C00000E000
030000007000
06003FC23800
0C01E07E1C00
1C07801E0C00
180E000E0600
301E000E0600
303C00060300
603800020300
607800030180
607800030180
C0F800000180
C0F000000180
C0F000000080
C1F0000000C0
C1F0000000C0
C1F0000000C0
C1F0000000C0
C0F000000080
C0F800000180
C0F800000180
60F800000180
607800000180
607C00010300
303E00030300
301E00060600
180F801C0600
1C07E0780C00
0C01FFE01C00
06007F803800
030000007000
01C00000E000
00E00003C000
0078000F0000
001F807E0000
0007FFF00000
0000FF800000
ENDCHAR
STARTCHAR 00AA
ENCODING 170
SWIDTH 283 0
DWIDTH 17 0
BBX 16 18 0 23
BITMAP
0FE0
3878
7038
703C
703C
703C
00FC
033C
0C3C
183C
783C
703C
F03C
F03C
F03D
F8FF
7FBE
3C1C
ENDCHAR
STARTCHAR 00AB
ENCODING 171
SWIDTH 500 0
DWIDTH 30 0
BBX 26 28 2 0
BITMAP
001800C0
00300180
00700380
00E00300
00E00700
01C00E00
03C01E00
07803C00
0F807C00
1F007800
1F00F800
3E01F000
7E03F000
FC07E000
FC07E000
7E03F000
3E01F000
1F00F800
0F007800
0F807C00
07803C00
03C01E00
01C00E00
00E00700
00E00300
00700380
00300180
001800C0
ENDCHAR
STARTCHAR 00AC
ENCODING 172
SWIDTH 566 0
DWIDTH 34 0
BBX 32 12 1 14
BITMAP
FFFFFFFF
FFFFFFFF
00000007
00000007
00000007
00000007
00000007
00000007
00000007
00000007
00000007
00000007
ENDCHAR
STARTCHAR 00AD
ENCODING 173
SWIDTH 333 0
DWIDTH 20 0
BBX 16 5 2 11
BITMAP
FFFF
FFFF
FFFF
FFFF
FFFF
ENDCHAR
STARTCHAR 00AE
ENCODING 174
SWIDTH 766 0
DWIDTH 46 0
BBX 42 42 2 -1
BITMAP
0000FF800000
0007FFF00000
001F807E0000
0078000F0000
00E00003C000
01C00000E000
030000007000
060000003800
0C7FFF001C00
1C1F07C00C00
180F01F00600
300F00F00600
300F00F80300
600F00F80300
600F00780180
600F00780180
C00F00F80180
C00F00F80180
C00F00F00080
C00F01E000C0
C00F07C000C0
C00FFF0000C0
C00F1E0000C0
C00F0F000080
C00F0F800180
C00F07800180
600F03C00180
600F03E00180
600F01F00300
300F00F00300
300F00780600
180F007C0600
1C1F803E0C00
0C7FF01F1C00
060000003800
030000007000
01C00000E000
00E00003C000
0078000F0000
001F807E0000
0007FFF00000
0000FF800000
ENDCHAR
STARTCHAR 00AF
ENCODING 175
SWIDTH 500 0
DWIDTH 30 0
BBX 32 2 -1 43
BITMAP
FFFFFFFF
FFFFFFFF
ENDCHAR
STARTCHAR 00B0
ENCODING 176
SWIDTH 400 0
DWIDTH 24 0
BBX 18 18 3 23
BITMAP
03F000
0FFC00
1C1E00
380700
700380
600180
E001C0
C001C0
C001C0
C001C0
C001C0
E001C0
600180
700380
380700
1C1E00
0FFC00
03F000
ENDCHAR
STARTCHAR 00B1
ENCODING 177
SWIDTH 550 0
DWIDTH 33 0
BBX 32 30 0 5
BITMAP
00018000
00018000
00018000
00018000
00018000
00018000
00018000
00018000
00018000
00018000
00018000
00018000
00018000
00018000
FFFFFFFF
FFFFFFFF
00018000
00018000
00018000
00018000
00018000
00018000
00018000
00018000
00018000
00018000
00018000
00018000
FFFFFFFF
FFFFFFFF
ENDCHAR
STARTCHAR 00B2
ENCODING 178
SWIDTH 300 0
DWIDTH 18 0
BBX 16 21 1 20
BITMAP
07C0
1FF0
3FF8
707C
603C
C03C
C01C
001C
0038
0038
0070
00E0
01C0
0380
0600
0C00
1803
3FFE
7FFE
FFFE
FFFC
ENDCHAR
STARTCHAR 00B3
ENCODING 179
SWIDTH 300 0
DWIDTH 18 0
BBX 14 21 1 20
BITMAP
07C0
1FF0
3FF8
70F8
4078
0038
0070
0070
00E0
01E0
0FF8
00FC
003C
003C
001C
001C
001C
7038
F870
7FE0
3F80
ENDCHAR
STARTCHAR 00B4
ENCODING 180
SWIDTH 333 0
DWIDTH 20 0
BBX 9 10 7 31
BITMAP
1F80
1F00
3E00
3E00
3C00
7800
7000
6000
C000
8000
ENDCHAR
STARTCHAR 00B5
ENCODING 181
SWIDTH 583 0
DWIDTH 35 0
BBX 28 40 4 -13
BITMAP
3E003C00
3E003C00
3E003C00
3E003C00
3E003C00
3E003C00
3E003C00
3E003C00
3E003C00
3E003C00
3E003C00
3E003C00
3E003C00
3E003C00
3E003C00
3E003C00
3E003C00
3E003C00
3E003C00
3E003C00
3E007C00
3E00FE00
3F01FE00
3F87BE30
3FFF3FF0
3FFE3FE0
37F81FE0
33E00F80
70000000
70000000
70000000
70000000
78000000
F8000000
F8000000
F8000000
F8000000
F8000000
F8000000
70000000
ENDCHAR
STARTCHAR 00B6
ENCODING 182
SWIDTH 450 0
DWIDTH 27 0
BBX 27 53 0 -13
BITMAP
00FFFFE0
07FFFFE0
0FFF0600
1FFF0600
3FFF0600
7FFF0600
FFFF0600
FFFF0600
FFFF0600
FFFF0600
FFFF0600
FFFF0600
FFFF0600
FFFF0600
FFFF0600
FFFF0600
7FFF0600
3FFF0600
3FFF0600
1FFF0600
07FF0600
007F0600
00030600
00030600
00030600
00030600
00030600
00030600
00030600
00030600
00030600
00030600
00030600
00030600
00030600
00030600
00030600
00030600
00030600
00030600
00030600
00030600
00030600
00030600
00030600
00030600
00030600
00030600
00030600
00030600
00030600
00030600
00030600
ENDCHAR
STARTCHAR 00B7
ENCODING 183
SWIDTH 250 0
DWIDTH 15 0
BBX 7 7 4 17
BITMAP
38
7C
FE
FE
FE
7C
38
ENDCHAR
STARTCHAR 00B8
ENCODING 184
SWIDTH 333 0
DWIDTH 20 0
BBX 10 12 5 -12
BITMAP
0600
0400
0E00
0F00
1F80
1F80
07C0
0780
0780
0780
0F00
FC00
ENDCHAR
STARTCHAR 00B9
ENCODING 185
SWIDTH 300 0
DWIDTH 18 0
BBX 10 21 4 20
BITMAP
0E00
7E00
DE00
1E00
1E00
1E00
1E00
1E00
1E00
1E00
1E00
1E00
1E00
1E00
1E00
1E00
1E00
1E00
1E00
1E00
FFC0
ENDCHAR
STARTCHAR 00BA
ENCODING 186
SWIDTH 316 0
DWIDTH 19 0
BBX 17 18 1 23
BITMAP
03E000
1FF800
3C7C00
781E00
701F00
F00F00
F00F80
F00F80
F00780
F00780
F00780
F80780
F80700
780F00
7C0E00
3E1C00
1FF800
07E000
ENDCHAR
STARTCHAR 00BB
ENCODING 187
SWIDTH 500 0
DWIDTH 30 0
BBX 26 28 2 0
BITMAP
C0060000
60030000
70038000
3001C000
3801C000
1C00E000
1E00F000
0F007800
0F807C00
07803C00
07C03E00
03E01F00
03F01F80
01F80FC0
01F80FC0
03F01F80
03E01F00
07C03E00
07803E00
0F807C00
0F007800
1E00F000
1C00E000
3801C000
3001C000
70038000
60030000
C0060000
ENDCHAR
STARTCHAR 00BC
ENCODING 188
SWIDTH 750 0
DWIDTH 45 0
BBX 40 42 4 -1
BITMAP
0E000001C0
7E00000380
DE00000300
1E00000700
1E00000E00
1E00000C00
1E00001C00
1E00003800
1E00003000
1E00007000
1E0000E000
1E0000C000
1E0001C000
1E00038000
1E00030000
1E00070000
1E000E0000
1E000C0000
1E001C0000
1E00180000
FFC0380038
0000700078
00006000F8
0000E000F8
0001C001F8
0001800378
0003800778
0007000678
0006000C78
000E001878
001C003878
0018007078
0038006078
007000C078
006001FFFF
00E001FFFF
01C0000078
0180000078
0380000078
0700000078
0600000078
0E00000000
ENDCHAR
STARTCHAR 00BD
ENCODING 189
SWIDTH 750 0
DWIDTH 45 0
BBX 40 42 4 -1
BITMAP
0E00000380
7E00000300
DE00000700
1E00000E00
1E00000C00
1E00001C00
1E00003800
1E00003000
1E00007000
1E0000E000
1E0000C000
1E0001C000
1E00038000
1E00030000
1E00070000
1E000E0000
1E000C0000
1E001C0000
1E00380000
1E00300000
FFC0700000
0000600FC0
0000C01FF0
0001C03FF8
00018070FC
000380603C
000700C03C
000600C01C
000E00003C
001C000038
0018000030
0038000070
00700000E0
00600001C0
00E0000380
01C0000600
0180000C00
0380001803
0700003FFE
0600007FFE
0E0000FFFE
1C0000FFFC
ENDCHAR
STARTCHAR 00BE
ENCODING 190
SWIDTH 750 0
DWIDTH 45 0
BBX 43 42 1 -1
BITMAP
07C000003000
1FF000006000
3FF80000E000
70F80000C000
407800018000
007800038000
007000030000
007000070000
00E0000E0000
01E0000C0000
0FF8001C0000
00F800380000
003C00300000
003C00700000
001C00E00000
001C00C00000
001C01C00000
603803800000
F87003000000
FFE007000000
3F8006000000
00000C000700
00001C000F00
000018001F00
000038001F00
000070003F00
000060006F00
0000E000EF00
0001C001CF00
000180018F00
000380030F00
000700070F00
0006000E0F00
000E001C0F00
001C00180F00
0018003FFFE0
0038003FFFE0
007000000F00
006000000F00
00E000000F00
01C000000F00
018000000F00
ENDCHAR
STARTCHAR 00BF
ENCODING 191
SWIDTH 450 0
DWIDTH 27 0
BBX 21 42 3 -13
BITMAP
00F000
01F800
01FC00
01F800
00F000
000000
000000
000000
000000
002000
002000
002000
002000
006000
006000
004000
00C000
01C000
018000
038000
070000
0F0000
0F0000
1E0000
3E0000
3C0000
7C0000
7C0000
F80000
F800E0
F800F0
F800F8
F800F8
F800F8
F80078
F80078
FC0070
7E0070
3E00E0
1F81C0
0FFF80
01FC00
ENDCHAR
STARTCHAR 00C0
ENCODING 192
SWIDTH 716 0
DWIDTH 43 0
BBX 43 54 0 0
BITMAP
0001FC000000
0000FC000000
00007C000000
00003E000000
00001E000000
00000E000000
000007000000
000007000000
000003000000
000001800000
000000000000
000000000000
000000000000
000004000000
00000E000000
00000E000000
00001E000000
00001F000000
00001F000000
00003F800000
00003F800000
00007FC00000
00007FC00000
00007FC00000
0000E7E00000
0000E7E00000
0001C7F00000
0001C3F00000
0003C3F00000
000381F80000
000381F80000
000701FC0000
000700FC0000
000E00FC0000
000E007E0000
001E007E0000
001C003F0000
001C003F0000
0038003F8000
003FFFFF8000
007FFFFF8000
0070000FC000
00E0000FC000
00E00007E000
00E00007E000
01C00003E000
01C00003F000
03800003F000
03800001F800
07800001F800
07000001FC00
0F800001FE00
3FC00003FF00
FFF8001FFFE0
ENDCHAR
STARTCHAR 00C1
ENCODING 193
SWIDTH 716 0
DWIDTH 43 0
BBX 43 54 0 0
BITMAP
000007F00000
000007E00000
000007C00000
00000F800000
00000F000000
00000E000000
00000C000000
00001C000000
000018000000
000010000000
000000000000
000000000000
000000000000
000004000000
00000E000000
00000E000000
00001E000000
00001F000000
00001F000000
00003F800000
00003F800000
00007FC00000
00007FC00000
00007FC00000
0000E7E00000
0000E7E00000
0001C7F00000
0001C3F00000
0003C3F00000
000381F80000
000381F80000
000701FC0000
000700FC0000
000E00FC0000
000E007E0000
001E007E0000
001C003F0000
001C003F0000
0038003F8000
003FFFFF8000
007FFFFF8000
0070000FC000
00E0000FC000
00E00007E000
00E00007E000
01C00003E000
01C00003F000
03800003F000
03800001F800
07800001F800
07000001FC00
0F800001FE00
3FC00003FF00
FFF8001FFFE0
ENDCHAR
STARTCHAR 00C2
ENCODING 194
SWIDTH 716 0
DWIDTH 43 0
BBX 43 54 0 0
BITMAP
00001F800000
00003F800000
00007FC00000
00007FC00000
0000F3E00000
0000E1E00000
0001C0F00000
000180300000
000300180000
0002000C0000
000000000000
000000000000
000000000000
000004000000
00000E000000
00000E000000
00001E000000
00001F000000
00001F000000
00003F800000
00003F800000
00007FC00000
00007FC00000
00007FC00000
0000E7E00000
0000E7E00000
0001C7F00000
0001C3F00000
0003C3F00000
000381F80000
000381F80000
000701FC0000
000700FC0000
000E00FC0000
000E007E0000
001E007E0000
001C003F0000
001C003F0000
0038003F8000
003FFFFF8000
007FFFFF8000
0070000FC000
00E0000FC000
00E00007E000
00E00007E000
01C00003E000
01C00003F000
03800003F000
03800001F800
07800001F800
07000001FC00
0F800001FE00
3FC00003FF00
FFF8001FFFE0
ENDCHAR
STARTCHAR 00C3
ENCODING 195
SWIDTH 716 0
DWIDTH 43 0
BBX 43 52 0 0
BITMAP
0000F0020000
0003FC020000
0007FF060000
0007FFC60000
00043FFC0000
000C1FFC0000
000807F80000
000801E00000
000000000000
000000000000
000000000000
000004000000
00000E000000
00000E000000
00001E000000
00001F000000
00001F000000
00003F800000
00003F800000
00007FC00000
00007FC00000
00007FC00000
0000E7E00000
0000E7E00000
0001C7F00000
0001C3F00000
0003C3F00000
000381F80000
000381F80000
000701FC0000
000700FC0000
000E00FC0000
000E007E0000
001E007E0000
001C003F0000
001C003F0000
0038003F8000
003FFFFF8000
007FFFFF8000
0070000FC000
00E0000FC000
00E00007E000
00E00007E000
01C00003E000
01C00003F000
03800003F000
03800001F800
07800001F800
07000001FC00
0F800001FE00
3FC00003FF00
FFF8001FFFE0
ENDCHAR
STARTCHAR 00C4
ENCODING 196
SWIDTH 716 0
DWIDTH 43 0
BBX 43 49 0 0
BITMAP
0003C0780000
0007E0FC0000
0007F1FC0000
0007E0FC0000
0003C0780000
000000000000
000000000000
000000000000
000004000000
00000E000000
00000E000000
00001E000000
00001F000000
00001F000000
00003F800000
00003F800000
00007FC00000
00007FC00000
00007FC00000
0000E7E00000
0000E7E00000
0001C7F00000
0001C3F00000
0003C3F00000
000381F80000
000381F80000
000701FC0000
000700FC0000
000E00FC0000
000E007E0000
001E007E0000
001C003F0000
001C003F0000
0038003F8000
003FFFFF8000
007FFFFF8000
0070000FC000
00E0000FC000
00E00007E000
00E00007E000
01C00003E000
01C00003F000
03800003F000
03800001F800
07800001F800
07000001FC00
0F800001FE00
3FC00003FF00
FFF8001FFFE0
ENDCHAR
STARTCHAR 00C5
ENCODING 197
SWIDTH 716 0
DWIDTH 43 0
BBX 43 51 0 0
BITMAP
00001F000000
00003F800000
000071C00000
0000E0E00000
0000C0600000
0000C0600000
0000C0600000
0000C0600000
0000E0E00000
000071C00000
00003F800000
00001F000000
00000E000000
00001E000000
00001F000000
00001F000000
00003F800000
00003F800000
00007FC00000
00007FC00000
00007FC00000
0000E7E00000
0000E7E00000
0001C7F00000
0001C3F00000
0003C3F00000
000381F80000
000381F80000
000701FC0000
000700FC0000
000E00FC0000
000E007E0000
001E007E0000
001C003F0000
001C003F0000
0038003F8000
003FFFFF8000
007FFFFF8000
0070000FC000
00E0000FC000
00E00007E000
00E00007E000
01C00003E000
01C00003F000
03800003F000
03800001F800
07800001F800
07000001FC00
0F800001FE00
3FC00003FF00
FFF8001FFFE0
ENDCHAR
STARTCHAR 00C6
ENCODING 198
SWIDTH 883 0
DWIDTH 53 0
BBX 53 40 -1 0
BITMAP
00007FFFFFFF80
00000FFFFFFF80
000007FE000780
000003FE000180
0000077E000180
0000077E000080
0000067E000080
00000E7E000080
00000C7E000080
00001C7E000000
0000187E000000
0000387E000000
0000307E000400
0000607E000400
0000E07E000400
0000C07E000C00
0001C07E000C00
0001807E003C00
0003807FFFFC00
0003007FFFFC00
0007007E003C00
0006007E000C00
000FFFFE000C00
000FFFFE000400
001C007E000400
0018007E000400
0038007E000000
0030007E000000
0070007E000000
0060007E000000
00E0007E000018
00C0007E000010
01C0007E000030
0180007E000030
0380007E000060
0700007E0000E0
0700007E0001E0
0F80007F0007C0
3FC000FFFFFFC0
FFF80FFFFFFFC0
ENDCHAR
STARTCHAR 00C7
ENCODING 199
SWIDTH 666 0
DWIDTH 40 0
BBX 36 53 2 -12
BITMAP
0000FF8040
0007FFF8C0
001F807FC0
007E001FC0
00F80007C0
01F00003C0
03E00001E0
07C00001E0
0FC00000E0
1F800000E0
1F80000060
3F00000060
3F00000020
3F00000020
7E00000000
7E00000000
7E00000000
FE00000000
FE00000000
FE00000000
FE00000000
FE00000000
FE00000000
FE00000000
FE00000000
FE00000000
7E00000000
7E00000000
7F00000000
7F00000000
3F00000000
3F80000010
1F80000020
1FC0000040
0FE00000C0
07F0000180
03F8000300
01FE000E00
00FFC03C00
007FFFF800
000FFFE000
0001FF0000
0000200000
0000700000
0000780000
0000FC0000
0001FC0000
00003C0000
00003C0000
00003C0000
0000380000
0000700000
0007E00000
ENDCHAR
STARTCHAR 00C8
ENCODING 200
SWIDTH 616 0
DWIDTH 37 0
BBX 34 54 1 0
BITMAP
001FC00000
000FC00000
0007C00000
0003E00000
0001E00000
0000E00000
0000E00000
0000700000
0000300000
0000100000
0000000000
0000000000
0000000000
0000000000
FFFFFFFE00
0FFFFFFE00
07F0001E00
03F0000E00
03F0000600
03F0000600
03F0000200
03F0000200
03F0000200
03F0000000
03F0000000
03F0000000
03F0003000
03F0003000
03F0003000
03F0003000
03F0007000
03F000F000
03FFFFF000
03FFFFF000
03F000F000
03F0007000
03F0003000
03F0003000
03F0003000
03F0003000
03F0000000
03F0000000
03F0000000
03F0000000
03F0000040
03F00000C0
03F0000080
03F0000180
03F0000380
03F0000700
03F0000F00
07F0003F00
0FFFFFFE00
FFFFFFFE00
ENDCHAR
STARTCHAR 00C9
ENCODING 201
SWIDTH 616 0
DWIDTH 37 0
BBX 34 54 1 0
BITMAP
00007F0000
00007E0000
00007C0000
0000F80000
0000F00000
0000E00000
0001C00000
0001C00000
0001800000
0001000000
0000000000
0000000000
0000000000
0000000000
FFFFFFFE00
0FFFFFFE00
07F0001E00
03F0000E00
03F0000600
03F0000600
03F0000200
03F0000200
03F0000200
03F0000000
03F0000000
03F0000000
03F0003000
03F0003000
03F0003000
03F0003000
03F0007000
03F000F000
03FFFFF000
03FFFFF000
03F000F000
03F0007000
03F0003000
03F0003000
03F0003000
03F0003000
03F0000000
03F0000000
03F0000000
03F0000000
03F0000040
03F00000C0
03F0000080
03F0000180
03F0000380
03F0000700
03F0000F00
07F0003F00
0FFFFFFE00
FFFFFFFE00
ENDCHAR
STARTCHAR 00CA
ENCODING 202
SWIDTH 616 0
DWIDTH 37 0
BBX 34 54 1 0
BITMAP
0003F00000
0003F80000
0007FC0000
0007FC0000
000F7E0000
000E1E0000
001C0F0000
0018070000
0030018000
0060008000
0000000000
0000000000
0000000000
0000000000
FFFFFFFE00
0FFFFFFE00
07F0001E00
03F0000E00
03F0000600
03F0000600
03F0000200
03F0000200
03F0000200
03F0000000
03F0000000
03F0000000
03F0003000
03F0003000
03F0003000
03F0003000
03F0007000
03F000F000
03FFFFF000
03FFFFF000
03F000F000
03F0007000
03F0003000
03F0003000
03F0003000
03F0003000
03F0000000
03F0000000
03F0000000
03F0000000
03F0000040
03F00000C0
03F0000080
03F0000180
03F0000380
03F0000700
03F0000F00
07F0003F00
0FFFFFFE00
FFFFFFFE00
ENDCHAR
STARTCHAR 00CB
ENCODING 203
SWIDTH 616 0
DWIDTH 37 0
BBX 34 49 1 0
BITMAP
003C070000
007E0F8000
007E1FC000
007E0FC000
003C070000
0000000000
0000000000
0000000000
0000000000
FFFFFFFE00
0FFFFFFE00
07F0001E00
03F0000E00
03F0000600
03F0000600
03F0000200
03F0000200
03F0000200
03F0000000
03F0000000
03F0000000
03F0003000
03F0003000
03F0003000
03F0003000
03F0007000
03F000F000
03FFFFF000
03FFFFF000
03F000F000
03F0007000
03F0003000
03F0003000
03F0003000
03F0003000
03F0000000
03F0000000
03F0000000
03F0000000
03F0000040
03F00000C0
03F0000080
03F0000180
03F0000380
03F0000700
03F0000F00
07F0003F00
0FFFFFFE00
FFFFFFFE00
ENDCHAR
STARTCHAR 00CC
ENCODING 204
SWIDTH 333 0
DWIDTH 20 0
BBX 18 54 1 0
BITMAP
1F8000
0F8000
07C000
07C000
03C000
01E000
00E000
006000
003000
001000
000000
000000
000000
000000
FFFFC0
0FFC00
07F800
03F000
03F000
03F000
03F000
03F000
03F000
03F000
03F000
03F000
03F000
03F000
03F000
03F000
03F000
03F000
03F000
03F000
03F000
03F000
03F000
03F000
03F000
03F000
03F000
03F000
03F000
03F000
03F000
03F000
03F000
03F000
03F000
03F000
03F000
07F000
0FFC00
FFFFC0
ENDCHAR
STARTCHAR 00CD
ENCODING 205
SWIDTH 333 0
DWIDTH 20 0
BBX 18 54 1 0
BITMAP
007E00
007C00
00F800
00F800
00F000
01E000
01C000
018000
030000
020000
000000
000000
000000
000000
FFFFC0
0FFC00
07F800
03F000
03F000
03F000
03F000
03F000
03F000
03F000
03F000
03F000
03F000
03F000
03F000
03F000
03F000
03F000
03F000
03F000
03F000
03F000
03F000
03F000
03F000
03F000
03F000
03F000
03F000
03F000
03F000
03F000
03F000
03F000
03F000
03F000
03F000
07F000
0FFC00
FFFFC0
ENDCHAR
STARTCHAR 00CE
ENCODING 206
SWIDTH 333 0
DWIDTH 20 0
BBX 18 54 1 0
BITMAP
03F000
07F800
07F800
0FFC00
0F7C00
1E3E00
1C0E00
300700
200300
400080
000000
000000
000000
000000
FFFFC0
0FFC00
07F800
03F000
03F000
03F000
03F000
03F000
03F000
03F000
03F000
03F000
03F000
03F000
03F000
03F000
03F000
03F000
03F000
03F000
03F000
03F000
03F000
03F000
03F000
03F000
03F000
03F000
03F000
03F000
03F000
03F000
03F000
03F000
03F000
03F000
03F000
07F000
0FFC00
FFFFC0
ENDCHAR
STARTCHAR 00CF
ENCODING 207
SWIDTH 333 0
DWIDTH 20 0
BBX 18 49 1 0
BITMAP
3C0F00
7E1F80
7E1F80
7E1F80
3C0F00
000000
000000
000000
000000
FFFFC0
0FFC00
07F800
03F000
03F000
03F000
03F000
03F000
03F000
03F000
03F000
03F000
03F000
03F000
03F000
03F000
03F000
03F000
03F000
03F000
03F000
03F000
03F000
03F000
03F000
03F000
03F000
03F000
03F000
03F000
03F000
03F000
03F000
03F000
03F000
03F000
03F000
07F000
0FFC00
FFFFC0
ENDCHAR
STARTCHAR 00D0
ENCODING 208
SWIDTH 716 0
DWIDTH 43 0
BBX 40 40 1 0
BITMAP
FFFFFF0000
0FFFFFF000
07F807FE00
07E000FF00
03E0003F80
03E0001FE0
03E00007E0
03E00007F0
03E00003F8
03E00001FC
03E00001FC
03E00000FC
03E00000FE
03E000007E
03E000007E
03E000007F
03E000007F
03E000007F
FFFFFE007F
FFFFFE007F
03E000007F
03E000007F
03E000007F
03E000007F
03E000007F
03E000007E
03E00000FE
03E00000FE
03E00000FC
03E00001FC
03E00001F8
03E00003F8
03E00007F0
03E00007E0
03E0001FC0
03E0003F80
07E000FF00
07F803FC00
0FFFFFF000
FFFFFF0000
ENDCHAR
STARTCHAR 00D1
ENCODING 209
SWIDTH 716 0
DWIDTH 43 0
BBX 43 53 -1 -1
BITMAP
000078010000
0001FE010000
0003FF830000
0003FFE30000
00021FFE0000
00060FFE0000
000403FC0000
000400F00000
000000000000
000000000000
000000000000
000000000000
FFE00003FFE0
1FF000007F00
07F800001E00
01FC00001C00
00FC00001C00
00FE00001C00
00FF00001C00
00FF80001C00
00FFC0001C00
00EFC0001C00
00EFE0001C00
00E7F0001C00
00E3F8001C00
00E1F8001C00
00E0FC001C00
00E07E001C00
00E07F001C00
00E03F801C00
00E01F801C00
00E00FC01C00
00E007E01C00
00E007F01C00
00E003F01C00
00E001F81C00
00E000FC1C00
00E0007E1C00
00E0007E1C00
00E0003F1C00
00E0001F9C00
00E0000FDC00
00E00007FC00
00E00007FC00
00E00003FC00
00E00001FC00
00E00000FC00
00E000007C00
00E000007C00
01E000003C00
03F000001C00
3FFF00000C00
000000000400
ENDCHAR
STARTCHAR 00D2
ENCODING 210
SWIDTH 716 0
DWIDTH 43 0
BBX 39 55 2 -1
BITMAP
0007F00000
0003F00000
0001F00000
0000F80000
0000780000
0000380000
00001C0000
00001C0000
00000C0000
0000040000
0000000000
0000000000
0000000000
0001FF0000
000FFFE000
003F01F800
007C007E00
01F0001F00
03E0000F80
07C00007C0
0FC00007E0
0F800003E0
1F800003F0
3F000001F8
3F000001F8
3F000001FC
7F000000FC
7E000000FC
7E000000FC
FE000000FE
FE000000FE
FE000000FE
FE000000FE
FE000000FE
FE000000FE
FE000000FE
FE000000FE
FE000000FE
FE000000FE
7E000000FC
7E000000FC
7F000000FC
3F000001F8
3F000001F8
3F800001F8
1F800003F0
0F800003E0
0FC00007E0
07E00007C0
03E0000F80
01F0001F00
00FC007C00
003F01F800
000FFFE000
0001FF0000
ENDCHAR
STARTCHAR 00D3
ENCODING 211
SWIDTH 716 0
DWIDTH 43 0
BBX 39 55 2 -1
BITMAP
00001FC000
00001F8000
00001F0000
00003E0000
00003C0000
0000380000
0000700000
0000700000
0000600000
0000400000
0000000000
0000000000
0000000000
0001FF0000
000FFFE000
003F01F800
007C007E00
01F0001F00
03E0000F80
07C00007C0
0FC00007E0
0F800003E0
1F800003F0
3F000001F8
3F000001F8
3F000001FC
7F000000FC
7E000000FC
7E000000FC
FE000000FE
FE000000FE
FE000000FE
FE000000FE
FE000000FE
FE000000FE
FE000000FE
FE000000FE
FE000000FE
FE000000FE
7E000000FC
7E000000FC
7F000000FC
3F000001F8
3F000001F8
3F800001F8
1F800003F0
0F800003E0
0FC00007E0
07E00007C0
03E0000F80
01F0001F00
00FC007C00
003F01F800
000FFFE000
0001FF0000
ENDCHAR
STARTCHAR 00D4
ENCODING 212
SWIDTH 716 0
DWIDTH 43 0
BBX 39 55 2 -1
BITMAP
0000FC0000
0000FE0000
0001FF0000
0001FF0000
0003DF8000
0003878000
000703C000
000601C000
000C006000
0008002000
0000000000
0000000000
0000000000
0001FF0000
000FFFE000
003F01F800
007C007E00
01F0001F00
03E0000F80
07C00007C0
0FC00007E0
0F800003E0
1F800003F0
3F000001F8
3F000001F8
3F000001FC
7F000000FC
7E000000FC
7E000000FC
FE000000FE
FE000000FE
FE000000FE
FE000000FE
FE000000FE
FE000000FE
FE000000FE
FE000000FE
FE000000FE
FE000000FE
7E000000FC
7E000000FC
7F000000FC
3F000001F8
3F000001F8
3F800001F8
1F800003F0
0F800003E0
0FC00007E0
07E00007C0
03E0000F80
01F0001F00
00FC007C00
003F01F800
000FFFE000
0001FF0000
ENDCHAR
STARTCHAR 00D5
ENCODING 213
SWIDTH 716 0
DWIDTH 43 0
BBX 39 53 2 -1
BITMAP
0007C00800
000FF00800
001FFC1800
001FFE1000
0010FFF000
00307FF000
00201FE000
0020078000
0000000000
0000000000
0000000000
0001FF0000
000FFFE000
003F01F800
007C007E00
01F0001F00
03E0000F80
07C00007C0
0FC00007E0
0F800003E0
1F800003F0
3F000001F8
3F000001F8
3F000001FC
7F000000FC
7E000000FC
7E000000FC
FE000000FE
FE000000FE
FE000000FE
FE000000FE
FE000000FE
FE000000FE
FE000000FE
FE000000FE
FE000000FE
FE000000FE
7E000000FC
7E000000FC
7F000000FC
3F000001F8
3F000001F8
3F800001F8
1F800003F0
0F800003E0
0FC00007E0
07E00007C0
03E0000F80
01F0001F00
00FC007C00
003F01F800
000FFFE000
0001FF0000
ENDCHAR
STARTCHAR 00D6
ENCODING 214
SWIDTH 716 0
DWIDTH 43 0
BBX 39 50 2 -1
BITMAP
000F01E000
001F83F000
001F87F000
001F83F000
000F01E000
0000000000
0000000000
0000000000
0001FF0000
000FFFE000
003F01F800
007C007E00
01F0001F00
03E0000F80
07C00007C0
0FC00007E0
0F800003E0
1F800003F0
3F000001F8
3F000001F8
3F000001FC
7F000000FC
7E000000FC
7E000000FC
FE000000FE
FE000000FE
FE000000FE
FE000000FE
FE000000FE
FE000000FE
FE000000FE
FE000000FE
FE000000FE
FE000000FE
7E000000FC
7E000000FC
7F000000FC
3F000001F8
3F000001F8
3F800001F8
1F800003F0
0F800003E0
0FC00007E0
07E00007C0
03E0000F80
01F0001F00
00FC007C00
003F01F800
000FFFE000
0001FF0000
ENDCHAR
STARTCHAR 00D7
ENCODING 215
SWIDTH 566 0
DWIDTH 34 0
BBX 24 24 5 8
BITMAP
400002
E00007
70000E
38001C
1C0038
0E0070
0700E0
0381C0
01C380
00E700
007E00
003C00
003C00
007E00
00E700
01C380
0381C0
0700E0
0E0070
1C0038
38001C
70000E
E00007
400002
ENDCHAR
STARTCHAR 00D8
ENCODING 216
SWIDTH 716 0
DWIDTH 43 0
BBX 39 42 2 -1
BITMAP
0001FF0010
000FFFE038
003F01F870
007C007CE0
01F0001FC0
03E0000F80
07E0000FC0
07C00007E0
0F80000FE0
1F80000FF0
1F00001DF8
3F000039F8
3F000071FC
7F0000E1FC
7E0000C0FC
7E0001C0FE
FE000380FE
FE000700FE
FE000E00FE
FE000C00FE
FE001C00FE
FE003800FE
FE007000FE
FE00E000FE
FE00C000FE
7E018000FE
7E038000FC
7E070000FC
7F0E0000FC
3F0C0001F8
3F180001F8
1FB80001F0
1FF00003F0
0FE00003E0
0FC00007C0
07E00007C0
03F0000F80
07F8001E00
0E7C007C00
0C3F01F800
180FFFE000
1000FF0000
ENDCHAR
STARTCHAR 00D9
ENCODING 217
SWIDTH 716 0
DWIDTH 43 0
BBX 43 55 0 -1
BITMAP
00007E000000
00003E000000
00001F000000
00001F000000
00000F000000
000007800000
000003800000
000001800000
000000C00000
000000400000
000000000000
000000000000
000000000000
000000000000
FFFF8007FFE0
0FFC0000FE00
07F800003C00
03F000003800
03F000003800
03F000003800
03F000003800
03F000003800
03F000003800
03F000003800
03F000003800
03F000003800
03F000003800
03F000003800
03F000003800
03F000003800
03F000003800
03F000003800
03F000003800
03F000003800
03F000003800
03F000003800
03F000003800
03F000003800
03F000003800
03F000003800
03F000003800
03F000003800
03F000003800
03F000003800
01F000003000
01F000003000
01F800007000
01F800007000
00F80000E000
007C0001C000
007E0003C000
003F00078000
001FC03E0000
0007FFFC0000
0000FFC00000
ENDCHAR
STARTCHAR 00DA
ENCODING 218
SWIDTH 716 0
DWIDTH 43 0
BBX 43 55 0 -1
BITMAP
000007F00000
000007E00000
000007C00000
00000F800000
00000F000000
00000E000000
00000E000000
00001C000000
000018000000
000010000000
000000000000
000000000000
000000000000
000000000000
FFFF8007FFE0
0FFC0000FE00
07F800003C00
03F000003800
03F000003800
03F000003800
03F000003800
03F000003800
03F000003800
03F000003800
03F000003800
03F000003800
03F000003800
03F000003800
03F000003800
03F000003800
03F000003800
03F000003800
03F000003800
03F000003800
03F000003800
03F000003800
03F000003800
03F000003800
03F000003800
03F000003800
03F000003800
03F000003800
03F000003800
03F000003800
01F000003000
01F000003000
01F800007000
01F800007000
00F80000E000
007C0001C000
007E0003C000
003F00078000
001FC03E0000
0007FFFC0000
0000FFC00000
ENDCHAR
STARTCHAR 00DB
ENCODING 219
SWIDTH 716 0
DWIDTH 43 0
BBX 43 55 0 -1
BITMAP
00000FC00000
00001FC00000
00001FE00000
00003FF00000
00003DF00000
000078F80000
000070380000
0000C01C0000
0000800C0000
000100020000
000000000000
000000000000
000000000000
000000000000
FFFF8007FFE0
0FFC0000FE00
07F800003C00
03F000003800
03F000003800
03F000003800
03F000003800
03F000003800
03F000003800
03F000003800
03F000003800
03F000003800
03F000003800
03F000003800
03F000003800
03F000003800
03F000003800
03F000003800
03F000003800
03F000003800
03F000003800
03F000003800
03F000003800
03F000003800
03F000003800
03F000003800
03F000003800
03F000003800
03F000003800
03F000003800
01F000003000
01F000003000
01F800007000
01F800007000
00F80000E000
007C0001C000
007E0003C000
003F00078000
001FC03E0000
0007FFFC0000
0000FFC00000
ENDCHAR
STARTCHAR 00DC
ENCODING 220
SWIDTH 716 0
DWIDTH 43 0
BBX 43 50 0 -1
BITMAP
0000F03C0000
0001F87E0000
0001F87E0000
0001F87E0000
0000F03C0000
000000000000
000000000000
000000000000
000000000000
FFFF8007FFE0
0FFC0000FE00
07F800003C00
03F000003800
03F000003800
03F000003800
03F000003800
03F000003800
03F000003800
03F000003800
03F000003800
03F000003800
03F000003800
03F000003800
03F000003800
03F000003800
03F000003800
03F000003800
03F000003800
03F000003800
03F000003800
03F000003800
03F000003800
03F000003800
03F000003800
03F000003800
03F000003800
03F000003800
03F000003800
03F000003800
01F000003000
01F000003000
01F800007000
01F800007000
00F80000E000
007C0001C000
007E0003C000
003F00078000
001FC03E0000
0007FFFC0000
0000FFC00000
ENDCHAR
STARTCHAR 00DD
ENCODING 221
SWIDTH 716 0
DWIDTH 43 0
BBX 41 54 1 0
BITMAP
000007F00000
000007E00000
000007C00000
000007800000
00000F000000
00000E000000
00000E000000
00001C000000
000018000000
000010000000
000000000000
000000000000
000000000000
000000000000
FFFF800FFF80
3FF80003FE00
0FF00001F800
07F00000F000
07F00000E000
03F80001C000
01F80001C000
01FC00038000
00FC00030000
007E00070000
007F000E0000
003F000E0000
001F801C0000
000FC0380000
000FC0380000
0007E0700000
0003F0700000
0003F0E00000
0001F9C00000
0000F9C00000
0000FF800000
00007F000000
00003F000000
00003E000000
00003E000000
00003E000000
00003E000000
00003E000000
00003E000000
00003E000000
00003E000000
00003E000000
00003E000000
00003E000000
00003E000000
00007E000000
00007F000000
00007F000000
0000FF800000
000FFFF80000
ENDCHAR
STARTCHAR 00DE
ENCODING 222
SWIDTH 550 0
DWIDTH 33 0
BBX 30 40 1 0
BITMAP
FFFF8000
0FF80000
07F00000
07F00000
03E00000
03E00000
03E00000
03E00000
03E00000
03FFF800
03FFFF00
03E03FC0
03E00FE0
03E007F0
03E003F0
03E003F8
03E001F8
03E001FC
03E001FC
03E001FC
03E001FC
03E001FC
03E001FC
03E001F8
03E003F8
03E003F0
03E007F0
03E01FE0
03E07FC0
03FFFF00
03FFF800
03E00000
03E00000
03E00000
03E00000
03E00000
07F00000
07F00000
0FF80000
FFFF8000
ENDCHAR
STARTCHAR 00DF
ENCODING 223
SWIDTH 500 0
DWIDTH 30 0
BBX 27 42 1 0
BITMAP
001FC000
00FFF000
01F07C00
03E03E00
03C01E00
07801F00
07801F00
0F800F80
0F800F80
0F800F80
0F800F80
0F800F00
0F801F00
0F801F00
0F801E00
0F803C00
0F80F800
0F87F000
0F87FC00
0F80FE00
0F803F00
0F801F80
0F800FC0
0F800FC0
0F8007C0
0F8007E0
0F8007E0
0F8003E0
0F8003E0
0F8003E0
0F8003E0
0F8003E0
0F8003E0
0F8003E0
0F8003C0
0F8003C0
0F800380
0F8F0780
0F8F0700
1F8F1E00
3F8FFC00
FF83F000
ENDCHAR
STARTCHAR 00E0
ENCODING 224
SWIDTH 450 0
DWIDTH 27 0
BBX 25 42 2 -1
BITMAP
03F00000
01F80000
00F80000
00780000
007C0000
003C0000
001C0000
000C0000
00060000
00020000
00000000
00000000
00000000
01FE0000
07FF8000
1F0FC000
3E03E000
3C03F000
7C01F000
7C01F000
7C01F000
7C01F000
3801F000
0003F000
001FF000
007DF000
01E1F000
0781F000
0F01F000
3E01F000
3C01F000
7801F000
F801F000
F801F000
F801F000
FC01F000
FC07F080
FE1DF100
7FF9FF00
7FF1FE00
3FE0FC00
0F807000
ENDCHAR
STARTCHAR 00E1
ENCODING 225
SWIDTH 450 0
DWIDTH 27 0
BBX 25 42 2 -1
BITMAP
001FC000
001F8000
001F0000
003E0000
003C0000
00380000
00700000
00700000
00600000
00C00000
00000000
00000000
00000000
01FE0000
07FF8000
1F0FC000
3E03E000
3C03F000
7C01F000
7C01F000
7C01F000
7C01F000
3801F000
0003F000
001FF000
007DF000
01E1F000
0781F000
0F01F000
3E01F000
3C01F000
7801F000
F801F000
F801F000
F801F000
FC01F000
FC07F080
FE1DF100
7FF9FF00
7FF1FE00
3FE0FC00
0F807000
ENDCHAR
STARTCHAR 00E2
ENCODING 226
SWIDTH 450 0
DWIDTH 27 0
BBX 25 42 2 -1
BITMAP
00FC0000
00FE0000
01FF0000
01FF0000
03DF8000
03878000
0703C000
0601C000
0C006000
18002000
00000000
00000000
00000000
01FE0000
07FF8000
1F0FC000
3E03E000
3C03F000
7C01F000
7C01F000
7C01F000
7C01F000
3801F000
0003F000
001FF000
007DF000
01E1F000
0781F000
0F01F000
3E01F000
3C01F000
7801F000
F801F000
F801F000
F801F000
FC01F000
FC07F080
FE1DF100
7FF9FF00
7FF1FE00
3FE0FC00
0F807000
ENDCHAR
STARTCHAR 00E3
ENCODING 227
SWIDTH 450 0
DWIDTH 27 0
BBX 25 40 2 -1
BITMAP
07C00800
0FF00800
1FFC1800
1FFE3000
31FFF000
307FE000
201FE000
20078000
00000000
00000000
00000000
01FE0000
07FF8000
1F0FC000
3E03E000
3C03F000
7C01F000
7C01F000
7C01F000
7C01F000
3801F000
0003F000
001FF000
007DF000
01E1F000
0781F000
0F01F000
3E01F000
3C01F000
7801F000
F801F000
F801F000
F801F000
FC01F000
FC07F080
FE1DF100
7FF9FF00
7FF1FE00
3FE0FC00
0F807000
ENDCHAR
STARTCHAR 00E4
ENCODING 228
SWIDTH 450 0
DWIDTH 27 0
BBX 25 37 2 -1
BITMAP
0F01C000
1F83E000
1F87F000
1F83F000
0F01C000
00000000
00000000
00000000
01FE0000
07FF8000
1F0FC000
3E03E000
3C03F000
7C01F000
7C01F000
7C01F000
7C01F000
3801F000
0003F000
001FF000
007DF000
01E1F000
0781F000
0F01F000
3E01F000
3C01F000
7801F000
F801F000
F801F000
F801F000
FC01F000
FC07F080
FE1DF100
7FF9FF00
7FF1FE00
3FE0FC00
0F807000
ENDCHAR
STARTCHAR 00E5
ENCODING 229
SWIDTH 450 0
DWIDTH 27 0
BBX 25 44 2 -1
BITMAP
007C0000
00FE0000
01C70000
03838000
03018000
03018000
03018000
03018000
03838000
01C70000
00FE0000
007C0000
00000000
00000000
00000000
01FE0000
07FF8000
1F0FC000
3E03E000
3C03F000
7C01F000
7C01F000
7C01F000
7C01F000
3801F000
0003F000
001FF000
007DF000
01E1F000
0781F000
0F01F000
3E01F000
3C01F000
7801F000
F801F000
F801F000
F801F000
FC01F000
FC07F080
FE1DF100
7FF9FF00
7FF1FE00
3FE0FC00
0F807000
ENDCHAR
STARTCHAR 00E6
ENCODING 230
SWIDTH 666 0
DWIDTH 40 0
BBX 36 29 2 -1
BITMAP
01FE01FC00
07FF87FF00
1F0FCE1F80
3E07F807C0
3C03F803E0
7C03F003E0
7C03F003F0
7C03F003F0
7C03F001F0
3803FFFFF0
0003FFFFF0
0007E00000
001FE00000
00FBE00000
03C3E00000
0783F00000
1E01F00000
3C01F00000
7801F00010
7801F00030
F801F80030
F800FC0060
FC01FE00E0
FC03FF03C0
FF0F7FFFC0
7FFE3FFF80
7FFC1FFF00
3FF00FFE00
0FC003F000
ENDCHAR
STARTCHAR 00E7
ENCODING 231
SWIDTH 450 0
DWIDTH 27 0
BBX 23 40 2 -12
BITMAP
007F00
01FFE0
0783F0
0F01F8
1E00F8
1C00FC
3C00FC
7800FC
780078
780000
F80000
F80000
F80000
F80000
F80000
F80000
F80000
FC0002
FC0004
7E0004
7E000C
7F0018
3F8038
3FE0F0
1FFFF0
0FFFE0
07FFC0
03FF00
00FC00
001800
003800
003E00
007E00
007F00
001F00
000F00
000E00
001E00
003C00
01F000
ENDCHAR
STARTCHAR 00E8
ENCODING 232
SWIDTH 450 0
DWIDTH 27 0
BBX 23 42 2 -1
BITMAP
01F800
00F800
00FC00
007C00
003C00
001E00
000E00
000600
000300
000100
000000
000000
000000
007F00
01FFC0
0787E0
0E01F0
1C00F8
1800FC
3800FC
78007E
70007E
7FFFFE
7FFFFE
F00000
F00000
F00000
F80000
F80000
F80000
F80000
7C0002
7E0006
7E0004
7F000C
3F801C
3FE078
1FFFF0
0FFFF0
07FFE0
03FF80
007E00
ENDCHAR
STARTCHAR 00E9
ENCODING 233
SWIDTH 450 0
DWIDTH 27 0
BBX 23 42 2 -1
BITMAP
000FC0
001F80
001F00
001E00
003C00
003C00
003800
007000
006000
004000
000000
000000
000000
007F00
01FFC0
0787E0
0E01F0
1C00F8
1800FC
3800FC
78007E
70007E
7FFFFE
7FFFFE
F00000
F00000
F00000
F80000
F80000
F80000
F80000
7C0002
7E0006
7E0004
7F000C
3F801C
3FE078
1FFFF0
0FFFF0
07FFE0
03FF80
007E00
ENDCHAR
STARTCHAR 00EA
ENCODING 234
SWIDTH 450 0
DWIDTH 27 0
BBX 23 42 2 -1
BITMAP
003E00
007F00
00FF80
00FF80
01E7C0
01C3C0
0381E0
030060
060030
040010
000000
000000
000000
007F00
01FFC0
0787E0
0E01F0
1C00F8
1800FC
3800FC
78007E
70007E
7FFFFE
7FFFFE
F00000
F00000
F00000
F80000
F80000
F80000
F80000
7C0002
7E0006
7E0004
7F000C
3F801C
3FE078
1FFFF0
0FFFF0
07FFE0
03FF80
007E00
ENDCHAR
STARTCHAR 00EB
ENCODING 235
SWIDTH 450 0
DWIDTH 27 0
BBX 23 37 2 -1
BITMAP
0780F0
0FC1F8
0FE3F8
0FC1F8
0780F0
000000
000000
000000
007F00
01FFC0
0787E0
0E01F0
1C00F8
1800FC
3800FC
78007E
70007E
7FFFFE
7FFFFE
F00000
F00000
F00000
F80000
F80000
F80000
F80000
7C0002
7E0006
7E0004
7F000C
3F801C
3FE078
1FFFF0
0FFFF0
07FFE0
03FF80
007E00
ENDCHAR
STARTCHAR 00EC
ENCODING 236
SWIDTH 283 0
DWIDTH 17 0
BBX 13 41 2 0
BITMAP
7E00
3E00
3F00
1F00
0F00
0700
0380
0180
0080
00C0
0000
0000
0000
0380
0F80
7F80
FF80
0F80
0F80
0F80
0F80
0F80
0F80
0F80
0F80
0F80
0F80
0F80
0F80
0F80
0F80
0F80
0F80
0F80
0F80
0F80
0F80
0F80
0FC0
1FC0
FFF8
ENDCHAR
STARTCHAR 00ED
ENCODING 237
SWIDTH 283 0
DWIDTH 17 0
BBX 13 41 2 0
BITMAP
03F0
03E0
07C0
07C0
0780
0F00
0E00
0C00
1800
1000
0000
0000
0000
0380
0F80
7F80
FF80
0F80
0F80
0F80
0F80
0F80
0F80
0F80
0F80
0F80
0F80
0F80
0F80
0F80
0F80
0F80
0F80
0F80
0F80
0F80
0F80
0F80
0FC0
1FC0
FFF8
ENDCHAR
STARTCHAR 00EE
ENCODING 238
SWIDTH 283 0
DWIDTH 17 0
BBX 16 41 1 0
BITMAP
07E0
0FE0
0FF0
1FF0
3CF8
3878
703C
600C
C006
8003
0000
0000
0000
01C0
07C0
3FC0
7FC0
07C0
07C0
07C0
07C0
07C0
07C0
07C0
07C0
07C0
07C0
07C0
07C0
07C0
07C0
07C0
07C0
07C0
07C0
07C0
07C0
07C0
07E0
0FE0
7FFC
ENDCHAR
STARTCHAR 00EF
ENCODING 239
SWIDTH 283 0
DWIDTH 17 0
BBX 17 36 0 0
BITMAP
780E00
FC1F00
FC3F80
FC1F00
780E00
000000
000000
000000
00E000
03E000
1FE000
3FE000
03E000
03E000
03E000
03E000
03E000
03E000
03E000
03E000
03E000
03E000
03E000
03E000
03E000
03E000
03E000
03E000
03E000
03E000
03E000
03E000
03E000
03F000
07F000
3FFE00
ENDCHAR
STARTCHAR 00F0
ENCODING 240
SWIDTH 500 0
DWIDTH 30 0
BBX 26 43 2 -1
BITMAP
06001800
07803800
01C0F000
00F3C000
007F0000
003E0000
007F0000
01EF8000
0787C000
0E03E000
0803E000
0001F000
0001F800
0000F800
007E7C00
01FFFE00
07C3FE00
0F00FE00
0E007F00
1E003F00
3C003F80
3C001F80
7C001F80
7C001F80
78000FC0
F8000FC0
F8000FC0
F8000FC0
F8000FC0
FC000FC0
FC000FC0
FC000F80
FC000F80
7C000F80
7E000F80
7E000F00
3F000F00
3F001E00
1F801C00
0FC03800
07F0F000
01FFE000
007F0000
ENDCHAR
STARTCHAR 00F1
ENCODING 241
SWIDTH 500 0
DWIDTH 30 0
BBX 29 39 1 0
BITMAP
00F80200
01FE0200
03FF0200
07FFC600
063FFE00
040FFC00
0407F800
0401F000
00000000
00000000
00000000
0381F000
1F87FC00
7F8FFE00
FF9FFE00
1FB83F00
0FE01F00
0FC01F00
0F801F80
0F800F80
0F800F80
0F800F80
0F800F80
0F800F80
0F800F80
0F800F80
0F800F80
0F800F80
0F800F80
0F800F80
0F800F80
0F800F80
0F800F80
0F800F80
0F800F80
0F800F80
1F801F80
1FC03FC0
FFF9FFF8
ENDCHAR
STARTCHAR 00F2
ENCODING 242
SWIDTH 500 0
DWIDTH 30 0
BBX 26 42 2 -1
BITMAP
01FC0000
00FC0000
007C0000
003C0000
001E0000
000E0000
000E0000
00070000
00030000
00010000
00000000
00000000
00000000
003F8000
01FFE000
03C1F800
0F00FC00
0E007E00
1E003E00
3C003F00
3C001F00
7C001F80
7C000F80
7C000FC0
F8000FC0
F8000FC0
F8000FC0
FC000FC0
FC000FC0
FC000FC0
FC000FC0
FC000F80
7C000F80
7E000F80
7E000F00
3F000F00
1F001E00
1F801C00
0FC03800
07F0F000
01FFE000
007F0000
ENDCHAR
STARTCHAR 00F3
ENCODING 243
SWIDTH 500 0
DWIDTH 30 0
BBX 26 42 2 -1
BITMAP
000FE000
000FC000
000F8000
000F0000
001E0000
001C0000
001C0000
00380000
00300000
00200000
00000000
00000000
00000000
003F8000
01FFE000
03C1F800
0F00FC00
0E007E00
1E003E00
3C003F00
3C001F00
7C001F80
7C000F80
7C000FC0
F8000FC0
F8000FC0
F8000FC0
FC000FC0
FC000FC0
FC000FC0
FC000FC0
FC000F80
7C000F80
7E000F80
7E000F00
3F000F00
1F001E00
1F801C00
0FC03800
07F0F000
01FFE000
007F0000
ENDCHAR
STARTCHAR 00F4
ENCODING 244
SWIDTH 500 0
DWIDTH 30 0
BBX 26 42 2 -1
BITMAP
003F0000
003F8000
007F8000
007FC000
00F7E000
00E1E000
01C0F000
03807000
03001800
06000800
00000000
00000000
00000000
003F8000
01FFE000
03C1F800
0F00FC00
0E007E00
1E003E00
3C003F00
3C001F00
7C001F80
7C000F80
7C000FC0
F8000FC0
F8000FC0
F8000FC0
FC000FC0
FC000FC0
FC000FC0
FC000FC0
FC000F80
7C000F80
7E000F80
7E000F00
3F000F00
1F001E00
1F801C00
0FC03800
07F0F000
01FFE000
007F0000
ENDCHAR
STARTCHAR 00F5
ENCODING 245
SWIDTH 500 0
DWIDTH 30 0
BBX 26 40 2 -1
BITMAP
01F00400
03FC0400
07FE0400
0FFF8C00
0C7FFC00
081FF800
080FF000
0803E000
00000000
00000000
00000000
003F8000
01FFE000
03C1F800
0F00FC00
0E007E00
1E003E00
3C003F00
3C001F00
7C001F80
7C000F80
7C000FC0
F8000FC0
F8000FC0
F8000FC0
FC000FC0
FC000FC0
FC000FC0
FC000FC0
FC000F80
7C000F80
7E000F80
7E000F00
3F000F00
1F001E00
1F801C00
0FC03800
07F0F000
01FFE000
007F0000
ENDCHAR
STARTCHAR 00F6
ENCODING 246
SWIDTH 500 0
DWIDTH 30 0
BBX 26 37 2 -1
BITMAP
03C0F000
07E1F800
07E1F800
07E1F800
03C0F000
00000000
00000000
00000000
003F8000
01FFE000
03C1F800
0F00FC00
0E007E00
1E003E00
3C003F00
3C001F00
7C001F80
7C000F80
7C000FC0
F8000FC0
F8000FC0
F8000FC0
FC000FC0
FC000FC0
FC000FC0
FC000FC0
FC000F80
7C000F80
7E000F80
7E000F00
3F000F00
1F001E00
1F801C00
0FC03800
07F0F000
01FFE000
007F0000
ENDCHAR
STARTCHAR 00F7
ENCODING 247
SWIDTH 550 0
DWIDTH 33 0
BBX 31 22 1 9
BITMAP
00038000
0007C000
0007C000
0007C000
00038000
00000000
00000000
00000000
00000000
00000000
FFFFFFFE
FFFFFFFE
00000000
00000000
00000000
00000000
00000000
00038000
0007C000
0007C000
0007C000
00038000
ENDCHAR
STARTCHAR 00F8
ENCODING 248
SWIDTH 500 0
DWIDTH 30 0
BBX 26 31 2 -2
BITMAP
00000040
003F80C0
01FFE1C0
03C1FB80
0700FF00
0E007E00
1E003F00
3C003F00
3C003F80
7C007F80
7C00EF80
7C01CFC0
FC038FC0
FC030FC0
FC060FC0
FC0C07C0
FC1807C0
FC3007C0
FC7007C0
7CE00F80
7FC00F80
7F800F80
3F000F00
3F000F00
1F001E00
1F801C00
3FC03C00
73F0F000
E1FFE000
C07F0000
80000000
ENDCHAR
STARTCHAR 00F9
ENCODING 249
SWIDTH 500 0
DWIDTH 30 0
BBX 30 42 0 -1
BITMAP
007F0000
003F0000
001F0000
000F8000
00078000
00038000
0001C000
0001C000
0000C000
00004000
00000000
00000000
00000000
00000000
FF80FF80
1F801F80
0F800F80
0F800F80
07800780
07800780
07800780
07800780
07800780
07800780
07800780
07800780
07800780
07800780
07800780
07800780
07800780
07800780
07800780
07C00780
07C00F80
07C01F80
07C037C0
07F0E7C0
03FFC7FC
03FF87F8
01FF07C0
007C0600
ENDCHAR
STARTCHAR 00FA
ENCODING 250
SWIDTH 500 0
DWIDTH 30 0
BBX 30 42 0 -1
BITMAP
0003F000
0007E000
0007C000
00078000
00078000
000F0000
000E0000
000C0000
00180000
00100000
00000000
00000000
00000000
00000000
FF80FF80
1F801F80
0F800F80
0F800F80
07800780
07800780
07800780
07800780
07800780
07800780
07800780
07800780
07800780
07800780
07800780
07800780
07800780
07800780
07800780
07C00780
07C00F80
07C01F80
07C037C0
07F0E7C0
03FFC7FC
03FF87F8
01FF07C0
007C0600
ENDCHAR
STARTCHAR 00FB
ENCODING 251
SWIDTH 500 0
DWIDTH 30 0
BBX 30 42 0 -1
BITMAP
000FC000
000FE000
001FE000
003FF000
003DF000
0078F800
00703800
00E01C00
00800E00
01000200
00000000
00000000
00000000
00000000
FF80FF80
1F801F80
0F800F80
0F800F80
07800780
07800780
07800780
07800780
07800780
07800780
07800780
07800780
07800780
07800780
07800780
07800780
07800780
07800780
07800780
07C00780
07C00F80
07C01F80
07C037C0
07F0E7C0
03FFC7FC
03FF87F8
01FF07C0
007C0600
ENDCHAR
STARTCHAR 00FC
ENCODING 252
SWIDTH 500 0
DWIDTH 30 0
BBX 30 37 0 -1
BITMAP
00F03C00
01F87E00
01F87E00
01F87E00
00F03C00
00000000
00000000
00000000
00000000
FF80FF80
1F801F80
0F800F80
0F800F80
07800780
07800780
07800780
07800780
07800780
07800780
07800780
07800780
07800780
07800780
07800780
07800780
07800780
07800780
07800780
07C00780
07C00F80
07C01F80
07C037C0
07F0E7C0
03FFC7FC
03FF87F8
01FF07C0
007C0600
ENDCHAR
STARTCHAR 00FD
ENCODING 253
SWIDTH 500 0
DWIDTH 30 0
BBX 30 54 0 -13
BITMAP
0001F800
0003F000
0003E000
0003C000
0007C000
00078000
00070000
00060000
000C0000
00080000
00000000
00000000
00000000
00000000
FFF807FC
3FC001F0
1FC000E0
0FC000C0
0FC001C0
07C001C0
07E00180
03E00380
03F00300
01F00700
01F00700
00F80600
00F80E00
007C0C00
007C1C00
003E1C00
003E1800
001F3800
001F3000
001FF000
000FF000
000FE000
0007E000
0007C000
0003C000
0003C000
00018000
00038000
00038000
00030000
00070000
00060000
000E0000
000C0000
001C0000
1E380000
3FF80000
3FF00000
3FC00000
1F000000
ENDCHAR
STARTCHAR 00FE
ENCODING 254
SWIDTH 500 0
DWIDTH 30 0
BBX 28 55 0 -13
BITMAP
01800000
0F800000
7F800000
FF800000
0F800000
0F800000
0F800000
0F800000
0F800000
0F800000
0F800000
0F800000
0F800000
0F800000
0F81F800
0F87FE00
0F8FFF00
0F9FFF80
0FB83FC0
0FB01FC0
0FE00FE0
0FC007E0
0F8007E0
0F8003F0
0F8003F0
0F8003F0
0F8003F0
0F8001F0
0F8001F0
0F8001F0
0F8001F0
0F8001F0
0F8001E0
0F8003E0
0F8003E0
0F8003C0
0FC003C0
0FC00780
0FC00F80
0FE00F00
0FF83E00
0F9FF800
0F8FE000
0F800000
0F800000
0F800000
0F800000
0F800000
0F800000
0F800000
0F800000
0F800000
0FC00000
1FE00000
FFFC0000
ENDCHAR
STARTCHAR 00FF
ENCODING 255
SWIDTH 500 0
DWIDTH 30 0
BBX 30 49 0 -13
BITMAP
00781E00
00FC3F00
00FC3F00
00FC3F00
00781E00
00000000
00000000
00000000
00000000
FFF807FC
3FC001F0
1FC000E0
0FC000C0
0FC001C0
07C001C0
07E00180
03E00380
03F00300
01F00700
01F00700
00F80600
00F80E00
007C0C00
007C1C00
003E1C00
003E1800
001F3800
001F3000
001FF000
000FF000
000FE000
0007E000
0007C000
0003C000
0003C000
00018000
00038000
00038000
00030000
00070000
00060000
000E0000
000C0000
001C0000
1E380000
3FF80000
3FF00000
3FC00000
1F000000
ENDCHAR
STARTCHAR 0100
ENCODING 256
SWIDTH 716 0
DWIDTH 43 0
BBX 43 48 0 0
BITMAP
000FFFFE0000
000FFFFE0000
000FFFFE0000
000FFFFE0000
000000000000
000000000000
000000000000
000004000000
00000E000000
00000E000000
00001E000000
00001F000000
00001F000000
00003F800000
00003F800000
00007FC00000
00007FC00000
00007FC00000
0000E7E00000
0000E7E00000
0001C7F00000
0001C3F00000
0003C3F00000
000381F80000
000381F80000
000701FC0000
000700FC0000
000E00FC0000
000E007E0000
001E007E0000
001C003F0000
001C003F0000
0038003F8000
003FFFFF8000
007FFFFF8000
0070000FC000
00E0000FC000
00E00007E000
00E00007E000
01C00003E000
01C00003F000
03800003F000
03800001F800
07800001F800
07000001FC00
0F800001FE00
3FC00003FF00
FFF8001FFFE0
ENDCHAR
STARTCHAR 0101
ENCODING 257
SWIDTH 450 0
DWIDTH 27 0
BBX 25 38 2 -1
BITMAP
3FFFF800
3FFFF800
3FFFF800
3FFFF800
00000000
00000000
00000000
00000000
00000000
01FE0000
07FF8000
1F0FC000
3E03E000
3C03F000
7C01F000
7C01F000
7C01F000
7C01F000
3801F000
0003F000
001FF000
007DF000
01E1F000
0781F000
0F01F000
3E01F000
3C01F000
7801F000
F801F000
F801F000
F801F000
FC01F000
FC07F080
FE1DF100
7FF9FF00
7FF1FE00
3FE0FC00
0F807000
ENDCHAR
STARTCHAR 0102
ENCODING 258
SWIDTH 716 0
DWIDTH 43 0
BBX 43 52 0 0
BITMAP
000400040000
0006000C0000
000300180000
0003C0780000
0001FFF00000
0000FFF00000
00007FC00000
00001F000000
000000000000
000000000000
000000000000
000004000000
00000E000000
00000E000000
00001E000000
00001F000000
00001F000000
00003F800000
00003F800000
00007FC00000
00007FC00000
00007FC00000
0000E7E00000
0000E7E00000
0001C7F00000
0001C3F00000
0003C3F00000
000381F80000
000381F80000
000701FC0000
000700FC0000
000E00FC0000
000E007E0000
001E007E0000
001C003F0000
001C003F0000
0038003F8000
003FFFFF8000
007FFFFF8000
0070000FC000
00E0000FC000
00E00007E000
00E00007E000
01C00003E000
01C00003F000
03800003F000
03800001F800
07800001F800
07000001FC00
0F800001FE00
3FC00003FF00
FFF8001FFFE0
ENDCHAR
STARTCHAR 0103
ENCODING 259
SWIDTH 450 0
DWIDTH 27 0
BBX 25 40 2 -1
BITMAP
10003000
18002000
1C006000
0F01E000
0FFFC000
07FF8000
03FF0000
00FC0000
00000000
00000000
00000000
01FE0000
07FF8000
1F0FC000
3E03E000
3C03F000
7C01F000
7C01F000
7C01F000
7C01F000
3801F000
0003F000
001FF000
007DF000
01E1F000
0781F000
0F01F000
3E01F000
3C01F000
7801F000
F801F000
F801F000
F801F000
FC01F000
FC07F080
FE1DF100
7FF9FF00
7FF1FE00
3FE0FC00
0F807000
ENDCHAR
STARTCHAR 0104
ENCODING 260
SWIDTH 716 0
DWIDTH 43 0
BBX 43 52 0 -11
BITMAP
000004000000
00000E000000
00000E000000
00001E000000
00001F000000
00001F000000
00003F800000
00003F800000
00007FC00000
00007FC00000
00007FC00000
0000E7E00000
0000E7E00000
0001C7F00000
0001C3F00000
0003C3F00000
000381F80000
000381F80000
000701FC0000
000700FC0000
000E00FC0000
000E007E0000
001E007E0000
001C003F0000
001C003F0000
0038003F8000
003FFFFF8000
007FFFFF8000
0070000FC000
00E0000FC000
00E00007E000
00E00007E000
01C00003E000
01C00003F000
03800003F000
03800001F800
07800001F800
07000001FC00
0F800001FE00
3FC00003FF00
FFF8001FFFE0
00000000C000
000000018000
000000018000
000000038000
000000038000
00000003C000
00000003C000
00000003E000
00000001F820
00000000FFE0
000000003F00
ENDCHAR
STARTCHAR 0105
ENCODING 261
SWIDTH 450 0
DWIDTH 27 0
BBX 28 39 2 -11
BITMAP
01FE0000
07FF8000
1F0FC000
3E03E000
3C03F000
7C01F000
7C01F000
7C01F000
7C01F000
3801F000
0003F000
001FF000
007DF000
01E1F000
0781F000
0F01F000
3E01F000
3C01F000
7801F000
F801F000
F801F000
F801F000
FC01F000
FC07F080
FE1DF100
7FF9FF00
7FF1FE00
3FE0FC00
0F807000
0000C000
0001C000
0001C000
0001C000
0001C000
0001E000
0001F000
0000FC10
00007FF0
00003F80
ENDCHAR
STARTCHAR 0106
ENCODING 262
SWIDTH 666 0
DWIDTH 40 0
BBX 36 55 2 -1
BITMAP
00000FC000
00000F8000
00001F0000
00001F0000
00001E0000
00003C0000
0000380000
0000300000
0000600000
0000400000
0000000000
0000000000
0000000000
0000FF8040
0007FFF8C0
001F807FC0
007E001FC0
00F80007C0
01F00003C0
03E00001E0
07C00001E0
0FC00000E0
1F800000E0
1F80000060
3F00000060
3F00000020
3F00000020
7E00000000
7E00000000
7E00000000
FE00000000
FE00000000
FE00000000
FE00000000
FE00000000
FE00000000
FE00000000
FE00000000
FE00000000
7E00000000
7E00000000
7F00000000
7F00000000
3F00000000
3F80000010
1F80000020
1FC0000040
0FE00000C0
07F0000180
03F8000300
01FE000E00
00FFC03C00
007FFFF800
000FFFE000
0001FF0000
ENDCHAR
STARTCHAR 0107
ENCODING 263
SWIDTH 450 0
DWIDTH 27 0
BBX 23 42 2 -1
BITMAP
000FC0
000FC0
000F80
001F00
001E00
001C00
003800
003000
003000
006000
000000
000000
000000
007F00
01FFE0
0783F0
0F01F8
1E00F8
1C00FC
3C00FC
7800FC
780078
780000
F80000
F80000
F80000
F80000
F80000
F80000
F80000
FC0002
FC0004
7E0004
7E000C
7F0018
3F8038
3FE0F0
1FFFF0
0FFFE0
07FFC0
03FF00
00FC00
ENDCHAR
STARTCHAR 0108
ENCODING 264
SWIDTH 666 0
DWIDTH 40 0
BBX 36 55 2 -1
BITMAP
0000FC0000
0001FC0000
0001FE0000
0003FF0000
0003DF0000
00078F8000
0007038000
000C01C000
000800C000
0010002000
0000000000
0000000000
0000000000
0000FF8040
0007FFF8C0
001F807FC0
007E001FC0
00F80007C0
01F00003C0
03E00001E0
07C00001E0
0FC00000E0
1F800000E0
1F80000060
3F00000060
3F00000020
3F00000020
7E00000000
7E00000000
7E00000000
FE00000000
FE00000000
FE00000000
FE00000000
FE00000000
FE00000000
FE00000000
FE00000000
FE00000000
7E00000000
7E00000000
7F00000000
7F00000000
3F00000000
3F80000010
1F80000020
1FC0000040
0FE00000C0
07F0000180
03F8000300
01FE000E00
00FFC03C00
007FFFF800
000FFFE000
0001FF0000
ENDCHAR
STARTCHAR 0109
ENCODING 265
SWIDTH 450 0
DWIDTH 27 0
BBX 23 42 2 -1
BITMAP
00FC00
00FE00
01FE00
01FF00
03DF80
038780
0703C0
0E01C0
0C0060
180020
000000
000000
000000
007F00
01FFE0
0783F0
0F01F8
1E00F8
1C00FC
3C00FC
7800FC
780078
780000
F80000
F80000
F80000
F80000
F80000
F80000
F80000
FC0002
FC0004
7E0004
7E000C
7F0018
3F8038
3FE0F0
1FFFF0
0FFFE0
07FFC0
03FF00
00FC00
ENDCHAR
STARTCHAR 010A
ENCODING 266
SWIDTH 666 0
DWIDTH 40 0
BBX 36 50 2 -1
BITMAP
0000780000
0000FC0000
0000FC0000
0000FC0000
0000780000
0000000000
0000000000
0000000000
0000FF8040
0007FFF8C0
001F807FC0
007E001FC0
00F80007C0
01F00003C0
03E00001E0
07C00001E0
0FC00000E0
1F800000E0
1F80000060
3F00000060
3F00000020
3F00000020
7E00000000
7E00000000
7E00000000
FE00000000
FE00000000
FE00000000
FE00000000
FE00000000
FE00000000
FE00000000
FE00000000
FE00000000
7E00000000
7E00000000
7F00000000
7F00000000
3F00000000
3F80000010
1F80000020
1FC0000040
0FE00000C0
07F0000180
03F8000300
01FE000E00
00FFC03C00
007FFFF800
000FFFE000
0001FF0000
ENDCHAR
STARTCHAR 010B
ENCODING 267
SWIDTH 450 0
DWIDTH 27 0
BBX 23 39 2 -1
BITMAP
007800
00FC00
00FE00
00FC00
007800
000000
000000
000000
000000
000000
007F00
01FFE0
0783F0
0F01F8
1E00F8
1C00FC
3C00FC
7800FC
780078
780000
F80000
F80000
F80000
F80000
F80000
F80000
F80000
FC0002
FC0004
7E0004
7E000C
7F0018
3F8038
3FE0F0
1FFFF0
0FFFE0
07FFC0
03FF00
00FC00
ENDCHAR
STARTCHAR 010C
ENCODING 268
SWIDTH 666 0
DWIDTH 40 0
BBX 36 55 2 -1
BITMAP
000C001000
0006003000
0007006000
0003C0E000
0003E1C000
0001F78000
0000FF8000
0000FF0000
00007F0000
00007E0000
0000000000
0000000000
0000000000
0000FF8040
0007FFF8C0
001F807FC0
007E001FC0
00F80007C0
01F00003C0
03E00001E0
07C00001E0
0FC00000E0
1F800000E0
1F80000060
3F00000060
3F00000020
3F00000020
7E00000000
7E00000000
7E00000000
FE00000000
FE00000000
FE00000000
FE00000000
FE00000000
FE00000000
FE00000000
FE00000000
FE00000000
7E00000000
7E00000000
7F00000000
7F00000000
3F00000000
3F80000010
1F80000020
1FC0000040
0FE00000C0
07F0000180
03F8000300
01FE000E00
00FFC03C00
007FFFF800
000FFFE000
0001FF0000
ENDCHAR
STARTCHAR 010D
ENCODING 269
SWIDTH 450 0
DWIDTH 27 0
BBX 23 42 2 -1
BITMAP
0C0010
060030
030060
03C0E0
01E1C0
01F3C0
00FF80
00FF80
007F00
007E00
000000
000000
000000
007F00
01FFE0
0783F0
0F01F8
1E00F8
1C00FC
3C00FC
7800FC
780078
780000
F80000
F80000
F80000
F80000
F80000
F80000
F80000
FC0002
FC0004
7E0004
7E000C
7F0018
3F8038
3FE0F0
1FFFF0
0FFFE0
07FFC0
03FF00
00FC00
ENDCHAR
STARTCHAR 010E
ENCODING 270
SWIDTH 716 0
DWIDTH 43 0
BBX 40 54 1 0
BITMAP
0010002000
000C004000
000E00C000
0007038000
0007C78000
0003EF0000
0003FF0000
0001FE0000
0001FE0000
0000FC0000
0000000000
0000000000
0000000000
0000000000
FFFFFF0000
0FFFFFF000
07F807FE00
07E000FF00
03E0003FC0
03E0001FE0
03E00007F0
03E00007F0
03E00003F8
03E00001FC
03E00001FC
03E00000FE
03E00000FE
03E000007E
03E000007E
03E000007F
03E000007F
03E000007F
03E000007F
03E000007F
03E000007F
03E000007F
03E000007F
03E000007F
03E000007F
03E000007E
03E00000FE
03E00000FE
03E00000FC
03E00001FC
03E00001F8
03E00003F8
03E00007F0
03E00007E0
03E0001FC0
03E0003F80
07E000FF00
07F803FC00
0FFFFFF000
FFFFFF0000
ENDCHAR
STARTCHAR 010F
ENCODING 271
SWIDTH 650 0
DWIDTH 39 0
BBX 36 43 2 -1
BITMAP
0000070780
00003F0FE0
0000FF1FE0
0001FF0FF0
00003F07F0
00001F0070
00001F0030
00001F0070
00001F0070
00001F0060
00001F00C0
00001F0180
00001F0700
00001F0400
003F1F0000
01FFDF0000
03C1FF0000
0780FF0000
0F007F0000
1E003F0000
1E003F0000
3C001F0000
7C001F0000
7C001F0000
7C001F0000
F8001F0000
F8001F0000
F8001F0000
F8001F0000
F8001F0000
FC001F0000
FC001F0000
FC001F0000
FC001F0000
7E001F0000
7F001F0000
7F001F0000
3FC03F0000
1FE0FF0000
1FFFDFF000
0FFF9FE000
03FF1F0000
00FC1C0000
ENDCHAR
STARTCHAR 0110
ENCODING 272
SWIDTH 716 0
DWIDTH 43 0
BBX 40 40 1 0
BITMAP
FFFFFF0000
0FFFFFF000
07F807FE00
07E000FF00
03E0003F80
03E0001FE0
03E00007E0
03E00007F0
03E00003F8
03E00001FC
03E00001FC
03E00000FC
03E00000FE
03E000007E
03E000007E
03E000007F
03E000007F
03E000007F
FFFFFE007F
FFFFFE007F
03E000007F
03E000007F
03E000007F
03E000007F
03E000007F
03E000007E
03E00000FE
03E00000FE
03E00000FC
03E00001FC
03E00001F8
03E00003F8
03E00007F0
03E00007E0
03E0001FC0
03E0003F80
07E000FF00
07F803FC00
0FFFFFF000
FFFFFF0000
ENDCHAR
STARTCHAR 0111
ENCODING 273
SWIDTH 500 0
DWIDTH 30 0
BBX 28 43 1 -1
BITMAP
00000700
00003F00
0000FF00
0001FF00
00003F00
00001F00
00001F00
00001F00
003FFFF0
003FFFF0
00001F00
00001F00
00001F00
00001F00
003F1F00
01FFDF00
03C1FF00
0780FF00
0F007F00
1E003F00
1E003F00
3C001F00
3C001F00
7C001F00
7C001F00
7C001F00
F8001F00
F8001F00
FC001F00
FC001F00
FC001F00
FC001F00
FC001F00
FE001F00
7E001F00
7F001F00
3F801F00
3FC03F00
1FE0FF00
0FFFDFF0
07FF9FE0
03FF1F00
00FC1C00
ENDCHAR
STARTCHAR 0112
ENCODING 274
SWIDTH 616 0
DWIDTH 37 0
BBX 34 48 1 0
BITMAP
00FFFFE000
00FFFFE000
00FFFFE000
00FFFFE000
0000000000
0000000000
0000000000
0000000000
FFFFFFFE00
0FFFFFFE00
07F0001E00
03F0000E00
03F0000600
03F0000600
03F0000200
03F0000200
03F0000200
03F0000000
03F0000000
03F0000000
03F0003000
03F0003000
03F0003000
03F0003000
03F0007000
03F000F000
03FFFFF000
03FFFFF000
03F000F000
03F0007000
03F0003000
03F0003000
03F0003000
03F0003000
03F0000000
03F0000000
03F0000000
03F0000000
03F0000040
03F00000C0
03F0000080
03F0000180
03F0000380
03F0000700
03F0000F00
07F0003F00
0FFFFFFE00
FFFFFFFE00
ENDCHAR
STARTCHAR 0113
ENCODING 275
SWIDTH 450 0
DWIDTH 27 0
BBX 23 38 2 -1
BITMAP
3FFFF8
3FFFF8
3FFFF8
3FFFF8
000000
000000
000000
000000
000000
007F00
01FFC0
0787E0
0E01F0
1C00F8
1800FC
3800FC
78007E
70007E
7FFFFE
7FFFFE
F00000
F00000
F00000
F80000
F80000
F80000
F80000
7C0002
7E0006
7E0004
7F000C
3F801C
3FE078
1FFFF0
0FFFF0
07FFE0
03FF80
007E00
ENDCHAR
STARTCHAR 0114
ENCODING 276
SWIDTH 616 0
DWIDTH 37 0
BBX 34 52 1 0
BITMAP
0040004000
0060008000
0070018000
003C078000
003FFF0000
001FFE0000
0007FC0000
0003F00000
0000000000
0000000000
0000000000
0000000000
FFFFFFFE00
0FFFFFFE00
07F0001E00
03F0000E00
03F0000600
03F0000600
03F0000200
03F0000200
03F0000200
03F0000000
03F0000000
03F0000000
03F0003000
03F0003000
03F0003000
03F0003000
03F0007000
03F000F000
03FFFFF000
03FFFFF000
03F000F000
03F0007000
03F0003000
03F0003000
03F0003000
03F0003000
03F0000000
03F0000000
03F0000000
03F0000000
03F0000040
03F00000C0
03F0000080
03F0000180
03F0000380
03F0000700
03F0000F00
07F0003F00
0FFFFFFE00
FFFFFFFE00
ENDCHAR
STARTCHAR 0115
ENCODING 277
SWIDTH 450 0
DWIDTH 27 0
BBX 23 40 2 -1
BITMAP
100010
180030
0C0060
0F01E0
07FFC0
03FFC0
01FF00
007C00
000000
000000
000000
007F00
01FFC0
0787E0
0E01F0
1C00F8
1800FC
3800FC
78007E
70007E
7FFFFE
7FFFFE
F00000
F00000
F00000
F80000
F80000
F80000
F80000
7C0002
7E0006
7E0004
7F000C
3F801C
3FE078
1FFFF0
0FFFF0
07FFE0
03FF80
007E00
ENDCHAR
STARTCHAR 0116
ENCODING 278
SWIDTH 616 0
DWIDTH 37 0
BBX 34 49 1 0
BITMAP
0001E00000
0003F00000
0003F80000
0003F00000
0001E00000
0000000000
0000000000
0000000000
0000000000
FFFFFFFE00
0FFFFFFE00
07F0001E00
03F0000E00
03F0000600
03F0000600
03F0000200
03F0000200
03F0000200
03F0000000
03F0000000
03F0000000
03F0003000
03F0003000
03F0003000
03F0003000
03F0007000
03F000F000
03FFFFF000
03FFFFF000
03F000F000
03F0007000
03F0003000
03F0003000
03F0003000
03F0003000
03F0000000
03F0000000
03F0000000
03F0000000
03F0000040
03F00000C0
03F0000080
03F0000180
03F0000380
03F0000700
03F0000F00
07F0003F00
0FFFFFFE00
FFFFFFFE00
ENDCHAR
STARTCHAR 0117
ENCODING 279
SWIDTH 450 0
DWIDTH 27 0
BBX 23 39 2 -1
BITMAP
007800
00FC00
00FE00
00FC00
007800
000000
000000
000000
000000
000000
007F00
01FFC0
0787E0
0E01F0
1C00F8
1800FC
3800FC
78007E
70007E
7FFFFE
7FFFFE
F00000
F00000
F00000
F80000
F80000
F80000
F80000
7C0002
7E0006
7E0004
7F000C
3F801C
3FE078
1FFFF0
0FFFF0
07FFE0
03FF80
007E00
ENDCHAR
STARTCHAR 0118
ENCODING 280
SWIDTH 616 0
DWIDTH 37 0
BBX 34 51 1 -11
BITMAP
FFFFFFFE00
0FFFFFFE00
07F0001E00
03F0000E00
03F0000600
03F0000600
03F0000200
03F0000200
03F0000200
03F0000000
03F0000000
03F0000000
03F0003000
03F0003000
03F0003000
03F0003000
03F0007000
03F000F000
03FFFFF000
03FFFFF000
03F000F000
03F0007000
03F0003000
03F0003000
03F0003000
03F0003000
03F0000000
03F0000000
03F0000000
03F0000000
03F0000040
03F00000C0
03F0000080
03F0000180
03F0000380
03F0000700
03F0000F00
07F0003F00
0FFFFFFE00
FFFFFFFE00
0000030000
0000030000
0000070000
0000070000
0000070000
00000F0000
0000078000
000007C000
000007E000
000003FF80
000000FE00
ENDCHAR
STARTCHAR 0119
ENCODING 281
SWIDTH 450 0
DWIDTH 27 0
BBX 25 39 2 -11
BITMAP
007F0000
01FFC000
0787E000
0E01F000
1C00F800
1800FC00
3800FC00
78007E00
70007E00
7FFFFE00
7FFFFE00
F0000000
F0000000
F0000000
F8000000
F8000000
F8000000
F8000000
7C000200
7E000600
7E000400
7F000C00
3F801C00
3FE07800
1FFFF000
0FFFF000
07FFE000
03FF8000
007F0000
00070000
00060000
00060000
000F0000
000F0000
000F0000
00078000
0007E000
0003FF80
0000FC00
ENDCHAR
STARTCHAR 011A
ENCODING 282
SWIDTH 616 0
DWIDTH 37 0
BBX 34 54 1 0
BITMAP
0060008000
0030018000
0038030000
001E070000
001F0E0000
000FBC0000
0007FC0000
0007F80000
0003F80000
0003F00000
0000000000
0000000000
0000000000
0000000000
FFFFFFFE00
0FFFFFFE00
07F0001E00
03F0000E00
03F0000600
03F0000600
03F0000200
03F0000200
03F0000200
03F0000000
03F0000000
03F0000000
03F0003000
03F0003000
03F0003000
03F0003000
03F0007000
03F000F000
03FFFFF000
03FFFFF000
03F000F000
03F0007000
03F0003000
03F0003000
03F0003000
03F0003000
03F0000000
03F0000000
03F0000000
03F0000000
03F0000040
03F00000C0
03F0000080
03F0000180
03F0000380
03F0000700
03F0000F00
07F0003F00
0FFFFFFE00
FFFFFFFE00
ENDCHAR
STARTCHAR 011B
ENCODING 283
SWIDTH 450 0
DWIDTH 27 0
BBX 23 42 2 -1
BITMAP
0C0010
060030
070060
03C0E0
01E1C0
01F380
00FF80
00FF00
007F00
007E00
000000
000000
000000
007F00
01FFC0
0787E0
0E01F0
1C00F8
1800FC
3800FC
78007E
70007E
7FFFFE
7FFFFE
F00000
F00000
F00000
F80000
F80000
F80000
F80000
7C0002
7E0006
7E0004
7F000C
3F801C
3FE078
1FFFF0
0FFFF0
07FFE0
03FF80
007E00
ENDCHAR
STARTCHAR 011C
ENCODING 284
SWIDTH 716 0
DWIDTH 43 0
BBX 40 55 2 -1
BITMAP
00003F0000
00007F0000
0000FF8000
0000FF8000
0001E7C000
0001C3C000
000381E000
0003006000
0006003000
0004001800
0000000000
0000000000
0000000000
0000FFC020
0007FFFC60
001FC03FE0
007E000FE0
00F80003E0
01F00001E0
03E00000E0
07E00000E0
0FC0000070
0F80000070
1F80000030
1F00000030
3F00000010
3F00000000
7E00000000
7E00000000
7E00000000
FE00000000
FE00000000
FE00007FFF
FE00000FFC
FE000003F8
FE000003F0
FE000003F0
FE000003F0
FE000003F0
7F000003F0
7F000003F0
7F000003F0
3F000003F0
3F800003F0
1F800003F0
1FC00003F0
0FC00003F0
07E00003F0
07F00003F0
03F80003F0
01FC0003F0
007F0007F0
001FE03FC0
0007FFFE00
0000FFF000
ENDCHAR
STARTCHAR 011D
ENCODING 285
SWIDTH 500 0
DWIDTH 30 0
BBX 27 54 2 -13
BITMAP
003F0000
007F8000
007F8000
00FFC000
00F7C000
01E3E000
01C0E000
03007000
02003000
04000800
00000000
00000000
00000000
007F0000
01C3E000
0780FFE0
0F00FFE0
0F007C00
1E007C00
1E003E00
3E003E00
3E003E00
3E003E00
3E003E00
3E003E00
3E003E00
1F003C00
1F007C00
0F807800
0780F000
03E1E000
01FF0000
03000000
06000000
0C000000
1C000000
1E000000
3FFFFC00
1FFFFF00
1FFFFF80
07FFFFC0
0C0003C0
180000E0
180000E0
300000C0
700000C0
F00000C0
F8000180
FC000700
FF801F00
7FFFFC00
3FFFF800
0FFFE000
01FF0000
ENDCHAR
STARTCHAR 011E
ENCODING 286
SWIDTH 716 0
DWIDTH 43 0
BBX 40 53 2 -1
BITMAP
0006000400
0002000C00
0003001C00
0003C07800
0001FFF800
0000FFF000
00007FE000
00001F8000
0000000000
0000000000
0000000000
0000FFC020
0007FFFC60
001FC03FE0
007E000FE0
00F80003E0
01F00001E0
03E00000E0
07E00000E0
0FC0000070
0F80000070
1F80000030
1F00000030
3F00000010
3F00000000
7E00000000
7E00000000
7E00000000
FE00000000
FE00000000
FE00007FFF
FE00000FFC
FE000003F8
FE000003F0
FE000003F0
FE000003F0
FE000003F0
7F000003F0
7F000003F0
7F000003F0
3F000003F0
3F800003F0
1F800003F0
1FC00003F0
0FC00003F0
07E00003F0
07F00003F0
03F80003F0
01FC0003F0
007F0007F0
001FE03FC0
0007FFFE00
0000FFF000
ENDCHAR
STARTCHAR 011F
ENCODING 287
SWIDTH 500 0
DWIDTH 30 0
BBX 27 52 2 -13
BITMAP
04000400
06000C00
07001800
03C07800
01FFF000
01FFE000
007FC000
003F0000
00000000
00000000
00000000
007F0000
01C3E000
0780FFE0
0F00FFE0
0F007C00
1E007C00
1E003E00
3E003E00
3E003E00
3E003E00
3E003E00
3E003E00
3E003E00
1F003C00
1F007C00
0F807800
0780F000
03E1E000
01FF0000
03000000
06000000
0C000000
1C000000
1E000000
3FFFFC00
1FFFFF00
1FFFFF80
07FFFFC0
0C0003C0
180000E0
180000E0
300000C0
700000C0
F00000C0
F8000180
FC000700
FF801F00
7FFFFC00
3FFFF800
0FFFE000
01FF0000
ENDCHAR
STARTCHAR 0120
ENCODING 288
SWIDTH 716 0
DWIDTH 43 0
BBX 40 50 2 -1
BITMAP
00003C0000
00007E0000
00007E0000
00007E0000
00003C0000
0000000000
0000000000
0000000000
0000FFC020
0007FFFC60
001FC03FE0
007E000FE0
00F80003E0
01F00001E0
03E00000E0
07E00000E0
0FC0000070
0F80000070
1F80000030
1F00000030
3F00000010
3F00000000
7E00000000
7E00000000
7E00000000
FE00000000
FE00000000
FE00007FFF
FE00000FFC
FE000003F8
FE000003F0
FE000003F0
FE000003F0
FE000003F0
7F000003F0
7F000003F0
7F000003F0
3F000003F0
3F800003F0
1F800003F0
1FC00003F0
0FC00003F0
07E00003F0
07F00003F0
03F80003F0
01FC0003F0
007F0007F0
001FE03FC0
0007FFFE00
0000FFF000
ENDCHAR
STARTCHAR 0121
ENCODING 289
SWIDTH 500 0
DWIDTH 30 0
BBX 27 51 2 -13
BITMAP
001E0000
003F0000
003F0000
003F0000
001E0000
00000000
00000000
00000000
00000000
00000000
007F0000
01C3E000
0780FFE0
0F00FFE0
0F007C00
1E007C00
1E003E00
3E003E00
3E003E00
3E003E00
3E003E00
3E003E00
3E003E00
1F003C00
1F007C00
0F807800
0780F000
03E1E000
01FF0000
03000000
06000000
0C000000
1C000000
1E000000
3FFFFC00
1FFFFF00
1FFFFF80
07FFFFC0
0C0003C0
180000E0
180000E0
300000C0
700000C0
F00000C0
F8000180
FC000700
FF801F00
7FFFFC00
3FFFF800
0FFFE000
01FF0000
ENDCHAR
STARTCHAR 0122
ENCODING 290
SWIDTH 716 0
DWIDTH 43 0
BBX 40 53 2 -12
BITMAP
0000FFC020
0007FFFC60
001FC03FE0
007E000FE0
00F80003E0
01F00001E0
03E00000E0
07E00000E0
0FC0000070
0F80000070
1F80000030
1F00000030
3F00000010
3F00000000
7E00000000
7E00000000
7E00000000
FE00000000
FE00000000
FE00007FFF
FE00000FFC
FE000003F8
FE000003F0
FE000003F0
FE000003F0
FE000003F0
7F000003F0
7F000003F0
7F000003F0
3F000003F0
3F800003F0
1F800003F0
1FC00003F0
0FC00003F0
07E00003F0
07F00003F0
03F80003F0
01FC0003F0
007F0007F0
001FE03FC0
0007FFFE00
0000FFF000
0000180000
00001C0000
00003E0000
00003F0000
00007F0000
00001F0000
00000F0000
00000F0000
00000E0000
00001C0000
0001F80000
ENDCHAR
STARTCHAR 0123
ENCODING 291
SWIDTH 500 0
DWIDTH 30 0
BBX 27 56 2 -13
BITMAP
00070000
001C0000
00300000
00300000
00600000
00670000
007F0000
003F0000
003F0000
001E0000
00000000
00000000
00000000
00000000
00000000
007F0000
01C3E000
0780FFE0
0F00FFE0
0F007C00
1E007C00
1E003E00
3E003E00
3E003E00
3E003E00
3E003E00
3E003E00
3E003E00
1F003C00
1F007C00
0F807800
0780F000
03E1E000
01FF0000
03000000
06000000
0C000000
1C000000
1E000000
3FFFFC00
1FFFFF00
1FFFFF80
07FFFFC0
0C0003C0
180000E0
180000E0
300000C0
700000C0
F00000C0
F8000180
FC000700
FF801F00
7FFFFC00
3FFFF800
0FFFE000
01FF0000
ENDCHAR
STARTCHAR 0124
ENCODING 292
SWIDTH 716 0
DWIDTH 43 0
BBX 41 54 1 0
BITMAP
00003F000000
00007F000000
00007F800000
0000FF800000
0001E7C00000
0001C3C00000
000381E00000
000300700000
000600300000
000400180000
000000000000
000000000000
000000000000
000000000000
FFFF80FFFF80
0FF8000FF800
07F00007F000
07F00003F000
03E00003F000
03E00003E000
03E00003E000
03E00003E000
03E00003E000
03E00003E000
03E00003E000
03E00003E000
03E00003E000
03E00003E000
03E00003E000
03E00003E000
03E00003E000
03E00003E000
03E00003E000
03FFFFFFE000
03FFFFFFE000
03E00003E000
03E00003E000
03E00003E000
03E00003E000
03E00003E000
03E00003E000
03E00003E000
03E00003E000
03E00003E000
03E00003E000
03E00003E000
03E00003E000
03E00003E000
03E00003E000
03E00003F000
07F00007F000
07F00007F000
0FF8000FF800
FFFF80FFFF80
ENDCHAR
STARTCHAR 0125
ENCODING 293
SWIDTH 500 0
DWIDTH 30 0
BBX 29 54 1 0
BITMAP
001F8000
003FC000
003FC000
007FE000
007BE000
00F1F000
00E07000
01803800
01001800
02000400
00000000
00000000
03800000
1F800000
7F800000
FF800000
1F800000
0F800000
0F800000
0F800000
0F800000
0F800000
0F800000
0F800000
0F800000
0F800000
0F81F000
0F87FC00
0F8FFE00
0F9FFE00
0FB83F00
0FE01F00
0FC01F00
0F801F00
0F800F80
0F800F80
0F800F80
0F800F80
0F800F80
0F800F80
0F800F80
0F800F80
0F800F80
0F800F80
0F800F80
0F800F80
0F800F80
0F800F80
0F800F80
0F800F80
0F800F80
1F801F80
3FC03FC0
FFF9FFF8
ENDCHAR
STARTCHAR 0126
ENCODING 294
SWIDTH 716 0
DWIDTH 43 0
BBX 41 40 1 0
BITMAP
FFFF80FFFF80
0FF8000FFC00
07F00007F000
07F00003F000
03E00003F000
03E00003E000
FFFFFFFFFF80
FFFFFFFFFF80
03E00003E000
03E00003E000
03E00003E000
03E00003E000
03E00003E000
03E00003E000
03E00003E000
03E00003E000
03E00003E000
03E00003E000
03E00003E000
03FFFFFFE000
03FFFFFFE000
03E00003E000
03E00003E000
03E00003E000
03E00003E000
03E00003E000
03E00003E000
03E00003E000
03E00003E000
03E00003E000
03E00003E000
03E00003E000
03E00003E000
03E00003E000
03E00003E000
03E00003F000
07F00003F000
07F00007F000
0FF8000FF800
FFFF80FFFF80
ENDCHAR
STARTCHAR 0127
ENCODING 295
SWIDTH 500 0
DWIDTH 30 0
BBX 30 42 0 0
BITMAP
01C00000
0FC00000
3FC00000
7FC00000
0FC00000
07C00000
07C00000
07C00000
FFFFC000
FFFFC000
07C00000
07C00000
07C00000
07C00000
07C0F800
07C3FE00
07C7FF00
07CFFF00
07DC1F80
07F00F80
07E00F80
07C00F80
07C007C0
07C007C0
07C007C0
07C007C0
07C007C0
07C007C0
07C007C0
07C007C0
07C007C0
07C007C0
07C007C0
07C007C0
07C007C0
07C007C0
07C007C0
07C007C0
07C007C0
0FC00FC0
0FE00FE0
7FFCFFFC
ENDCHAR
STARTCHAR 0128
ENCODING 296
SWIDTH 333 0
DWIDTH 20 0
BBX 18 52 1 0
BITMAP
1F0040
3FC040
7FE040
FFF8C0
C7FFC0
81FF80
80FF00
803E00
000000
000000
000000
000000
FFFFC0
0FFC00
07F800
03F000
03F000
03F000
03F000
03F000
03F000
03F000
03F000
03F000
03F000
03F000
03F000
03F000
03F000
03F000
03F000
03F000
03F000
03F000
03F000
03F000
03F000
03F000
03F000
03F000
03F000
03F000
03F000
03F000
03F000
03F000
03F000
03F000
03F000
07F000
0FFC00
FFFFC0
ENDCHAR
STARTCHAR 0129
ENCODING 297
SWIDTH 283 0
DWIDTH 17 0
BBX 19 40 -1 0
BITMAP
1F0020
3FC060
7FF060
7FF8C0
C7FFC0
C1FF80
807F80
801E00
000000
000000
000000
000000
003000
01F000
0FF000
1FF000
01F000
01F000
01F000
01F000
01F000
01F000
01F000
01F000
01F000
01F000
01F000
01F000
01F000
01F000
01F000
01F000
01F000
01F000
01F000
01F000
01F000
01F800
03F800
1FFF00
ENDCHAR
STARTCHAR 012A
ENCODING 298
SWIDTH 333 0
DWIDTH 20 0
BBX 18 48 1 0
BITMAP
FFFFC0
FFFFC0
FFFFC0
FFFFC0
000000
000000
000000
000000
FFFFC0
0FFC00
07F800
03F000
03F000
03F000
03F000
03F000
03F000
03F000
03F000
03F000
03F000
03F000
03F000
03F000
03F000
03F000
03F000
03F000
03F000
03F000
03F000
03F000
03F000
03F000
03F000
03F000
03F000
03F000
03F000
03F000
03F000
03F000
03F000
03F000
03F000
07F000
0FFC00
FFFFC0
ENDCHAR
STARTCHAR 012B
ENCODING 299
SWIDTH 283 0
DWIDTH 17 0
BBX 18 37 -1 0
BITMAP
FFFFC0
FFFFC0
FFFFC0
FFFFC0
000000
000000
000000
000000
000000
003000
01F000
0FF000
1FF000
01F000
01F000
01F000
01F000
01F000
01F000
01F000
01F000
01F000
01F000
01F000
01F000
01F000
01F000
01F000
01F000
01F000
01F000
01F000
01F000
01F000
01F800
03F800
1FFF00
ENDCHAR
STARTCHAR 012C
ENCODING 300
SWIDTH 333 0
DWIDTH 20 0
BBX 18 52 1 0
BITMAP
400080
400080
600180
3C0F00
3FFF00
1FFE00
0FFC00
03F000
000000
000000
000000
000000
FFFFC0
0FFC00
07F800
03F000
03F000
03F000
03F000
03F000
03F000
03F000
03F000
03F000
03F000
03F000
03F000
03F000
03F000
03F000
03F000
03F000
03F000
03F000
03F000
03F000
03F000
03F000
03F000
03F000
03F000
03F000
03F000
03F000
03F000
03F000
03F000
03F000
03F000
07F000
0FFC00
FFFFC0
ENDCHAR
STARTCHAR 012D
ENCODING 301
SWIDTH 283 0
DWIDTH 17 0
BBX 17 40 0 0
BITMAP
800080
C00100
E00300
780F00
7FFE00
3FFC00
0FF800
07E000
000000
000000
000000
000000
006000
03E000
1FE000
3FE000
03E000
03E000
03E000
03E000
03E000
03E000
03E000
03E000
03E000
03E000
03E000
03E000
03E000
03E000
03E000
03E000
03E000
03E000
03E000
03E000
03E000
03F000
07F000
3FFE00
ENDCHAR
STARTCHAR 012E
ENCODING 302
SWIDTH 333 0
DWIDTH 20 0
BBX 18 51 1 -11
BITMAP
FFFFC0
0FFC00
07F800
03F000
03F000
03F000
03F000
03F000
03F000
03F000
03F000
03F000
03F000
03F000
03F000
03F000
03F000
03F000
03F000
03F000
03F000
03F000
03F000
03F000
03F000
03F000
03F000
03F000
03F000
03F000
03F000
03F000
03F000
03F000
03F000
03F000
03F000
07F000
0FFC00
FFFFC0
018000
018000
038000
038000
038000
078000
03C000
03E000
03F000
01FFC0
007F00
ENDCHAR
STARTCHAR 012F
ENCODING 303
SWIDTH 283 0
DWIDTH 17 0
BBX 17 53 2 -11
BITMAP
070000
0F8000
0FC000
0F8000
070000
000000
000000
000000
000000
000000
000000
000000
000000
000000
038000
0F8000
7F8000
FF8000
0F8000
0F8000
0F8000
0F8000
0F8000
0F8000
0F8000
0F8000
0F8000
0F8000
0F8000
0F8000
0F8000
0F8000
0F8000
0F8000
0F8000
0F8000
0F8000
0F8000
0F8000
0FC000
1FC000
FFF800
060000
060000
0E0000
0E0000
0E0000
0E0000
0F0000
0F8000
0FC080
07FF00
01FC00
ENDCHAR
STARTCHAR 0130
ENCODING 304
SWIDTH 333 0
DWIDTH 20 0
BBX 18 49 1 0
BITMAP
01E000
03F000
03F000
03F000
01E000
000000
000000
000000
000000
FFFFC0
0FFC00
07F800
03F000
03F000
03F000
03F000
03F000
03F000
03F000
03F000
03F000
03F000
03F000
03F000
03F000
03F000
03F000
03F000
03F000
03F000
03F000
03F000
03F000
03F000
03F000
03F000
03F000
03F000
03F000
03F000
03F000
03F000
03F000
03F000
03F000
03F000
07F000
0FFC00
FFFFC0
ENDCHAR
STARTCHAR 0131
ENCODING 305
SWIDTH 283 0
DWIDTH 17 0
BBX 13 28 2 0
BITMAP
0380
0F80
7F80
FF80
0F80
0F80
0F80
0F80
0F80
0F80
0F80
0F80
0F80
0F80
0F80
0F80
0F80
0F80
0F80
0F80
0F80
0F80
0F80
0F80
0F80
0FC0
1FC0
FFF8
ENDCHAR
STARTCHAR 0132
ENCODING 306
SWIDTH 716 0
DWIDTH 43 0
BBX 41 41 1 -1
BITMAP
FFFF80FFFF80
0FFC000FF800
07F00007F000
03F00003F000
03F00003F000
03F00003F000
03F00003F000
03F00003F000
03F00003F000
03F00003F000
03F00003F000
03F00003F000
03F00003F000
03F00003F000
03F00003F000
03F00003F000
03F00003F000
03F00003F000
03F00003F000
03F00003F000
03F00003F000
03F00003F000
03F00003F000
03F00003F000
03F00003F000
03F00003F000
03F00003F000
03F00003F000
03F00003E000
03F00003E000
03F00003E000
03F00003E000
03F00003E000
03F00703E000
03F00F83C000
03F01F83C000
03F01FC38000
07F00FC78000
0FFC0FE70000
FFFF87FC0000
000001F00000
ENDCHAR
STARTCHAR 0133
ENCODING 307
SWIDTH 550 0
DWIDTH 33 0
BBX 26 55 2 -13
BITMAP
07000780
0F8007C0
0FC00FC0
0F8007C0
07000780
00000000
00000000
00000000
00000000
00000000
00000000
00000000
00000000
00000000
038001C0
0F800FC0
7F803FC0
FF807FC0
0F800FC0
0F8007C0
0F8007C0
0F8007C0
0F8007C0
0F8007C0
0F8007C0
0F8007C0
0F8007C0
0F8007C0
0F8007C0
0F8007C0
0F8007C0
0F8007C0
0F8007C0
0F8007C0
0F8007C0
0F8007C0
0F8007C0
0F8007C0
0F8007C0
0FC007C0
1FC007C0
FFF807C0
000007C0
000007C0
000007C0
00000780
00000780
00000780
00000780
00000700
001C0700
003F0E00
003F8C00
001FF800
000FE000
ENDCHAR
STARTCHAR 0134
ENCODING 308
SWIDTH 383 0
DWIDTH 23 0
BBX 22 55 1 -1
BITMAP
003F00
003F80
007F80
007FC0
00F7C0
01E1E0
01C0F0
038070
030018
040008
000000
000000
000000
000000
07FFFC
007FC0
003F80
003F80
001F00
001F00
001F00
001F00
001F00
001F00
001F00
001F00
001F00
001F00
001F00
001F00
001F00
001F00
001F00
001F00
001F00
001F00
001F00
001F00
001F00
001F00
001F00
001F00
001F00
001F00
001F00
001F00
001F00
381E00
7C1E00
FC1E00
FC1C00
FE3800
7F3000
3FE000
1F8000
ENDCHAR
STARTCHAR 0135
ENCODING 309
SWIDTH 283 0
DWIDTH 17 0
BBX 21 54 -5 -13
BITMAP
003F00
003F80
007F80
007FC0
00F7C0
00E1E0
01C0F0
038070
030018
060008
000000
000000
000000
000300
001F00
00FF00
01FF00
001F00
001F00
001F00
001F00
001F00
001F00
001F00
001F00
001F00
001F00
001F00
001F00
001F00
001F00
001F00
001F00
001F00
001F00
001F00
001F00
001F00
001F00
001F00
001F00
001F00
001F00
001F00
001F00
001F00
001E00
001E00
001E00
701C00
7C1800
FE3000
7FE000
3F8000
ENDCHAR
STARTCHAR 0136
ENCODING 310
SWIDTH 716 0
DWIDTH 43 0
BBX 43 52 1 -12
BITMAP
FFFF81FFFC00
0FF8003FE000
07F0001F8000
07F0003E0000
03E0003C0000
03E000780000
03E000F00000
03E000E00000
03E001C00000
03E003800000
03E007000000
03E00E000000
03E01C000000
03E038000000
03E0F0000000
03E1E0000000
03E3C0000000
03E7C0000000
03EF80000000
03FFC0000000
03EFE0000000
03E7F0000000
03E3F8000000
03E1FC000000
03E0FE000000
03E07F000000
03E03F800000
03E01FC00000
03E00FE00000
03E007F00000
03E003F80000
03E001FC0000
03E000FE0000
03E0007F0000
03E0003FC000
03E0001FE000
07F0001FF000
07F0001FFC00
0FF8003FFF00
FFFF80FFFFE0
000000000000
000000000000
00003E000000
00003F000000
00003F800000
00003F800000
00000F800000
000007800000
000007800000
000007000000
00000E000000
0000F8000000
ENDCHAR
STARTCHAR 0137
ENCODING 311
SWIDTH 500 0
DWIDTH 30 0
BBX 30 54 0 -12
BITMAP
01C00000
0FC00000
3FC00000
7FC00000
0FC00000
07C00000
07C00000
07C00000
07C00000
07C00000
07C00000
07C00000
07C00000
07C00000
07C00000
07C07FF8
07C01FC0
07C01E00
07C01C00
07C03800
07C07000
07C0E000
07C1C000
07C30000
07CE0000
07DE0000
07FF0000
07FF0000
07DF8000
07CFC000
07C7E000
07C7E000
07C3F000
07C1F800
07C0FC00
07C0FE00
07C07E00
07C03F00
07C01F80
0FC01FC0
0FE01FE0
FFFC7FFC
00000000
00000000
000F8000
000FC000
000FE000
000FE000
0001F000
0001E000
0001E000
0001E000
0003C000
003F0000
ENDCHAR
STARTCHAR 0138
ENCODING 312
SWIDTH 500 0
DWIDTH 30 0
BBX 30 27 0 0
BITMAP
7FFC7FF8
0FE01F80
0FC01E00
07C01C00
07C03800
07C07000
07C0E000
07C1C000
07C38000
07CF0000
07DE0000
07FE0000
07FF0000
07DF8000
07CFC000
07C7E000
07C7E000
07C3F000
07C1F800
07C0FC00
07C0FC00
07C07E00
07C03F00
07C01F80
0FC01FC0
1FE01FE0
FFFC7FFC
ENDCHAR
STARTCHAR 0139
ENCODING 313
SWIDTH 616 0
DWIDTH 37 0
BBX 34 54 1 0
BITMAP
0001F80000
0003F00000
0003E00000
0003C00000
0007800000
0007000000
0007000000
000E000000
000C000000
0008000000
0000000000
0000000000
0000000000
0000000000
FFFFC00000
0FFC000000
07F0000000
03F0000000
03F0000000
03F0000000
03F0000000
03F0000000
03F0000000
03F0000000
03F0000000
03F0000000
03F0000000
03F0000000
03F0000000
03F0000000
03F0000000
03F0000000
03F0000000
03F0000000
03F0000000
03F0000000
03F0000000
03F0000000
03F0000000
03F0000000
03F0000000
03F0000000
03F0000000
03F0000040
03F0000040
03F00000C0
03F0000080
03F0000180
03F0000180
03F0000300
03F0000F00
07F8003F00
0FFFFFFE00
FFFFFFFE00
ENDCHAR
STARTCHAR 013A
ENCODING 314
SWIDTH 283 0
DWIDTH 17 0
BBX 13 54 2 0
BITMAP
03F8
03F0
03E0
07C0
0780
0700
0E00
0E00
0C00
0800
0000
0000
0380
0F80
7F80
FF80
0F80
0F80
0F80
0F80
0F80
0F80
0F80
0F80
0F80
0F80
0F80
0F80
0F80
0F80
0F80
0F80
0F80
0F80
0F80
0F80
0F80
0F80
0F80
0F80
0F80
0F80
0F80
0F80
0F80
0F80
0F80
0F80
0F80
0F80
0F80
0FC0
1FC0
FFF8
ENDCHAR
STARTCHAR 013B
ENCODING 315
SWIDTH 616 0
DWIDTH 37 0
BBX 34 52 1 -12
BITMAP
FFFFC00000
0FFC000000
07F0000000
03F0000000
03F0000000
03F0000000
03F0000000
03F0000000
03F0000000
03F0000000
03F0000000
03F0000000
03F0000000
03F0000000
03F0000000
03F0000000
03F0000000
03F0000000
03F0000000
03F0000000
03F0000000
03F0000000
03F0000000
03F0000000
03F0000000
03F0000000
03F0000000
03F0000000
03F0000000
03F0000040
03F0000040
03F00000C0
03F0000080
03F0000180
03F0000180
03F0000300
03F0000F00
07F8003F00
0FFFFFFE00
FFFFFFFE00
0000000000
0000000000
0001E00000
0001F80000
0001F80000
0001FC0000
00007C0000
00003C0000
0000380000
0000780000
0000F00000
0007C00000
ENDCHAR
STARTCHAR 013C
ENCODING 316
SWIDTH 283 0
DWIDTH 17 0
BBX 13 54 2 -12
BITMAP
0380
0F80
7F80
FF80
0F80
0F80
0F80
0F80
0F80
0F80
0F80
0F80
0F80
0F80
0F80
0F80
0F80
0F80
0F80
0F80
0F80
0F80
0F80
0F80
0F80
0F80
0F80
0F80
0F80
0F80
0F80
0F80
0F80
0F80
0F80
0F80
0F80
0F80
0F80
0FC0
1FC0
FFF8
0000
0000
0F00
0FC0
0FC0
0FE0
03E0
01E0
01E0
03C0
0780
3E00
ENDCHAR
STARTCHAR 013D
ENCODING 317
SWIDTH 616 0
DWIDTH 37 0
BBX 34 41 1 0
BITMAP
0000007800
FFFFC0FC00
0FFC01FE00
07F001FE00
03F001FF00
03F000F700
03F0000700
03F0000700
03F0000600
03F0000600
03F0000C00
03F0001800
03F0003000
03F000E000
03F0010000
03F0000000
03F0000000
03F0000000
03F0000000
03F0000000
03F0000000
03F0000000
03F0000000
03F0000000
03F0000000
03F0000000
03F0000000
03F0000000
03F0000000
03F0000000
03F0000040
03F0000040
03F00000C0
03F0000080
03F0000180
03F0000180
03F0000300
03F0000F00
07F8003F00
0FFFFFFE00
FFFFFFFE00
ENDCHAR
STARTCHAR 013E
ENCODING 318
SWIDTH 400 0
DWIDTH 24 0
BBX 22 42 2 0
BITMAP
0383E0
0F87F0
7F87F8
FF87FC
0F83FC
0F801C
0F801C
0F801C
0F8018
0F8038
0F8070
0F80E0
0F8180
0F8300
0F8000
0F8000
0F8000
0F8000
0F8000
0F8000
0F8000
0F8000
0F8000
0F8000
0F8000
0F8000
0F8000
0F8000
0F8000
0F8000
0F8000
0F8000
0F8000
0F8000
0F8000
0F8000
0F8000
0F8000
0F8000
0FC000
1FC000
FFF800
ENDCHAR
STARTCHAR 013F
ENCODING 319
SWIDTH 616 0
DWIDTH 37 0
BBX 34 40 1 0
BITMAP
FFFFC00000
0FFC000000
07F0000000
03F0000000
03F0000000
03F0000000
03F0000000
03F0000000
03F0000000
03F0000000
03F0000000
03F0000000
03F0000000
03F0000000
03F0000000
03F0000000
03F0000000
03F0078000
03F00FC000
03F00FC000
03F00FC000
03F0078000
03F0000000
03F0000000
03F0000000
03F0000000
03F0000000
03F0000000
03F0000000
03F0000040
03F0000040
03F00000C0
03F0000080
03F0000180
03F0000180
03F0000300
03F0000F00
07F8003F00
0FFFFFFE00
FFFFFFFE00
ENDCHAR
STARTCHAR 0140
ENCODING 320
SWIDTH 350 0
DWIDTH 21 0
BBX 19 42 2 0
BITMAP
038000
0F8000
7F8000
FF8000
0F8000
0F8000
0F8000
0F8000
0F8000
0F8000
0F8000
0F8000
0F8000
0F8000
0F8000
0F8000
0F8000
0F8000
0F8000
0F83C0
0F87E0
0F87E0
0F87E0
0F83C0
0F8000
0F8000
0F8000
0F8000
0F8000
0F8000
0F8000
0F8000
0F8000
0F8000
0F8000
0F8000
0F8000
0F8000
0F8000
0F8000
1FC000
FFF800
ENDCHAR
STARTCHAR 0141
ENCODING 321
SWIDTH 616 0
DWIDTH 37 0
BBX 34 40 1 0
BITMAP
FFFFC00000
0FF8000000
07F0000000
03F0000000
03E0000000
03E0000000
03E0000000
03E0000000
03E0000000
03E0000000
03E0000000
03E0000000
03E0400000
03E0C00000
03E1800000
03E3000000
03EE000000
03FC000000
03F8000000
03E0000000
03E0000000
03E0000000
07E0000000
0FE0000000
1BE0000000
33E0000000
63E0000000
C3E0000000
83E0000000
03E0000040
03E0000040
03E0000080
03E0000080
03E0000180
03E0000380
03E0000300
07F0000F00
07F8003F00
0FFFFFFE00
FFFFFFFE00
ENDCHAR
STARTCHAR 0142
ENCODING 322
SWIDTH 283 0
DWIDTH 17 0
BBX 15 42 1 0
BITMAP
00C0
07C0
3FC0
7FC0
07C0
07C0
07C0
07C0
07C0
07C0
07C0
07C0
07C0
07C0
07C2
07C6
07CC
07F8
07F0
07E0
07C0
07C0
07C0
1FC0
3FC0
67C0
C7C0
87C0
07C0
07C0
07C0
07C0
07C0
07C0
07C0
07C0
07C0
07C0
07C0
07C0
0FE0
7FFC
ENDCHAR
STARTCHAR 0143
ENCODING 323
SWIDTH 716 0
DWIDTH 43 0
BBX 43 55 -1 -1
BITMAP
000003F00000
000007E00000
000007C00000
000007800000
00000F000000
00000F000000
00000E000000
00001C000000
000018000000
000010000000
000000000000
000000000000
000000000000
000000000000
FFE00003FFE0
1FF000007F00
07F800001E00
01FC00001C00
00FC00001C00
00FE00001C00
00FF00001C00
00FF80001C00
00FFC0001C00
00EFC0001C00
00EFE0001C00
00E7F0001C00
00E3F8001C00
00E1F8001C00
00E0FC001C00
00E07E001C00
00E07F001C00
00E03F801C00
00E01F801C00
00E00FC01C00
00E007E01C00
00E007F01C00
00E003F01C00
00E001F81C00
00E000FC1C00
00E0007E1C00
00E0007E1C00
00E0003F1C00
00E0001F9C00
00E0000FDC00
00E00007FC00
00E00007FC00
00E00003FC00
00E00001FC00
00E00000FC00
00E000007C00
00E000007C00
01E000003C00
03F000001C00
3FFF00000C00
000000000400
ENDCHAR
STARTCHAR 0144
ENCODING 324
SWIDTH 500 0
DWIDTH 30 0
BBX 29 41 1 0
BITMAP
0007E000
0007C000
000FC000
000F8000
000F0000
000E0000
001C0000
00180000
00100000
00300000
00000000
00000000
00000000
0381F000
1F87FC00
7F8FFE00
FF9FFE00
1FB83F00
0FE01F00
0FC01F00
0F801F80
0F800F80
0F800F80
0F800F80
0F800F80
0F800F80
0F800F80
0F800F80
0F800F80
0F800F80
0F800F80
0F800F80
0F800F80
0F800F80
0F800F80
0F800F80
0F800F80
0F800F80
1F801F80
1FC03FC0
FFF9FFF8
ENDCHAR
STARTCHAR 0145
ENCODING 325
SWIDTH 716 0
DWIDTH 43 0
BBX 43 52 -1 -12
BITMAP
FFE00003FFE0
1FF000007F00
07F800001E00
01FC00001C00
00FC00001C00
00FE00001C00
00FF00001C00
00FF80001C00
00FFC0001C00
00EFC0001C00
00EFE0001C00
00E7F0001C00
00E3F8001C00
00E1F8001C00
00E0FC001C00
00E07E001C00
00E07F001C00
00E03F801C00
00E01F801C00
00E00FC01C00
00E007E01C00
00E007F01C00
00E003F01C00
00E001F81C00
00E000FC1C00
00E0007E1C00
00E0007E1C00
00E0003F1C00
00E0001F9C00
00E0000FDC00
00E00007FC00
00E00007FC00
00E00003FC00
00E00001FC00
00E00000FC00
00E000007C00
00E000007C00
01E000003C00
03F000001C00
3FFF00000C00
000000000400
000000000000
00000F800000
00000FC00000
00000FE00000
00000FE00000
000003E00000
000001E00000
000001E00000
000001C00000
000003800000
00003E000000
ENDCHAR
STARTCHAR 0146
ENCODING 326
SWIDTH 500 0
DWIDTH 30 0
BBX 29 40 1 -12
BITMAP
0381F000
1F87FC00
7F8FFE00
FF9FFE00
1FB83F00
0FE01F00
0FC01F00
0F801F80
0F800F80
0F800F80
0F800F80
0F800F80
0F800F80
0F800F80
0F800F80
0F800F80
0F800F80
0F800F80
0F800F80
0F800F80
0F800F80
0F800F80
0F800F80
0F800F80
0F800F80
1F801F80
1FC03FC0
FFF9FFF8
00000000
00000000
001F0000
001F8000
001FC000
001FC000
0003E000
0003C000
0003C000
0003C000
00078000
007E0000
ENDCHAR
STARTCHAR 0147
ENCODING 327
SWIDTH 716 0
DWIDTH 43 0
BBX 43 55 -1 -1
BITMAP
000100020000
0001C0040000
0000E01C0000
000070380000
00007C780000
00003EF00000
00003FF00000
00001FE00000
00001FC00000
00000FC00000
000000000000
000000000000
000000000000
000000000000
FFE00003FFE0
1FF000007F00
07F800001E00
01FC00001C00
00FC00001C00
00FE00001C00
00FF00001C00
00FF80001C00
00FFC0001C00
00EFC0001C00
00EFE0001C00
00E7F0001C00
00E3F8001C00
00E1F8001C00
00E0FC001C00
00E07E001C00
00E07F001C00
00E03F801C00
00E01F801C00
00E00FC01C00
00E007E01C00
00E007F01C00
00E003F01C00
00E001F81C00
00E000FC1C00
00E0007E1C00
00E0007E1C00
00E0003F1C00
00E0001F9C00
00E0000FDC00
00E00007FC00
00E00007FC00
00E00003FC00
00E00001FC00
00E00000FC00
00E000007C00
00E000007C00
01E000003C00
03F000001C00
3FFF00000C00
000000000400
ENDCHAR
STARTCHAR 0148
ENCODING 328
SWIDTH 500 0
DWIDTH 30 0
BBX 29 41 1 0
BITMAP
06000800
03001800
03803000
01E07000
00F0E000
00F9E000
007FC000
007F8000
003F8000
003F0000
00000000
00000000
00000000
0381F000
1F87FC00
7F8FFE00
FF9FFE00
1FB83F00
0FE01F00
0FC01F00
0F801F80
0F800F80
0F800F80
0F800F80
0F800F80
0F800F80
0F800F80
0F800F80
0F800F80
0F800F80
0F800F80
0F800F80
0F800F80
0F800F80
0F800F80
0F800F80
0F800F80
0F800F80
1F801F80
1FC03FC0
FFF9FFF8
ENDCHAR
STARTCHAR 0149
ENCODING 329
SWIDTH 600 0
DWIDTH 36 0
BBX 36 41 0 0
BITMAP
3C00000000
FE00000000
FF00000000
FF80000000
7F80000000
0380000000
0380000000
0380000000
0300000000
0700000000
0E00000000
1C00000000
3800000000
600701F000
001F07F800
00FF1FFC00
01FF3FFE00
001F707E00
001FE03E00
001F803F00
001F001F00
001F001F00
001F001F00
001F001F00
001F001F00
001F001F00
001F001F00
001F001F00
001F001F00
001F001F00
001F001F00
001F001F00
001F001F00
001F001F00
001F001F00
001F001F00
001F001F00
001F001F00
001F001F00
003F803F80
01FFF1FFF0
ENDCHAR
STARTCHAR 014A
ENCODING 330
SWIDTH 700 0
DWIDTH 42 0
BBX 38 42 1 -1
BITMAP
00000FF000
FFE03FFC00
0FE07FFF00
07E0F03F80
07E1C01FC0
03E30007E0
03E60007E0
03EE0003F0
03EC0003F0
03F80001F8
03F00001F8
03F00001F8
03E00001FC
03E00000FC
03E00000FC
03E00000FC
03E00000FC
03E00000FC
03E00000FC
03E00000FC
03E00000FC
03E00000FC
03E00000FC
03E00000FC
03E00000FC
03E00000FC
03E00000FC
03E00000FC
03E00000F8
03E00000F8
03E00000F8
03E00000F8
03E00000F0
03E00000F0
03E00E00E0
03E01F01E0
03E01F81C0
03F01F8180
07F01F8300
0FF80FC600
FFFF87FC00
000003F000
ENDCHAR
STARTCHAR 014B
ENCODING 331
SWIDTH 500 0
DWIDTH 30 0
BBX 25 41 1 -13
BITMAP
0381F000
1F87FC00
7F8FFE00
FF9FFE00
1FB83F00
0FE01F00
0FC01F00
0F801F00
0F800F80
0F800F80
0F800F80
0F800F80
0F800F80
0F800F80
0F800F80
0F800F80
0F800F80
0F800F80
0F800F80
0F800F80
0F800F80
0F800F80
0F800F80
0F800F80
0F800F80
1F800F80
1FC00F80
FFF80F80
00000F80
00000F80
00000F00
00000F00
00000F00
00000F00
00000F00
00000E00
00381E00
007C1C00
007F3800
007FF000
001F8000
ENDCHAR
STARTCHAR 014C
ENCODING 332
SWIDTH 716 0
DWIDTH 43 0
BBX 39 49 2 -1
BITMAP
003FFFF800
003FFFF800
003FFFF800
003FFFF800
0000000000
0000000000
0000000000
0001FF0000
000FFFE000
003F01F800
007C007E00
01F0001F00
03E0000F80
07C00007C0
0FC00007E0
0F800003E0
1F800003F0
3F000001F8
3F000001F8
3F000001FC
7F000000FC
7E000000FC
7E000000FC
FE000000FE
FE000000FE
FE000000FE
FE000000FE
FE000000FE
FE000000FE
FE000000FE
FE000000FE
FE000000FE
FE000000FE
7E000000FC
7E000000FC
7F000000FC
3F000001F8
3F000001F8
3F800001F8
1F800003F0
0F800003E0
0FC00007E0
07E00007C0
03E0000F80
01F0001F00
00FC007C00
003F01F800
000FFFE000
0001FF0000
ENDCHAR
STARTCHAR 014D
ENCODING 333
SWIDTH 500 0
DWIDTH 30 0
BBX 26 38 2 -1
BITMAP
0FFFFC00
0FFFFC00
0FFFFC00
0FFFFC00
00000000
00000000
00000000
00000000
00000000
003F8000
01FFE000
03C1F800
0F00FC00
0E007E00
1E003E00
3C003F00
3C001F00
7C001F80
7C000F80
7C000FC0
F8000FC0
F8000FC0
F8000FC0
FC000FC0
FC000FC0
FC000FC0
FC000FC0
FC000F80
7C000F80
7E000F80
7E000F00
3F000F00
1F001E00
1F801C00
0FC03800
07F0F000
01FFE000
007F0000
ENDCHAR
STARTCHAR 014E
ENCODING 334
SWIDTH 716 0
DWIDTH 43 0
BBX 39 53 2 -1
BITMAP
0010001000
0018003000
000C007000
000F01E000
0007FFC000
0003FFC000
0001FF0000
00007C0000
0000000000
0000000000
0000000000
0001FF0000
000FFFE000
003F01F800
007C007E00
01F0001F00
03E0000F80
07C00007C0
0FC00007E0
0F800003E0
1F800003F0
3F000001F8
3F000001F8
3F000001FC
7F000000FC
7E000000FC
7E000000FC
FE000000FE
FE000000FE
FE000000FE
FE000000FE
FE000000FE
FE000000FE
FE000000FE
FE000000FE
FE000000FE
FE000000FE
7E000000FC
7E000000FC
7F000000FC
3F000001F8
3F000001F8
3F800001F8
1F800003F0
0F800003E0
0FC00007E0
07E00007C0
03E0000F80
01F0001F00
00FC007C00
003F01F800
000FFFE000
0001FF0000
ENDCHAR
STARTCHAR 014F
ENCODING 335
SWIDTH 500 0
DWIDTH 30 0
BBX 26 40 2 -1
BITMAP
08000800
0C001800
06003000
0780F000
03FFE000
03FFC000
00FF8000
003E0000
00000000
00000000
00000000
003F8000
01FFE000
03C1F800
0F00FC00
0E007E00
1E003E00
3C003F00
3C001F00
7C001F80
7C000F80
7C000FC0
F8000FC0
F8000FC0
F8000FC0
FC000FC0
FC000FC0
FC000FC0
FC000FC0
FC000F80
7C000F80
7E000F80
7E000F00
3F000F00
1F001E00
1F801C00
0FC03800
07F0F000
01FFE000
007F0000
ENDCHAR
STARTCHAR 0150
ENCODING 336
SWIDTH 716 0
DWIDTH 43 0
BBX 39 55 2 -1
BITMAP
0001F0FC00
0001F0F800
0001E0F000
0001C0F000
0003C0E000
000381C000
000381C000
0003018000
0002010000
0006010000
0000000000
0000000000
0000000000
0001FF0000
000FFFE000
003F01F800
007C007E00
01F0001F00
03E0000F80
07C00007C0
0FC00007E0
0F800003E0
1F800003F0
3F000001F8
3F000001F8
3F000001FC
7F000000FC
7E000000FC
7E000000FC
FE000000FE
FE000000FE
FE000000FE
FE000000FE
FE000000FE
FE000000FE
FE000000FE
FE000000FE
FE000000FE
FE000000FE
7E000000FC
7E000000FC
7F000000FC
3F000001F8
3F000001F8
3F800001F8
1F800003F0
0F800003E0
0FC00007E0
07E00007C0
03E0000F80
01F0001F00
00FC007C00
003F01F800
000FFFE000
0001FF0000
ENDCHAR
STARTCHAR 0151
ENCODING 337
SWIDTH 500 0
DWIDTH 30 0
BBX 26 42 2 -1
BITMAP
00F87E00
00F87C00
00F07800
00E07800
01E07000
01C0E000
01C0E000
0180C000
01008000
03008000
00000000
00000000
00000000
003F8000
01FFE000
03C1F800
0F00FC00
0E007E00
1E003E00
3C003F00
3C001F00
7C001F80
7C000F80
7C000FC0
F8000FC0
F8000FC0
F8000FC0
FC000FC0
FC000FC0
FC000FC0
FC000FC0
FC000F80
7C000F80
7E000F80
7E000F00
3F000F00
1F001E00
1F801C00
0FC03800
07F0F000
01FFE000
007F0000
ENDCHAR
STARTCHAR 0152
ENCODING 338
SWIDTH 883 0
DWIDTH 53 0
BBX 50 42 2 -1
BITMAP
0003FF00000000
001FFFFFFFFC00
007F03FFFFFC00
00F801FC003C00
01F000FC000C00
03E000FC000C00
07C0007C000400
0FC0007C000400
1F80007C000400
1F80007C000400
3F00007C000000
3F00007C000000
3F00007C000000
7F00007C002000
7E00007C002000
7E00007C002000
7E00007C006000
FE00007C006000
FE00007C01E000
FE00007FFFE000
FE00007FFFE000
FE00007C01E000
FE00007C006000
FE00007C006000
FE00007C006000
7E00007C002000
7E00007C002000
7E00007C000000
7F00007C000000
3F00007C000000
3F00007C000000
3F00007C0000C0
1F80007C000080
1F80007C000180
0FC0007C000180
07C000FC000300
03E000FC000700
01F000FE000F00
00F801FE003E00
007F03FFFFFE00
001FFFFFFFFE00
0003FF00000000
ENDCHAR
STARTCHAR 0153
ENCODING 339
SWIDTH 716 0
DWIDTH 43 0
BBX 39 29 2 -1
BITMAP
007F001F80
01FFC0FFE0
0783F1C3F0
0F01FB80F8
1E00FB007C
3E007F007C
3C007F007E
7C003E007E
7C003E003E
7C003FFFFE
F8003FFFFE
F8001E0000
F8001E0000
F8001E0000
F8001E0000
FC001F0000
FC001F0000
FC001F0000
FC001F0002
FC001F8002
7E001F8006
7E001FC006
3E003FE00C
3F003FF83C
1F807BFFF8
0F8073FFF8
07E1E1FFF0
03FFC0FFC0
007F003F00
ENDCHAR
STARTCHAR 0154
ENCODING 340
SWIDTH 666 0
DWIDTH 40 0
BBX 40 54 1 0
BITMAP
0000FC0000
0000F80000
0001F80000
0001F00000
0001E00000
0003C00000
0003800000
0003000000
0002000000
0006000000
0000000000
0000000000
0000000000
0000000000
FFFFFC0000
0FFFFF8000
07F81FE000
07E007F000
03E003F800
03E001FC00
03E000FC00
03E000FE00
03E000FE00
03E000FE00
03E000FE00
03E000FE00
03E000FE00
03E000FC00
03E001FC00
03E001F800
03E003F000
03E00FE000
03E03F8000
03FFFE0000
03FFFC0000
03E0FC0000
03E07E0000
03E07F0000
03E03F0000
03E01F8000
03E01FC000
03E00FC000
03E007E000
03E003F000
03E003F000
03E001F800
03E000FC00
03E000FE00
03E0007E00
03E0003F00
07F0003F80
07F0001FE0
0FF8000FF8
FFFF8007FF
ENDCHAR
STARTCHAR 0155
ENCODING 341
SWIDTH 333 0
DWIDTH 20 0
BBX 19 41 1 0
BITMAP
007E00
007E00
00FC00
00F800
00F000
00E000
01C000
018000
010000
030000
000000
000000
000000
0387C0
1F8FE0
7F9FE0
FFBFE0
1FE3C0
0FC000
0FC000
0F8000
0F8000
0F8000
0F8000
0F8000
0F8000
0F8000
0F8000
0F8000
0F8000
0F8000
0F8000
0F8000
0F8000
0F8000
0F8000
0F8000
0F8000
1FC000
3FE000
FFF800
ENDCHAR
STARTCHAR 0156
ENCODING 342
SWIDTH 666 0
DWIDTH 40 0
BBX 40 52 1 -12
BITMAP
FFFFFC0000
0FFFFF8000
07F81FE000
07E007F000
03E003F800
03E001FC00
03E000FC00
03E000FE00
03E000FE00
03E000FE00
03E000FE00
03E000FE00
03E000FE00
03E000FC00
03E001FC00
03E001F800
03E003F000
03E00FE000
03E03F8000
03FFFE0000
03FFFC0000
03E0FC0000
03E07E0000
03E07F0000
03E03F0000
03E01F8000
03E01FC000
03E00FC000
03E007E000
03E003F000
03E003F000
03E001F800
03E000FC00
03E000FE00
03E0007E00
03E0003F00
07F0003F80
07F0001FE0
0FF8000FF8
FFFF8007FF
0000000000
0000000000
0000780000
00007E0000
00007E0000
00007F0000
00001F0000
00000F0000
00000E0000
00001E0000
00003C0000
0001F00000
ENDCHAR
STARTCHAR 0157
ENCODING 343
SWIDTH 333 0
DWIDTH 20 0
BBX 19 40 1 -12
BITMAP
0387C0
1F8FE0
7F9FE0
FFBFE0
1FE3C0
0FC000
0FC000
0F8000
0F8000
0F8000
0F8000
0F8000
0F8000
0F8000
0F8000
0F8000
0F8000
0F8000
0F8000
0F8000
0F8000
0F8000
0F8000
0F8000
0F8000
1FC000
3FE000
FFF800
000000
000000
07C000
07E000
07F000
07F000
01F000
00F000
00F000
00E000
01C000
1F8000
ENDCHAR
STARTCHAR 0158
ENCODING 344
SWIDTH 666 0
DWIDTH 40 0
BBX 40 54 1 0
BITMAP
0040008000
0060030000
0038070000
003C0E0000
001E1E0000
000FBC0000
000FF80000
0007F80000
0007F00000
0003F00000
0000000000
0000000000
0000000000
0000000000
FFFFFC0000
0FFFFF8000
07F81FE000
07E007F000
03E003F800
03E001FC00
03E000FC00
03E000FE00
03E000FE00
03E000FE00
03E000FE00
03E000FE00
03E000FE00
03E000FC00
03E001FC00
03E001F800
03E003F000
03E00FE000
03E03F8000
03FFFE0000
03FFFC0000
03E0FC0000
03E07E0000
03E07F0000
03E03F0000
03E01F8000
03E01FC000
03E00FC000
03E007E000
03E003F000
03E003F000
03E001F800
03E000FC00
03E000FE00
03E0007E00
03E0003F00
07F0003F80
07F0001FE0
0FF8000FF8
FFFF8007FF
ENDCHAR
STARTCHAR 0159
ENCODING 345
SWIDTH 333 0
DWIDTH 20 0
BBX 19 41 1 0
BITMAP
600080
300180
180300
1E0700
0F0E00
0F9E00
07FC00
07F800
03F800
03F000
000000
000000
000000
0387C0
1F8FE0
7F9FE0
FFBFE0
1FE3C0
0FC000
0FC000
0F8000
0F8000
0F8000
0F8000
0F8000
0F8000
0F8000
0F8000
0F8000
0F8000
0F8000
0F8000
0F8000
0F8000
0F8000
0F8000
0F8000
0F8000
1FC000
3FE000
FFF800
ENDCHAR
STARTCHAR 015A
ENCODING 346
SWIDTH 550 0
DWIDTH 33 0
BBX 26 55 4 -1
BITMAP
000FC000
001F8000
001F0000
001E0000
003C0000
003C0000
00380000
00700000
00600000
00400000
00000000
00000000
00000000
00FE0300
07FFE300
0F83FF00
1E007F00
3C003F00
78001F00
F8000F00
F0000700
F0000700
F8000700
F8000300
FC000300
FC000300
FF000300
7F800000
7FE00000
3FF00000
1FFC0000
0FFF0000
03FFC000
01FFE000
007FF800
003FFC00
000FFE00
0003FF00
0000FF80
00007F80
00003FC0
80001FC0
80000FC0
C0000FC0
C00007C0
C00007C0
E00007C0
E0000780
F0000F80
F8000F00
FC001F00
FE003E00
FFC0FC00
C7FFF000
807FC000
ENDCHAR
STARTCHAR 015B
ENCODING 347
SWIDTH 383 0
DWIDTH 23 0
BBX 18 42 3 -1
BITMAP
007E00
00FC00
00F800
00F800
00F000
01E000
01C000
018000
030000
020000
000000
000000
000000
07E100
1FFF00
3C1F00
700F00
700700
E00300
E00300
F00100
F00100
FC0000
FE0000
7F8000
3FE000
1FF800
0FFE00
03FF00
00FF80
003F80
000FC0
0007C0
8007C0
8003C0
C003C0
E003C0
E00380
F80780
FC0F00
FFFC00
87F000
ENDCHAR
STARTCHAR 015C
ENCODING 348
SWIDTH 550 0
DWIDTH 33 0
BBX 26 55 4 -1
BITMAP
003F0000
007F0000
007F8000
00FF8000
00E7C000
01C3C000
0381E000
03007000
06003000
04001800
00000000
00000000
00000000
00FE0300
07FFE300
0F83FF00
1E007F00
3C003F00
78001F00
F8000F00
F0000700
F0000700
F8000700
F8000300
FC000300
FC000300
FF000300
7F800000
7FE00000
3FF00000
1FFC0000
0FFF0000
03FFC000
01FFE000
007FF800
003FFC00
000FFE00
0003FF00
0000FF80
00007F80
00003FC0
80001FC0
80000FC0
C0000FC0
C00007C0
C00007C0
E00007C0
E0000780
F0000F80
F8000F00
FC001F00
FE003E00
FFC0FC00
C7FFF000
807FC000
ENDCHAR
STARTCHAR 015D
ENCODING 349
SWIDTH 383 0
DWIDTH 23 0
BBX 18 42 3 -1
BITMAP
03F000
07F000
07F800
0FF800
0E7C00
1C3C00
381E00
300700
600300
400180
000000
000000
000000
07E100
1FFF00
3C1F00
700F00
700700
E00300
E00300
F00100
F00100
FC0000
FE0000
7F8000
3FE000
1FF800
0FFE00
03FF00
00FF80
003F80
000FC0
0007C0
8007C0
8003C0
C003C0
E003C0
E00380
F80780
FC0F00
FFFC00
87F000
ENDCHAR
STARTCHAR 015E
ENCODING 350
SWIDTH 550 0
DWIDTH 33 0
BBX 26 53 4 -12
BITMAP
00FE0300
07FFE300
0F83FF00
1E007F00
3C003F00
78001F00
F8000F00
F0000700
F0000700
F8000700
F8000300
FC000300
FC000300
FF000300
7F800000
7FE00000
3FF00000
1FFC0000
0FFF0000
03FFC000
01FFE000
007FF800
003FFC00
000FFE00
0003FF00
0000FF80
00007F80
00003FC0
80001FC0
80000FC0
C0000FC0
C00007C0
C00007C0
E00007C0
E0000780
F0000F80
F8000F00
FC001F00
FE003E00
FFC0FC00
C7FFF000
807FC000
00180000
001C0000
003E0000
003F0000
007F0000
001F0000
000F0000
000F0000
000E0000
001C0000
01F80000
ENDCHAR
STARTCHAR 015F
ENCODING 351
SWIDTH 383 0
DWIDTH 23 0
BBX 18 40 3 -12
BITMAP
07E100
1FFF00
3C1F00
700F00
700700
E00300
E00300
F00100
F00100
FC0000
FE0000
7F8000
3FE000
1FF800
0FFE00
03FF00
00FF80
003F80
000FC0
0007C0
8007C0
8003C0
C003C0
E003C0
E00380
F80780
FC0F00
FFFC00
87F000
00C000
01C000
01F000
03F000
03F800
00F800
007800
007000
00F000
01E000
0F8000
ENDCHAR
STARTCHAR 0160
ENCODING 352
SWIDTH 550 0
DWIDTH 33 0
BBX 26 55 4 -1
BITMAP
04001800
06003000
03806000
03C0E000
01E1C000
01FBC000
00FF8000
00FF8000
007F0000
003F0000
00000000
00000000
00000000
00FE0300
07FFE300
0F83FF00
1E007F00
3C003F00
78001F00
F8000F00
F0000700
F0000700
F8000700
F8000300
FC000300
FC000300
FF000300
7F800000
7FE00000
3FF00000
1FFC0000
0FFF0000
03FFC000
01FFE000
007FF800
003FFC00
000FFE00
0003FF00
0000FF80
00007F80
00003FC0
80001FC0
80000FC0
C0000FC0
C00007C0
C00007C0
E00007C0
E0000780
F0000F80
F8000F00
FC001F00
FE003E00
FFC0FC00
C7FFF000
807FC000
ENDCHAR
STARTCHAR 0161
ENCODING 353
SWIDTH 383 0
DWIDTH 23 0
BBX 18 42 3 -1
BITMAP
400180
600300
380700
3C0E00
1E1C00
1FBC00
0FF800
07F800
07F000
03F000
000000
000000
000000
07E100
1FFF00
3C1F00
700F00
700700
E00300
E00300
F00100
F00100
FC0000
FE0000
7F8000
3FE000
1FF800
0FFE00
03FF00
00FF80
003F80
000FC0
0007C0
8007C0
8003C0
C003C0
E003C0
E00380
F80780
FC0F00
FFFC00
87F000
ENDCHAR
STARTCHAR 0162
ENCODING 354
SWIDTH 616 0
DWIDTH 37 0
BBX 33 53 2 -13
BITMAP
FFFFFFFF80
FFFFFFFF80
F003E00F80
E003E00380
C003E00180
8003E00180
8003E00080
8003E00080
0003E00000
0003E00000
0003E00000
0003E00000
0003E00000
0003E00000
0003E00000
0003E00000
0003E00000
0003E00000
0003E00000
0003E00000
0003E00000
0003E00000
0003E00000
0003E00000
0003E00000
0003E00000
0003E00000
0003E00000
0003E00000
0003E00000
0003E00000
0003E00000
0003E00000
0003E00000
0003E00000
0007E00000
0007E00000
0007F00000
000FF80000
00FFFF8000
0000000000
0000000000
0000000000
0003C00000
0007E00000
0007F00000
0007F00000
0003F00000
0000300000
0000300000
0000600000
0001C00000
0007000000
ENDCHAR
STARTCHAR 0163
ENCODING 355
SWIDTH 283 0
DWIDTH 17 0
BBX 16 49 1 -13
BITMAP
0080
0180
0180
0380
0380
0780
0F80
1F80
3F80
7FFE
FFFE
0F80
0F80
0F80
0F80
0F80
0F80
0F80
0F80
0F80
0F80
0F80
0F80
0F80
0F80
0F80
0F80
0F80
0F80
0F80
0F80
0F83
0FC6
0FFE
07FC
07F8
01E0
0000
0000
0780
07C0
0FE0
0FE0
0760
0060
0060
00C0
0180
0F00
ENDCHAR
STARTCHAR 0164
ENCODING 356
SWIDTH 616 0
DWIDTH 37 0
BBX 33 54 2 0
BITMAP
0040010000
0060030000
0038060000
003C0E0000
001E1C0000
001FBC0000
000FF80000
000FF80000
0007F00000
0003F00000
0000000000
0000000000
0000000000
0000000000
FFFFFFFF80
FFFFFFFF80
F803E00F80
E003E00380
C003E00180
C003E00180
8003E00080
8003E00080
8003E00080
0003E00000
0003E00000
0003E00000
0003E00000
0003E00000
0003E00000
0003E00000
0003E00000
0003E00000
0003E00000
0003E00000
0003E00000
0003E00000
0003E00000
0003E00000
0003E00000
0003E00000
0003E00000
0003E00000
0003E00000
0003E00000
0003E00000
0003E00000
0003E00000
0003E00000
0003E00000
0007E00000
0007E00000
0007F00000
000FF80000
00FFFF8000
ENDCHAR
STARTCHAR 0165
ENCODING 357
SWIDTH 433 0
DWIDTH 26 0
BBX 24 43 1 -1
BITMAP
000078
0001FE
0001FE
0001FF
0000FF
000007
008007
018007
018006
038006
03800C
07801C
0F8038
1F8070
3F8040
7FFE00
FFFE00
0F8000
0F8000
0F8000
0F8000
0F8000
0F8000
0F8000
0F8000
0F8000
0F8000
0F8000
0F8000
0F8000
0F8000
0F8000
0F8000
0F8000
0F8000
0F8000
0F8000
0F8300
0FC600
0FFE00
07FC00
07F800
01E000
ENDCHAR
STARTCHAR 0166
ENCODING 358
SWIDTH 616 0
DWIDTH 37 0
BBX 33 40 2 0
BITMAP
FFFFFFFF80
FFFFFFFF80
F807E00F80
E007E00380
C007E00180
C007E00180
8007E00080
8007E00080
8007E00080
0007E00000
0007E00000
0007E00000
0007E00000
0007E00000
0007E00000
0007E00000
0007E00000
0007E00000
1FFFFFFC00
1FFFFFFC00
0007E00000
0007E00000
0007E00000
0007E00000
0007E00000
0007E00000
0007E00000
0007E00000
0007E00000
0007E00000
0007E00000
0007E00000
0007E00000
0007E00000
0007E00000
0007E00000
0007E00000
0007F00000
000FF80000
00FFFF8000
ENDCHAR
STARTCHAR 0167
ENCODING 359
SWIDTH 283 0
DWIDTH 17 0
BBX 16 37 0 -1
BITMAP
00C0
00C0
00C0
01C0
01C0
03C0
07C0
0FC0
1FC0
3FFF
FFFF
07C0
07C0
07C0
07C0
07C0
07C0
07C0
07C0
FFFF
FFFF
07C0
07C0
07C0
07C0
07C0
07C0
07C0
07C0
07C0
07C0
07C1
07E3
07FE
03FE
03FC
00F0
ENDCHAR
STARTCHAR 0168
ENCODING 360
SWIDTH 716 0
DWIDTH 43 0
BBX 43 53 0 -1
BITMAP
000078010000
0001FE010000
0001FF830000
0003FFE30000
00031FFE0000
00020FFE0000
000603FC0000
000400F00000
000000000000
000000000000
000000000000
000000000000
FFFF8007FFE0
0FFC0000FE00
07F800003C00
03F000003800
03F000003800
03F000003800
03F000003800
03F000003800
03F000003800
03F000003800
03F000003800
03F000003800
03F000003800
03F000003800
03F000003800
03F000003800
03F000003800
03F000003800
03F000003800
03F000003800
03F000003800
03F000003800
03F000003800
03F000003800
03F000003800
03F000003800
03F000003800
03F000003800
03F000003800
03F000003800
01F000003000
01F000003000
01F800007000
01F800007000
00F80000E000
007C0001C000
007E0003C000
003F00078000
001FC03E0000
0007FFFC0000
0000FFC00000
ENDCHAR
STARTCHAR 0169
ENCODING 361
SWIDTH 500 0
DWIDTH 30 0
BBX 30 41 0 -1
BITMAP
007C0100
00FF0100
01FF8100
03FFE300
031FFF00
0207FE00
0203FC00
0200F800
00000000
00000000
00000000
00000000
00000000
FFC0FF80
1FC01F80
0FC00F80
07C00F80
07C00780
07C00780
07C00780
07C00780
07C00780
07C00780
07C00780
07C00780
07C00780
07C00780
07C00780
07C00780
07C00780
07C00780
07C00780
07C00780
07C00F80
07C01FC0
07C037C0
07F0E7C0
03FFC7FC
03FF87F8
01FF07C0
007C0600
ENDCHAR
STARTCHAR 016A
ENCODING 362
SWIDTH 716 0
DWIDTH 43 0
BBX 43 49 0 -1
BITMAP
0003FFFF0000
0003FFFF0000
0003FFFF0000
0003FFFF0000
000000000000
000000000000
000000000000
000000000000
FFFFC007FFE0
0FFC0000FE00
07F800003C00
03F000003800
03F000003800
03F000003800
03F000003800
03F000003800
03F000003800
03F000003800
03F000003800
03F000003800
03F000003800
03F000003800
03F000003800
03F000003800
03F000003800
03F000003800
03F000003800
03F000003800
03F000003800
03F000003800
03F000003800
03F000003800
03F000003800
03F000003800
03F000003800
03F000003800
03F000003800
03F000003800
01F000003000
01F000003000
01F800007000
01F800007000
00F80000E000
007C0001C000
007E0003C000
003F00078000
001FC03E0000
0007FFFC0000
0000FFC00000
ENDCHAR
STARTCHAR 016B
ENCODING 363
SWIDTH 500 0
DWIDTH 30 0
BBX 30 38 0 -1
BITMAP
03FFFF00
03FFFF00
03FFFF00
03FFFF00
00000000
00000000
00000000
00000000
00000000
00000000
FFC0FF80
1FC01F80
0FC00F80
07C00F80
07C00780
07C00780
07C00780
07C00780
07C00780
07C00780
07C00780
07C00780
07C00780
07C00780
07C00780
07C00780
07C00780
07C00780
07C00780
07C00780
07C00F80
07C01FC0
07C037C0
07F0E7C0
03FFC7FC
03FF87F8
01FF07C0
007C0600
ENDCHAR
STARTCHAR 016C
ENCODING 364
SWIDTH 716 0
DWIDTH 43 0
BBX 43 53 0 -1
BITMAP
000400040000
0006000C0000
0003001C0000
0003C0780000
0001FFF00000
0000FFF00000
00007FC00000
00001F000000
000000000000
000000000000
000000000000
000000000000
FFFFC007FFE0
0FFC0000FE00
07F800003C00
03F000003800
03F000003800
03F000003800
03F000003800
03F000003800
03F000003800
03F000003800
03F000003800
03F000003800
03F000003800
03F000003800
03F000003800
03F000003800
03F000003800
03F000003800
03F000003800
03F000003800
03F000003800
03F000003800
03F000003800
03F000003800
03F000003800
03F000003800
03F000003800
03F000003800
03F000003800
03F000003800
01F000003000
01F000003000
01F800007000
01F800007000
00F80000E000
007C0001C000
007E0003C000
003F00078000
001FC03E0000
0007FFFC0000
0000FFC00000
ENDCHAR
STARTCHAR 016D
ENCODING 365
SWIDTH 500 0
DWIDTH 30 0
BBX 30 40 0 -1
BITMAP
01000200
01000200
01C00600
00F01C00
00FFFC00
007FF800
003FF000
000FC000
00000000
00000000
00000000
00000000
FFC0FF80
1FC01F80
0FC00F80
07C00F80
07C00780
07C00780
07C00780
07C00780
07C00780
07C00780
07C00780
07C00780
07C00780
07C00780
07C00780
07C00780
07C00780
07C00780
07C00780
07C00780
07C00F80
07C01FC0
07C037C0
07F0E7C0
03FFC7FC
03FF87F8
01FF07C0
007C0600
ENDCHAR
STARTCHAR 016E
ENCODING 366
SWIDTH 716 0
DWIDTH 43 0
BBX 43 54 0 -1
BITMAP
000007800000
00001FE00000
000038700000
000030300000
000070300000
000060380000
000060380000
000070300000
000030300000
000038700000
00001FE00000
000007800000
000000000000
FFFF8007FFE0
0FFC0000FE00
07F800003C00
03F000003800
03F000003800
03F000003800
03F000003800
03F000003800
03F000003800
03F000003800
03F000003800
03F000003800
03F000003800
03F000003800
03F000003800
03F000003800
03F000003800
03F000003800
03F000003800
03F000003800
03F000003800
03F000003800
03F000003800
03F000003800
03F000003800
03F000003800
03F000003800
03F000003800
03F000003800
03F000003800
01F000003000
01F000003000
01F800007000
01F800007000
00F80000E000
007C0001C000
007E0003C000
003F00078000
001FC03E0000
0007FFFC0000
0000FFC00000
ENDCHAR
STARTCHAR 016F
ENCODING 367
SWIDTH 500 0
DWIDTH 30 0
BBX 30 44 0 -1
BITMAP
000F8000
001FC000
0038E000
00706000
00603000
00603000
00603000
00603000
00706000
0038E000
001FC000
000F8000
00000000
00000000
00000000
00000000
FF80FF80
1F801F80
0F800F80
0F800F80
07800780
07800780
07800780
07800780
07800780
07800780
07800780
07800780
07800780
07800780
07800780
07800780
07800780
07800780
07800780
07C00780
07C00F80
07C01F80
07C037C0
07F0E7C0
03FFC7FC
03FF87F8
01FF07C0
007C0600
ENDCHAR
STARTCHAR 0170
ENCODING 368
SWIDTH 716 0
DWIDTH 43 0
BBX 43 55 0 -1
BITMAP
00003E1F0000
00003C1F0000
00007C1E0000
0000783C0000
0000703C0000
000070380000
000060300000
0000C0300000
0000C0600000
000080400000
000000000000
000000000000
000000000000
000000000000
FFFF8007FFE0
0FFC0000FE00
07F800003C00
03F000003800
03F000003800
03F000003800
03F000003800
03F000003800
03F000003800
03F000003800
03F000003800
03F000003800
03F000003800
03F000003800
03F000003800
03F000003800
03F000003800
03F000003800
03F000003800
03F000003800
03F000003800
03F000003800
03F000003800
03F000003800
03F000003800
03F000003800
03F000003800
03F000003800
03F000003800
03F000003800
01F000003000
01F000003000
01F800007000
01F800007000
00F80000E000
007C0001C000
007E0003C000
003F00078000
001FC03E0000
0007FFFC0000
0000FFC00000
ENDCHAR
STARTCHAR 0171
ENCODING 369
SWIDTH 500 0
DWIDTH 30 0
BBX 30 42 0 -1
BITMAP
007C3F00
007C3E00
00783C00
00703C00
00F03800
00E07000
00E07000
00C06000
00804000
01804000
00000000
00000000
00000000
00000000
FF80FF80
1F801F80
0F800F80
0F800F80
07800780
07800780
07800780
07800780
07800780
07800780
07800780
07800780
07800780
07800780
07800780
07800780
07800780
07800780
07800780
07C00780
07C00F80
07C01F80
07C037C0
07F0E7C0
03FFC7FC
03FF87F8
01FF07C0
007C0600
ENDCHAR
STARTCHAR 0172
ENCODING 370
SWIDTH 716 0
DWIDTH 43 0
BBX 43 51 0 -11
BITMAP
FFFF8007FFE0
0FFC0000FE00
07F800003C00
03F000003800
03F000003800
03F000003800
03F000003800
03F000003800
03F000003800
03F000003800
03F000003800
03F000003800
03F000003800
03F000003800
03F000003800
03F000003800
03F000003800
03F000003800
03F000003800
03F000003800
03F000003800
03F000003800
03F000003800
03F000003800
03F000003800
03F000003800
03F000003800
03F000003800
03F000003800
03F000003800
01F000003000
01F000003000
01F800007000
01F800007000
00F80000E000
007C0001C000
007E0003C000
003F00078000
001FC03E0000
0007FFFC0000
0000FFC00000
000007000000
000006000000
000006000000
00000E000000
00000F000000
00000F000000
000007800000
000007E00000
000003FF8000
000000FC0000
ENDCHAR
STARTCHAR 0173
ENCODING 371
SWIDTH 500 0
DWIDTH 30 0
BBX 32 38 0 -11
BITMAP
FF80FF80
1F801F80
0F800F80
0F800F80
07800780
07800780
07800780
07800780
07800780
07800780
07800780
07800780
07800780
07800780
07800780
07800780
07800780
07800780
07800780
07C00780
07C00F80
07C01F80
07C037C0
07F0E7C0
03FFC7FC
03FF87F8
01FF07C0
007C0600
00000C00
00000C00
00001C00
00001C00
00001E00
00001E00
00000F00
00000FC0
000007FF
000001F8
ENDCHAR
STARTCHAR 0174
ENCODING 372
SWIDTH 950 0
DWIDTH 57 0
BBX 55 55 1 -1
BITMAP
000000FC000000
000000FE000000
000001FE000000
000001FF000000
000003DF800000
00000387800000
00000703C00000
00000E01C00000
00000C00600000
00001800200000
00000000000000
00000000000000
00000000000000
00000000000000
FFFE1FFFC01FFE
3FF007FE0003F8
0FE003FC0001F0
0FE001FC0000E0
07E000FC0000C0
07E000FC0001C0
07E000FC0001C0
03F0007E000180
03F0007E000180
03F0007E000380
01F8003F000300
01F8003F000700
01F8003F000700
00FC003F800600
00FC007F800E00
007C007F800E00
007E006FC00C00
007E00EFC01C00
003E00E7E01C00
003F00C7E01800
003F01C7E03800
001F01C3F03800
001F8183F03000
001F8383F07000
000FC381F87000
000FC301F86000
000FC700F8E000
0007E600FCE000
0007E600FCC000
0003EE007DC000
0003FC007F8000
0003FC007F8000
0001FC003F8000
0001F8003F0000
0001F8003F0000
0000F8001F0000
0000F0001E0000
0000F0001E0000
000070000E0000
000060000C0000
00006000040000
ENDCHAR
STARTCHAR 0175
ENCODING 373
SWIDTH 716 0
DWIDTH 43 0
BBX 43 42 0 -1
BITMAP
00001F800000
00003F800000
00003FC00000
00007FC00000
0000F3E00000
0000E1E00000
0001C0F00000
000180380000
000300180000
0002000C0000
000000000000
000000000000
000000000000
000000000000
FFF1FFF03FE0
3FC03FC00780
1F801F800700
0F801F800600
0F800F800600
07C00F800E00
07C007C00C00
03E007C00C00
03E007C01C00
03E00FE01800
01F00FE03800
01F00FF03000
01F019F03000
00F819F07000
00F830F86000
007830F86000
007C70F8C000
007C607CC000
003EE07DC000
003EC03F8000
003FC03F8000
001F803F8000
001F801F0000
000F001F0000
000F000E0000
000E000E0000
0006000E0000
000600040000
ENDCHAR
STARTCHAR 0176
ENCODING 374
SWIDTH 716 0
DWIDTH 43 0
BBX 41 54 1 0
BITMAP
00003F000000
00007F000000
00007F800000
0000FF800000
0001E7C00000
0001C3C00000
000381E00000
000300700000
000600300000
000400180000
000000000000
000000000000
000000000000
000000000000
FFFF800FFF80
3FF80003FE00
0FF00001F800
07F00000F000
07F00000E000
03F80001C000
01F80001C000
01FC00038000
00FC00030000
007E00070000
007F000E0000
003F000E0000
001F801C0000
000FC0380000
000FC0380000
0007E0700000
0003F0700000
0003F0E00000
0001F9C00000
0000F9C00000
0000FF800000
00007F000000
00003F000000
00003E000000
00003E000000
00003E000000
00003E000000
00003E000000
00003E000000
00003E000000
00003E000000
00003E000000
00003E000000
00003E000000
00003E000000
00007E000000
00007F000000
00007F000000
0000FF800000
000FFFF80000
ENDCHAR
STARTCHAR 0177
ENCODING 375
SWIDTH 500 0
DWIDTH 30 0
BBX 30 54 0 -13
BITMAP
0007E000
000FE000
001FF000
001FF000
003CF800
00387800
00703C00
00600C00
00C00600
00800300
00000000
00000000
00000000
00000000
FFF807FC
3FC001F0
1FC000E0
0FC000C0
0FC001C0
07C001C0
07E00180
03E00380
03F00300
01F00700
01F00700
00F80600
00F80E00
007C0C00
007C1C00
003E1C00
003E1800
001F3800
001F3000
001FF000
000FF000
000FE000
0007E000
0007C000
0003C000
0003C000
00018000
00038000
00038000
00030000
00070000
00060000
000E0000
000C0000
001C0000
1E380000
3FF80000
3FF00000
3FC00000
1F000000
ENDCHAR
STARTCHAR 0178
ENCODING 376
SWIDTH 716 0
DWIDTH 43 0
BBX 41 49 1 0
BITMAP
0003C0700000
0007E1F80000
0007E1FC0000
0007E1F80000
0003C0F00000
000000000000
000000000000
000000000000
000000000000
FFFF800FFF80
3FF80003FE00
0FF00001F800
07F00000F000
07F00000E000
03F80001C000
01F80001C000
01FC00038000
00FC00030000
007E00070000
007F000E0000
003F000E0000
001F801C0000
000FC0380000
000FC0380000
0007E0700000
0003F0700000
0003F0E00000
0001F9C00000
0000F9C00000
0000FF800000
00007F000000
00003F000000
00003E000000
00003E000000
00003E000000
00003E000000
00003E000000
00003E000000
00003E000000
00003E000000
00003E000000
00003E000000
00003E000000
00003E000000
00007E000000
00007F000000
00007F000000
0000FF800000
000FFFF80000
ENDCHAR
STARTCHAR 0179
ENCODING 377
SWIDTH 616 0
DWIDTH 37 0
BBX 34 54 1 0
BITMAP
00007F0000
00007E0000
00007C0000
0000F80000
0000F00000
0000E00000
0001C00000
0001C00000
0001800000
0001000000
0000000000
0000000000
0000000000
0000000000
0FFFFFFF80
0FFFFFFF80
0F00007F00
0E0000FE00
0C0000FC00
080001FC00
080003F800
180007F000
180007F000
10000FE000
00001FC000
00001FC000
00003F8000
00007F0000
00007F0000
0000FE0000
0001FC0000
0001FC0000
0003F80000
0007F00000
0007E00000
000FE00000
001FC00000
003F800000
003F800000
007F000000
00FE000000
00FE000000
01FC000000
03F8000000
03F8000040
07F00000C0
0FE0000080
0FE0000180
1FC0000180
3F80000380
3F00000780
7F00001F80
FFFFFFFF00
FFFFFFFF00
ENDCHAR
STARTCHAR 017A
ENCODING 378
SWIDTH 450 0
DWIDTH 27 0
BBX 25 41 1 0
BITMAP
000FC000
000FC000
000F8000
001F0000
001E0000
001C0000
00380000
00300000
00300000
00600000
00000000
00000000
00000000
00000000
3FFFFF80
3FFFFF00
38003F00
30007E00
3000FC00
2001F800
2001F800
0003F000
0007E000
000FC000
000FC000
001F8000
003F0000
007E0000
007E0000
00FC0000
01F80000
03F00000
03F00000
07E00100
0FC00100
1F800100
1F800100
3F000300
7E000700
7FFFFF00
FFFFFF00
ENDCHAR
STARTCHAR 017B
ENCODING 379
SWIDTH 616 0
DWIDTH 37 0
BBX 34 49 1 0
BITMAP
0000F00000
0001F80000
0001F80000
0001F80000
0000F00000
0000000000
0000000000
0000000000
0000000000
0FFFFFFF80
0FFFFFFF80
0F00007F00
0E0000FE00
0C0000FC00
080001FC00
080003F800
180007F000
180007F000
10000FE000
00001FC000
00001FC000
00003F8000
00007F0000
00007F0000
0000FE0000
0001FC0000
0001FC0000
0003F80000
0007F00000
0007E00000
000FE00000
001FC00000
003F800000
003F800000
007F000000
00FE000000
00FE000000
01FC000000
03F8000000
03F8000040
07F00000C0
0FE0000080
0FE0000180
1FC0000180
3F80000380
3F00000780
7F00001F80
FFFFFFFF00
FFFFFFFF00
ENDCHAR
STARTCHAR 017C
ENCODING 380
SWIDTH 450 0
DWIDTH 27 0
BBX 25 36 1 0
BITMAP
001E0000
003F0000
003F0000
003F0000
001E0000
00000000
00000000
00000000
00000000
3FFFFF80
3FFFFF00
38003F00
30007E00
3000FC00
2001F800
2001F800
0003F000
0007E000
000FC000
000FC000
001F8000
003F0000
007E0000
007E0000
00FC0000
01F80000
03F00000
03F00000
07E00100
0FC00100
1F800100
1F800100
3F000300
7E000700
7FFFFF00
FFFFFF00
ENDCHAR
STARTCHAR 017D
ENCODING 381
SWIDTH 616 0
DWIDTH 37 0
BBX 34 54 1 0
BITMAP
0020004000
0030018000
001C038000
000E070000
000F0F0000
0007DE0000
0007FC0000
0003FC0000
0003F80000
0001F80000
0000000000
0000000000
0000000000
0000000000
0FFFFFFF80
0FFFFFFF80
0F00007F00
0E0000FE00
0C0000FC00
080001FC00
080003F800
180007F000
180007F000
10000FE000
00001FC000
00001FC000
00003F8000
00007F0000
00007F0000
0000FE0000
0001FC0000
0001FC0000
0003F80000
0007F00000
0007E00000
000FE00000
001FC00000
003F800000
003F800000
007F000000
00FE000000
00FE000000
01FC000000
03F8000000
03F8000040
07F00000C0
0FE0000080
0FE0000180
1FC0000180
3F80000380
3F00000780
7F00001F80
FFFFFFFF00
FFFFFFFF00
ENDCHAR
STARTCHAR 017E
ENCODING 382
SWIDTH 450 0
DWIDTH 27 0
BBX 25 41 1 0
BITMAP
04000800
06003000
03807000
03C0E000
01E1E000
00FBC000
00FF8000
007F8000
007F0000
003F0000
00000000
00000000
00000000
00000000
3FFFFF80
3FFFFF00
38003F00
30007E00
3000FC00
2001F800
2001F800
0003F000
0007E000
000FC000
000FC000
001F8000
003F0000
007E0000
007E0000
00FC0000
01F80000
03F00000
03F00000
07E00100
0FC00100
1F800100
1F800100
3F000300
7E000700
7FFFFF00
FFFFFF00
ENDCHAR
STARTCHAR 017F
ENCODING 383
SWIDTH 283 0
DWIDTH 17 0
BBX 23 42 1 0
BITMAP
0007E0
003FF8
0071FC
00E07E
01C03E
03C03E
03C01C
07C000
07C000
07C000
07C000
07C000
07C000
07C000
07C000
07C000
07C000
07C000
07C000
07C000
07C000
07C000
07C000
07C000
07C000
07C000
07C000
07C000
07C000
07C000
07C000
07C000
07C000
07C000
07C000
07C000
07C000
0FC000
0FC000
0FC000
1FE000
FFFC00
ENDCHAR
STARTCHAR 018F
ENCODING 399
SWIDTH 716 0
DWIDTH 43 0
BBX 40 42 1 -1
BITMAP
0100FF8000
018FFFF000
01FF81FC00
03FC003E00
03F8001F00
03F0000FC0
03E00007C0
03C00003E0
03800003F0
03800001F8
03000001F8
03000000FC
02000000FC
02000000FE
00000000FE
000000007E
000000007F
000000007F
000000007F
000000007F
FFFFFFFFFF
FFFFFFFFFF
FE0000007F
FE0000007F
FE0000007F
7E0000007F
7E0000007E
7F0000007E
7F000000FE
3F000000FE
3F800000FC
1F800001FC
1F800001F8
0FC00003F0
0FE00003F0
07E00007E0
03F0000FC0
01F8001F80
007E003F00
003F81FC00
000FFFF000
0001FF8000
ENDCHAR
STARTCHAR 0192
ENCODING 402
SWIDTH 500 0
DWIDTH 30 0
BBX 29 54 0 -13
BITMAP
000001F0
00000738
00000E38
00000C78
00001C38
00001C00
00003C00
00003800
00007800
00007800
00007800
0000F800
0000F000
0001F000
0003F000
003FFF80
003FFF80
0001E000
0001E000
0003E000
0003E000
0003C000
0003C000
0007C000
0007C000
0007C000
00078000
000F8000
000F8000
000F8000
000F8000
000F0000
001F0000
001F0000
001F0000
001E0000
003E0000
003E0000
003E0000
003C0000
003C0000
007C0000
00780000
00780000
00780000
00700000
00F00000
00E00000
00E00000
71C00000
F1C00000
F3800000
FF000000
7C000000
ENDCHAR
STARTCHAR 01A0
ENCODING 416
SWIDTH 716 0
DWIDTH 43 0
BBX 39 47 2 -1
BITMAP
0000000070
00000000F8
00000000F8
00000000F8
00000000F8
0001FF0038
000FFFE070
003F01FFE0
007C007E00
01F0001F00
03E0000F80
07C00007C0
0FC00007E0
0F800003E0
1F800003F0
3F000001F8
3F000001F8
3F000001FC
7F000000FC
7E000000FC
7E000000FC
FE000000FE
FE000000FE
FE000000FE
FE000000FE
FE000000FE
FE000000FE
FE000000FE
FE000000FE
FE000000FE
FE000000FE
7E000000FC
7E000000FC
7F000000FC
3F000001F8
3F000001F8
3F800001F0
1F800003F0
0F800003E0
0FC00007E0
07E00007C0
03E0000F80
01F0001F00
00FC007C00
003F01F800
000FFFE000
0001FF0000
ENDCHAR
STARTCHAR 01A1
ENCODING 417
SWIDTH 533 0
DWIDTH 32 0
BBX 30 30 2 -1
BITMAP
00000030
003F8078
01FFE0FC
03C1F8FC
0F00FC7C
0E007E38
1E003E38
3C003FE0
3C001F80
7C001F80
7C000F80
7C000FC0
F8000FC0
F8000FC0
F8000FC0
FC000FC0
FC000FC0
FC000FC0
FC000FC0
FC000F80
7C000F80
7E000F80
7E000F00
3F000F00
1F001E00
1F801C00
0FC03800
07F0F000
01FFE000
007F0000
ENDCHAR
STARTCHAR 01AF
ENCODING 431
SWIDTH 783 0
DWIDTH 47 0
BBX 49 48 0 -1
BITMAP
00000000000E00
00000000001F00
00000000001F80
00000000001F80
00000000000F00
00000000000700
00000000000E00
FFFF8007FFF800
0FFC0000FE0000
07F800003C0000
03F00000380000
03F00000380000
03F00000380000
03F00000380000
03F00000380000
03F00000380000
03F00000380000
03F00000380000
03F00000380000
03F00000380000
03F00000380000
03F00000380000
03F00000380000
03F00000380000
03F00000380000
03F00000380000
03F00000380000
03F00000380000
03F00000380000
03F00000380000
03F00000380000
03F00000380000
03F00000380000
03F00000380000
03F00000380000
03F00000380000
03F00000380000
01F00000300000
01F00000300000
01F80000700000
01F80000700000
00F80000E00000
00FC0001C00000
007E0003C00000
003F0007800000
000FC03E000000
0007FFFC000000
00007FC0000000
ENDCHAR
STARTCHAR 01B0
ENCODING 432
SWIDTH 550 0
DWIDTH 33 0
BBX 32 30 0 -1
BITMAP
0000000E
0000001F
FF80FF9F
1F801F9F
0F800F9F
0F800F87
0780078E
078007F8
07800780
07800780
07800780
07800780
07800780
07800780
07800780
07800780
07800780
07800780
07800780
07800780
07800780
07C00780
07C00F80
07C01F80
07E037C0
07F0E7C0
03FFC7FC
03FF87F8
01FF07C0
007C0600
ENDCHAR
STARTCHAR 01CD
ENCODING 461
SWIDTH 716 0
DWIDTH 43 0
BBX 43 54 0 0
BITMAP
000200080000
000300180000
000180300000
0001E0700000
0000F0E00000
0000F9E00000
00007FC00000
00007FC00000
00003F800000
00001F000000
000000000000
000000000000
000000000000
000004000000
00000E000000
00000E000000
00001E000000
00001F000000
00001F000000
00003F800000
00003F800000
00007FC00000
00007FC00000
00007FC00000
0000E7E00000
0000E7E00000
0001C7F00000
0001C3F00000
0003C3F00000
000381F80000
000381F80000
000701FC0000
000700FC0000
000E00FC0000
000E007E0000
001E007E0000
001C003F0000
001C003F0000
0038003F8000
003FFFFF8000
007FFFFF8000
0070000FC000
00E0000FC000
00E00007E000
00E00007E000
01C00003E000
01C00003F000
03800003F000
03800001F800
07800001F800
07000001FC00
0F800001FE00
3FC00003FF00
FFF8001FFFE0
ENDCHAR
STARTCHAR 01CE
ENCODING 462
SWIDTH 450 0
DWIDTH 27 0
BBX 25 42 2 -1
BITMAP
18002000
0C006000
0E00C000
0781C000
03C38000
03E70000
01FF0000
01FE0000
00FE0000
00FC0000
00000000
00000000
00000000
01FE0000
07FF8000
1F0FC000
3E03E000
3C03F000
7C01F000
7C01F000
7C01F000
7C01F000
3801F000
0003F000
001FF000
007DF000
01E1F000
0781F000
0F01F000
3E01F000
3C01F000
7801F000
F801F000
F801F000
F801F000
FC01F000
FC07F080
FE1DF100
7FF9FF00
7FF1FE00
3FE0FC00
0F807000
ENDCHAR
STARTCHAR 01CF
ENCODING 463
SWIDTH 333 0
DWIDTH 20 0
BBX 18 54 1 0
BITMAP
400080
300100
380300
1C0E00
1F1E00
0FBC00
0FFC00
07F800
07F800
03F000
000000
000000
000000
000000
FFFFC0
0FFC00
07F800
03F000
03F000
03F000
03F000
03F000
03F000
03F000
03F000
03F000
03F000
03F000
03F000
03F000
03F000
03F000
03F000
03F000
03F000
03F000
03F000
03F000
03F000
03F000
03F000
03F000
03F000
03F000
03F000
03F000
03F000
03F000
03F000
03F000
03F000
07F000
0FFC00
FFFFC0
ENDCHAR
STARTCHAR 01D0
ENCODING 464
SWIDTH 283 0
DWIDTH 17 0
BBX 16 41 0 0
BITMAP
C001
6003
3006
3C0E
1E1C
1F3C
0FF8
0FF8
07F0
07E0
0000
0000
0000
00E0
03E0
1FE0
3FE0
03E0
03E0
03E0
03E0
03E0
03E0
03E0
03E0
03E0
03E0
03E0
03E0
03E0
03E0
03E0
03E0
03E0
03E0
03E0
03E0
03E0
03F0
07F0
3FFE
ENDCHAR
STARTCHAR 01D1
ENCODING 465
SWIDTH 716 0
DWIDTH 43 0
BBX 39 55 2 -1
BITMAP
0008001000
0006002000
000700E000
000381C000
0003E3C000
0001F78000
0001FF8000
0000FF0000
0000FE0000
00007E0000
0000000000
0000000000
0000000000
0001FF0000
000FFFE000
003F01F800
007C007E00
01F0001F00
03E0000F80
07C00007C0
0FC00007E0
0F800003E0
1F800003F0
3F000001F8
3F000001F8
3F000001FC
7F000000FC
7E000000FC
7E000000FC
FE000000FE
FE000000FE
FE000000FE
FE000000FE
FE000000FE
FE000000FE
FE000000FE
FE000000FE
FE000000FE
FE000000FE
7E000000FC
7E000000FC
7F000000FC
3F000001F8
3F000001F8
3F800001F8
1F800003F0
0F800003E0
0FC00007E0
07E00007C0
03E0000F80
01F0001F00
00FC007C00
003F01F800
000FFFE000
0001FF0000
ENDCHAR
STARTCHAR 01D2
ENCODING 466
SWIDTH 500 0
DWIDTH 30 0
BBX 26 42 2 -1
BITMAP
04000800
03001000
03803000
01C0E000
01F1E000
00FBC000
00FFC000
007F8000
007F8000
003F0000
00000000
00000000
00000000
003F8000
01FFE000
03C1F800
0F00FC00
0E007E00
1E003E00
3C003F00
3C001F00
7C001F80
7C000F80
7C000FC0
F8000FC0
F8000FC0
F8000FC0
FC000FC0
FC000FC0
FC000FC0
FC000FC0
FC000F80
7C000F80
7E000F80
7E000F00
3F000F00
1F001E00
1F801C00
0FC03800
07F0F000
01FFE000
007F0000
ENDCHAR
STARTCHAR 01D3
ENCODING 467
SWIDTH 716 0
DWIDTH 43 0
BBX 43 55 0 -1
BITMAP
000200080000
000300180000
0001C0300000
0001E0700000
0000F0E00000
0000FDE00000
00007FC00000
00007FC00000
00003F800000
00001F800000
000000000000
000000000000
000000000000
000000000000
FFFF8007FFE0
0FFC0000FE00
07F800003C00
03F000003800
03F000003800
03F000003800
03F000003800
03F000003800
03F000003800
03F000003800
03F000003800
03F000003800
03F000003800
03F000003800
03F000003800
03F000003800
03F000003800
03F000003800
03F000003800
03F000003800
03F000003800
03F000003800
03F000003800
03F000003800
03F000003800
03F000003800
03F000003800
03F000003800
03F000003800
03F000003800
01F000003000
01F000003000
01F800007000
01F800007000
00F80000E000
007C0001C000
007E0003C000
003F00078000
001FC03E0000
0007FFFC0000
0000FFC00000
ENDCHAR
STARTCHAR 01D4
ENCODING 468
SWIDTH 500 0
DWIDTH 30 0
BBX 30 42 0 -1
BITMAP
01000200
00C00400
00E00C00
00703800
007C7800
003EF000
003FF000
001FE000
000FE000
000FC000
00000000
00000000
00000000
00000000
FF80FF80
1F801F80
0F800F80
0F800F80
07800780
07800780
07800780
07800780
07800780
07800780
07800780
07800780
07800780
07800780
07800780
07800780
07800780
07800780
07800780
07C00780
07C00F80
07C01F80
07C037C0
07F0E7C0
03FFC7FC
03FF87F8
01FF07C0
007C0600
ENDCHAR
STARTCHAR 01D5
ENCODING 469
SWIDTH 716 0
DWIDTH 43 0
BBX 43 54 0 -1
BITMAP
0003FFF80000
0003FFF80000
0003FFF80000
0003FFF80000
000000000000
000000000000
0001C0700000
0003E0F80000
0003E0F80000
0001E0F80000
0001C0700000
000000000000
000000000000
FFFF8007FFE0
0FFC0000FE00
07F800003C00
03F000003800
03F000003800
03F000003800
03F000003800
03F000003800
03F000003800
03F000003800
03F000003800
03F000003800
03F000003800
03F000003800
03F000003800
03F000003800
03F000003800
03F000003800
03F000003800
03F000003800
03F000003800
03F000003800
03F000003800
03F000003800
03F000003800
03F000003800
03F000003800
03F000003800
03F000003800
03F000003800
01F000003000
01F000003000
01F800007000
01F800007000
00F80000E000
007C0001C000
007E0003C000
003F00078000
001FC03E0000
0007FFFC0000
0000FFC00000
ENDCHAR
STARTCHAR 01D6
ENCODING 470
SWIDTH 500 0
DWIDTH 30 0
BBX 30 46 0 -1
BITMAP
03FFFF00
03FFFF00
03FFFF00
03FFFF00
00000000
00000000
00000000
00000000
00000000
00F03C00
01F87E00
01F87E00
01F87E00
00F03C00
00000000
00000000
00000000
00000000
FF80FF80
1F801F80
0F800F80
0F800F80
07800780
07800780
07800780
07800780
07800780
07800780
07800780
07800780
07800780
07800780
07800780
07800780
07800780
07800780
07800780
07C00780
07C00F80
07C01F80
07C037C0
07F0E7C0
03FFC7FC
03FF87F8
01FF07C0
007C0600
ENDCHAR
STARTCHAR 01D7
ENCODING 471
SWIDTH 716 0
DWIDTH 43 0
BBX 43 54 0 -1
BITMAP
000007C00000
000007800000
00000F000000
00000C000000
000008000000
000000000000
0001C0700000
0003E0F80000
0003E0F80000
0001E0F80000
0001C0700000
000000000000
000000000000
FFFF8007FFE0
0FFC0000FE00
07F800003C00
03F000003800
03F000003800
03F000003800
03F000003800
03F000003800
03F000003800
03F000003800
03F000003800
03F000003800
03F000003800
03F000003800
03F000003800
03F000003800
03F000003800
03F000003800
03F000003800
03F000003800
03F000003800
03F000003800
03F000003800
03F000003800
03F000003800
03F000003800
03F000003800
03F000003800
03F000003800
03F000003800
01F000003000
01F000003000
01F800007000
01F800007000
00F80000E000
007C0001C000
007E0003C000
003F00078000
001FC03E0000
0007FFFC0000
0000FFC00000
ENDCHAR
STARTCHAR 01D8
ENCODING 472
SWIDTH 500 0
DWIDTH 30 0
BBX 30 51 0 -1
BITMAP
0001F800
0003F000
0003E000
0003C000
0003C000
00078000
00070000
00060000
000C0000
00080000
00000000
00000000
00000000
00000000
00F03C00
01F87E00
01F87E00
01F87E00
00F03C00
00000000
00000000
00000000
00000000
FF80FF80
1F801F80
0F800F80
0F800F80
07800780
07800780
07800780
07800780
07800780
07800780
07800780
07800780
07800780
07800780
07800780
07800780
07800780
07800780
07800780
07C00780
07C00F80
07C01F80
07C037C0
07F0E7C0
03FFC7FC
03FF87F8
01FF07C0
007C0600
ENDCHAR
STARTCHAR 01D9
ENCODING 473
SWIDTH 716 0
DWIDTH 43 0
BBX 43 54 0 -1
BITMAP
000180300000
0000E0E00000
000079C00000
00003F800000
00001F000000
000000000000
0001C0700000
0003E0F80000
0003E0F80000
0001E0F80000
0001C0700000
000000000000
000000000000
FFFF8007FFE0
0FFC0000FE00
07F800003C00
03F000003800
03F000003800
03F000003800
03F000003800
03F000003800
03F000003800
03F000003800
03F000003800
03F000003800
03F000003800
03F000003800
03F000003800
03F000003800
03F000003800
03F000003800
03F000003800
03F000003800
03F000003800
03F000003800
03F000003800
03F000003800
03F000003800
03F000003800
03F000003800
03F000003800
03F000003800
03F000003800
01F000003000
01F000003000
01F800007000
01F800007000
00F80000E000
007C0001C000
007E0003C000
003F00078000
001FC03E0000
0007FFFC0000
0000FFC00000
ENDCHAR
STARTCHAR 01DA
ENCODING 474
SWIDTH 500 0
DWIDTH 30 0
BBX 30 50 0 -1
BITMAP
01000200
00C00400
00E00C00
00703800
007C7800
003EF000
003FF000
001FE000
001FE000
000FC000
00000000
00000000
00000000
00F03C00
01F87E00
01F87E00
01F87E00
00F03C00
00000000
00000000
00000000
00000000
FF80FF80
1F801F80
0F800F80
0F800F80
07800780
07800780
07800780
07800780
07800780
07800780
07800780
07800780
07800780
07800780
07800780
07800780
07800780
07800780
07800780
07C00780
07C00F80
07C01F80
07C037C0
07F0E7C0
03FFC7FC
03FF87F8
01FF07C0
007C0600
ENDCHAR
STARTCHAR 01DB
ENCODING 475
SWIDTH 716 0
DWIDTH 43 0
BBX 43 54 0 -1
BITMAP
00007C000000
00003C000000
00001E000000
000006000000
000002000000
000000000000
0001C0700000
0003E0F80000
0003E0F80000
0001E0F80000
0001C0700000
000000000000
000000000000
FFFF8007FFE0
0FFC0000FE00
07F800003C00
03F000003800
03F000003800
03F000003800
03F000003800
03F000003800
03F000003800
03F000003800
03F000003800
03F000003800
03F000003800
03F000003800
03F000003800
03F000003800
03F000003800
03F000003800
03F000003800
03F000003800
03F000003800
03F000003800
03F000003800
03F000003800
03F000003800
03F000003800
03F000003800
03F000003800
03F000003800
03F000003800
01F000003000
01F000003000
01F800007000
01F800007000
00F80000E000
007C0001C000
007E0003C000
003F00078000
001FC03E0000
0007FFFC0000
0000FFC00000
ENDCHAR
STARTCHAR 01DC
ENCODING 476
SWIDTH 500 0
DWIDTH 30 0
BBX 30 51 0 -1
BITMAP
007E0000
003E0000
001F0000
001F0000
000F0000
00078000
00038000
00018000
0000C000
00004000
00000000
00000000
00000000
00000000
00F03C00
01F87E00
01F87E00
01F87E00
00F03C00
00000000
00000000
00000000
00000000
FF80FF80
1F801F80
0F800F80
0F800F80
07800780
07800780
07800780
07800780
07800780
07800780
07800780
07800780
07800780
07800780
07800780
07800780
07800780
07800780
07800780
07C00780
07C00F80
07C01F80
07C037C0
07F0E7C0
03FFC7FC
03FF87F8
01FF07C0
007C0600
ENDCHAR
STARTCHAR 01FA
ENCODING 506
SWIDTH 716 0
DWIDTH 43 0
BBX 43 61 0 0
BITMAP
000007F00000
000007E00000
000007C00000
000007800000
00000F000000
00000E000000
00000E000000
00001C000000
000018000000
000010000000
00001F000000
00003F800000
000071C00000
0000E0E00000
0000C0600000
0000C0600000
0000C0600000
0000C0600000
0000E0E00000
000071C00000
00003F800000
00001F000000
00000E000000
00001E000000
00001F000000
00001F000000
00003F800000
00003F800000
00007FC00000
00007FC00000
00007FC00000
0000E7E00000
0000E7E00000
0001C7F00000
0001C3F00000
0003C3F00000
000381F80000
000381F80000
000701FC0000
000700FC0000
000E00FC0000
000E007E0000
001E007E0000
001C003F0000
001C003F0000
0038003F8000
003FFFFF8000
007FFFFF8000
0070000FC000
00E0000FC000
00E00007E000
00E00007E000
01C00003E000
01C00003F000
03800003F000
03800001F800
07800001F800
07000001FC00
0F800001FE00
3FC00003FF00
FFF8001FFFE0
ENDCHAR
STARTCHAR 01FB
ENCODING 507
SWIDTH 450 0
DWIDTH 27 0
BBX 25 55 2 -1
BITMAP
000FC000
001F8000
001F0000
001E0000
003C0000
003C0000
00380000
00700000
00600000
00400000
00000000
007C0000
00FE0000
01C70000
03838000
03018000
03018000
03018000
03018000
03838000
01C70000
00FE0000
007C0000
00000000
00000000
00000000
01FE0000
07FF8000
1F0FC000
3E03E000
3C03F000
7C01F000
7C01F000
7C01F000
7C01F000
3801F000
0003F000
001FF000
007DF000
01E1F000
0781F000
0F01F000
3E01F000
3C01F000
7801F000
F801F000
F801F000
F801F000
FC01F000
FC07F080
FE1DF100
7FF9FF00
7FF1FE00
3FE0FC00
0F807000
ENDCHAR
STARTCHAR 01FC
ENCODING 508
SWIDTH 883 0
DWIDTH 53 0
BBX 53 54 -1 0
BITMAP
0000000FC00000
0000001F800000
0000001F000000
0000001E000000
0000003C000000
0000003C000000
00000038000000
00000070000000
00000060000000
00000040000000
00000000000000
00000000000000
00000000000000
00000000000000
00007FFFFFFF80
00000FFFFFFF80
000007FE000780
000003FE000180
0000077E000180
0000077E000080
0000067E000080
00000E7E000080
00000C7E000080
00001C7E000000
0000187E000000
0000387E000000
0000307E000400
0000607E000400
0000E07E000400
0000C07E000C00
0001C07E000C00
0001807E003C00
0003807FFFFC00
0003007FFFFC00
0007007E003C00
0006007E000C00
000FFFFE000C00
000FFFFE000400
001C007E000400
0018007E000400
0038007E000000
0030007E000000
0070007E000000
0060007E000000
00E0007E000018
00C0007E000010
01C0007E000030
0180007E000030
0380007E000060
0700007E0000E0
0700007E0001E0
0F80007F0007C0
3FC000FFFFFFC0
FFF80FFFFFFFC0
ENDCHAR
STARTCHAR 01FD
ENCODING 509
SWIDTH 666 0
DWIDTH 40 0
BBX 36 42 2 -1
BITMAP
00003F0000
00003E0000
00007C0000
00007C0000
0000780000
0000F00000
0000E00000
0000C00000
0001800000
0001000000
0000000000
0000000000
0000000000
01FE01FC00
07FF87FF00
1F0FCE1F80
3E07F807C0
3C03F803E0
7C03F003E0
7C03F003F0
7C03F003F0
7C03F001F0
3803FFFFF0
0003FFFFF0
0007E00000
001FE00000
00FBE00000
03C3E00000
0783F00000
1E01F00000
3C01F00000
7801F00010
7801F00030
F801F80030
F800FC0060
FC01FE00E0
FC03FF03C0
FF0F7FFFC0
7FFE3FFF80
7FFC1FFF00
3FF00FFE00
0FC003F000
ENDCHAR
STARTCHAR 01FE
ENCODING 510
SWIDTH 716 0
DWIDTH 43 0
BBX 39 55 2 -1
BITMAP
00000FC000
00001F8000
00001F0000
00001E0000
00003C0000
0000380000
0000380000
0000700000
0000600000
0000400000
0000000000
0000000000
0000000000
0001FF0010
000FFFE038
003F01F870
007C007CE0
01F0001FC0
03E0000F80
07E0000FC0
07C00007E0
0F80000FE0
1F80000FF0
1F00001DF8
3F000039F8
3F000071FC
7F0000E1FC
7E0000C0FC
7E0001C0FE
FE000380FE
FE000700FE
FE000E00FE
FE000C00FE
FE001C00FE
FE003800FE
FE007000FE
FE00E000FE
FE00C000FE
7E018000FE
7E038000FC
7E070000FC
7F0E0000FC
3F0C0001F8
3F180001F8
1FB80001F0
1FF00003F0
0FE00003E0
0FC00007C0
07E00007C0
03F0000F80
07F8001E00
0E7C007C00
0C3F01F800
180FFFE000
1000FF0000
ENDCHAR
STARTCHAR 01FF
ENCODING 511
SWIDTH 500 0
DWIDTH 30 0
BBX 26 43 2 -2
BITMAP
0007E000
0007C000
000F8000
000F8000
000F0000
001E0000
001C0000
00180000
00300000
00200000
00000000
00000000
00000040
003F80C0
01FFE1C0
03C1FB80
0700FF00
0E007E00
1E003F00
3C003F00
3C003F80
7C007F80
7C00EF80
7C01CFC0
FC038FC0
FC030FC0
FC060FC0
FC0C07C0
FC1807C0
FC3007C0
FC7007C0
7CE00F80
7FC00F80
7F800F80
3F000F00
3F000F00
1F001E00
1F801C00
3FC03C00
73F0F000
E1FFE000
C07F0000
80000000
ENDCHAR
STARTCHAR 0259
ENCODING 601
SWIDTH 450 0
DWIDTH 27 0
BBX 23 29 2 -1
BITMAP
00FE00
03FF80
07FFC0
0FFFE0
1FFFF0
3C0FF8
7003F8
6001FC
4000FC
C0007C
80007E
00003E
00003E
00003E
00003E
00001E
00001E
00001E
FFFFFE
FFFFFC
FC001C
7C003C
7E0038
7E0038
3E0070
1F00E0
0FC1C0
07FF80
01FC00
ENDCHAR
STARTCHAR 02C6
ENCODING 710
SWIDTH 333 0
DWIDTH 20 0
BBX 16 10 2 32
BITMAP
07E0
0FF0
0FF0
1FF8
1EF8
3C7C
381C
600E
4006
8001
ENDCHAR
STARTCHAR 02C7
ENCODING 711
SWIDTH 333 0
DWIDTH 20 0
BBX 16 10 2 31
BITMAP
8001
6002
7006
381C
3E3C
1F78
1FF8
0FF0
0FF0
07E0
ENDCHAR
STARTCHAR 02C9
ENCODING 713
SWIDTH 333 0
DWIDTH 20 0
BBX 18 4 1 36
BITMAP
FFFFC0
FFFFC0
FFFFC0
FFFFC0
ENDCHAR
STARTCHAR 02D8
ENCODING 728
SWIDTH 333 0
DWIDTH 20 0
BBX 16 8 2 32
BITMAP
8001
8001
E003
780E
7FFE
3FFC
1FF8
07E0
ENDCHAR
STARTCHAR 02D9
ENCODING 729
SWIDTH 333 0
DWIDTH 20 0
BBX 6 5 7 34
BITMAP
78
FC
FC
FC
78
ENDCHAR
STARTCHAR 02DA
ENCODING 730
SWIDTH 333 0
DWIDTH 20 0
BBX 12 12 4 30
BITMAP
0F00
3FC0
70E0
6060
6060
C030
C030
6060
6060
70E0
3FC0
0F00
ENDCHAR
STARTCHAR 02DB
ENCODING 731
SWIDTH 333 0
DWIDTH 20 0
BBX 13 11 4 -11
BITMAP
3000
7000
6000
6000
F000
F000
F000
7800
7E00
3FF8
0FE0
ENDCHAR
STARTCHAR 02DC
ENCODING 732
SWIDTH 333 0
DWIDTH 20 0
BBX 18 8 1 34
BITMAP
1F0040
3FC040
7FE040
FFF8C0
C7FFC0
81FF80
80FF00
803E00
ENDCHAR
STARTCHAR 02DD
ENCODING 733
SWIDTH 333 0
DWIDTH 20 0
BBX 17 10 2 31
BITMAP
3E1F80
3E1F00
3C1E00
381E00
781C00
703800
703800
603000
402000
C02000
ENDCHAR
STARTCHAR 0300
ENCODING 768
SWIDTH 0 0
DWIDTH 0 0
BBX 9 10 -14 43
BITMAP
FC00
7E00
3E00
1E00
1F00
0F00
0700
0300
0180
0080
ENDCHAR
STARTCHAR 0301
ENCODING 769
SWIDTH 0 0
DWIDTH 0 0
BBX 9 10 -12 43
BITMAP
1F80
1F80
1F00
3E00
3C00
3800
7000
6000
6000
C000
ENDCHAR
STARTCHAR 0303
ENCODING 771
SWIDTH 0 0
DWIDTH 0 0
BBX 19 8 -23 43
BITMAP
0F0020
3FC020
3FF060
7FFC60
63FFC0
41FFC0
C07F80
801F00
ENDCHAR
STARTCHAR 0309
ENCODING 777
SWIDTH 0 0
DWIDTH 0 0
BBX 8 10 -12 43
BITMAP
3C
C7
C3
C3
C7
06
0C
08
18
10
ENDCHAR
STARTCHAR 0323
ENCODING 803
SWIDTH 0 0
DWIDTH 0 0
BBX 7 5 -27 -9
BITMAP
3C
7E
FE
7E
38
ENDCHAR
STARTCHAR 037E
ENCODING 894
SWIDTH 283 0
DWIDTH 17 0
BBX 9 38 4 -10
BITMAP
3C00
7E00
7F00
7E00
3C00
0000
0000
0000
0000
0000
0000
0000
0000
0000
0000
0000
0000
0000
0000
0000
0000
0000
0000
0000
3C00
FE00
FF00
FF80
7F80
0380
0380
0380
0300
0600
0E00
1C00
7000
C000
ENDCHAR
STARTCHAR 0384
ENCODING 900
SWIDTH 333 0
DWIDTH 20 0
BBX 9 10 7 31
BITMAP
1F80
1F00
3E00
3E00
3C00
7800
7000
6000
C000
8000
ENDCHAR
STARTCHAR 0385
ENCODING 901
SWIDTH 333 0
DWIDTH 20 0
BBX 22 10 -1 31
BITMAP
001F80
003F00
003E00
003C00
007800
387870
7C70F8
FEE1FC
7CC0F8
388070
ENDCHAR
STARTCHAR 0386
ENCODING 902
SWIDTH 716 0
DWIDTH 43 0
BBX 43 41 0 0
BITMAP
00FC04000000
01F80E000000
01F00E000000
01E01E000000
01E01F000000
03C01F000000
03803F800000
03003F800000
06007FC00000
04007FC00000
00007FC00000
0000E7E00000
0000E7E00000
0001C7F00000
0001C3F00000
0003C3F00000
000381F80000
000381F80000
000701FC0000
000700FC0000
000E00FC0000
000E007E0000
001E007E0000
001C003F0000
001C003F0000
0038003F8000
003FFFFF8000
007FFFFF8000
0070000FC000
00E0000FC000
00E00007E000
00E00007E000
01C00003E000
01C00003F000
03800003F000
03800001F800
07800001F800
07000001FC00
0F800001FE00
3FC00003FF00
FFF8001FFFE0
ENDCHAR
STARTCHAR 0387
ENCODING 903
SWIDTH 283 0
DWIDTH 17 0
BBX 7 7 5 21
BITMAP
38
7C
FE
FE
FE
7C
38
ENDCHAR
STARTCHAR 0388
ENCODING 904
SWIDTH 700 0
DWIDTH 42 0
BBX 45 41 -5 0
BITMAP
1F8000000000
1F9FFFFFFFC0
3F01FFFFFFC0
3E00FE0007C0
3C007E0001C0
38007E0000C0
70007E0000C0
60007E000040
40007E000040
C0007E000040
00007E000000
00007E000000
00007E000000
00007E000600
00007E000600
00007E000600
00007E000600
00007E000E00
00007E001E00
00007FFFFE00
00007FFFFE00
00007E001E00
00007E000E00
00007E000600
00007E000600
00007E000600
00007E000600
00007E000000
00007E000000
00007E000000
00007E000000
00007E000008
00007E000018
00007E000010
00007E000030
00007E000070
00007E0000E0
00007E0001E0
0000FE0007E0
0001FFFFFFC0
001FFFFFFFC0
ENDCHAR
STARTCHAR 0389
ENCODING 905
SWIDTH 800 0
DWIDTH 48 0
BBX 52 41 -5 0
BITMAP
1F800000000000
1F9FFFF01FFFF0
3F01FF8001FF80
3E00FE0000FE00
3C007E00007E00
38007E00007E00
70007E00007E00
60007E00007E00
40007E00007E00
C0007E00007E00
00007E00007E00
00007E00007E00
00007E00007E00
00007E00007E00
00007E00007E00
00007E00007E00
00007E00007E00
00007E00007E00
00007E00007E00
00007E00007E00
00007FFFFFFE00
00007FFFFFFE00
00007E00007E00
00007E00007E00
00007E00007E00
00007E00007E00
00007E00007E00
00007E00007E00
00007E00007E00
00007E00007E00
00007E00007E00
00007E00007E00
00007E00007E00
00007E00007E00
00007E00007E00
00007E00007E00
00007E00007E00
00007E00007E00
0000FE0000FE00
0001FF8001FF80
001FFFF01FFFF0
ENDCHAR
STARTCHAR 038A
ENCODING 906
SWIDTH 416 0
DWIDTH 25 0
BBX 28 41 -5 0
BITMAP
1F800000
1F9FFFF0
3F01FF80
3E00FE00
3C007E00
38007E00
70007E00
60007E00
40007E00
C0007E00
00007E00
00007E00
00007E00
00007E00
00007E00
00007E00
00007E00
00007E00
00007E00
00007E00
00007E00
00007E00
00007E00
00007E00
00007E00
00007E00
00007E00
00007E00
00007E00
00007E00
00007E00
00007E00
00007E00
00007E00
00007E00
00007E00
00007E00
00007E00
0000FE00
0001FF00
001FFFF0
ENDCHAR
STARTCHAR 038C
ENCODING 908
SWIDTH 716 0
DWIDTH 43 0
BBX 43 42 -2 -1
BITMAP
1F801FF00000
3F00FFFE0000
3E03F01F8000
3C07C007E000
3C1F0001F000
783E0000F800
707C00007C00
60FC00007E00
C0F800003E00
81F800003F00
03F000001F80
03F000001F80
03F000001FC0
07F000000FC0
07E000000FC0
07E000000FC0
0FE000000FE0
0FE000000FE0
0FE000000FE0
0FE000000FE0
0FE000000FE0
0FE000000FE0
0FE000000FE0
0FE000000FE0
0FE000000FE0
0FE000000FE0
07E000000FC0
07E000000FC0
07F000000FC0
03F000001F80
03F000001F80
03F800001F80
01F800003F00
00F800003E00
00FC00007E00
007E00007C00
003E0000F800
001F0001F000
000FC007C000
0003F01F8000
0000FFFE0000
00001FF00000
ENDCHAR
STARTCHAR 038E
ENCODING 910
SWIDTH 816 0
DWIDTH 49 0
BBX 53 41 -5 0
BITMAP
1F800000000000
1F9FFFF001FFF8
3F07FF80003FC0
3E01FF00001F80
3C00FF00001F00
38007F00001E00
70007F00001C00
60003F80003800
40001F80003800
C0001FC0007000
00000FC0007000
000007E000E000
000007F001C000
000003F001C000
000001F8038000
000001FC030000
000000FC070000
0000007E0E0000
0000007F0E0000
0000003F1C0000
0000001FB80000
0000001FF80000
0000000FF00000
0000000FE00000
00000007E00000
00000007E00000
00000007E00000
00000007E00000
00000007E00000
00000007E00000
00000007E00000
00000007E00000
00000007E00000
00000007E00000
00000007E00000
00000007E00000
00000007E00000
00000007E00000
00000007F00000
0000001FF80000
000000FFFF8000
ENDCHAR
STARTCHAR 038F
ENCODING 911
SWIDTH 750 0
DWIDTH 45 0
BBX 45 41 -2 0
BITMAP
1F800FF80000
3F00FFFF8000
3E03F80FE000
3C07E003F000
7C1F8001FC00
783F0000FE00
707F00007F00
607E00003F00
C0FC00001F80
81FC00001FC0
01F800000FC0
03F800000FE0
03F800000FE0
03F000000FE0
07F000000FE0
07F0000007E0
07F0000007E0
07F0000007E0
07F0000007E0
07F0000007E0
07F0000007E0
03F0000007E0
03F000000FE0
03F800000FE0
03F800000FC0
01F800000FC0
01F800000F80
00FC00001F80
007C00001F00
003E00003E00
001F00007C00
000F8000F800
0803C003E008
0800F0078018
0C0030060018
0E0030060038
0FFFF007FFF8
0FFFF007FFF8
0FFFF007FFF8
0FFFF007FFF8
0FFFF00FFFF8
ENDCHAR
STARTCHAR 0390
ENCODING 912
SWIDTH 266 0
DWIDTH 16 0
BBX 21 42 -2 -1
BITMAP
003F00
003E00
007C00
007C00
007800
78F0F0
FCE1F8
FCC1F8
FD81F8
7900F0
000000
000000
000000
003000
01F000
0FF000
1FF000
01F000
01F000
01F000
01F000
00F000
00F000
00F000
00F000
00F000
00F000
00F000
00F000
00F000
00F000
00F000
00F000
00F000
00F000
00F040
00F840
00F840
00F8C0
00FF80
007F80
001E00
ENDCHAR
STARTCHAR 0391
ENCODING 913
SWIDTH 716 0
DWIDTH 43 0
BBX 43 41 0 0
BITMAP
000004000000
00000E000000
00000E000000
00001E000000
00001F000000
00001F000000
00003F800000
00003F800000
00007FC00000
00007FC00000
00007FC00000
0000E7E00000
0000E7E00000
0001C7F00000
0001C3F00000
0003C3F00000
000381F80000
000381F80000
000701FC0000
000700FC0000
000E00FC0000
000E007E0000
001E007E0000
001C003F0000
001C003F0000
0038003F8000
003FFFFF8000
007FFFFF8000
0070000FC000
00E0000FC000
00E00007E000
00E00007E000
01C00003E000
01C00003F000
03800003F000
03800001F800
07800001F800
07000001FC00
0F800001FE00
3FC00003FF00
FFF8001FFFE0
ENDCHAR
STARTCHAR 0392
ENCODING 914
SWIDTH 666 0
DWIDTH 40 0
BBX 36 40 1 0
BITMAP
FFFFFF0000
0FFFFFE000
07F007F800
07E000FE00
03E0007F00
03E0003F00
03E0001F80
03E0001F80
03E0000FC0
03E0000FC0
03E0000FC0
03E0000FC0
03E0001FC0
03E0001F80
03E0003F80
03E0003F00
03E000FE00
03E003FC00
03FFFFF000
03FFFFF000
03E007FE00
03E000FF00
03E0003F80
03E0001FC0
03E0001FE0
03E0000FE0
03E0000FE0
03E00007F0
03E00007F0
03E00007F0
03E00007F0
03E00007E0
03E0000FE0
03E0000FE0
03E0001FC0
03E0003F80
07E0007F00
07F803FE00
0FFFFFF800
FFFFFFC000
ENDCHAR
STARTCHAR 0393
ENCODING 915
SWIDTH 583 0
DWIDTH 35 0
BBX 32 40 1 0
BITMAP
FFFFFFFF
0FFFFFFF
07E0001F
07E00007
03E00003
03E00003
03E00001
03E00001
03E00001
03E00000
03E00000
03E00000
03E00000
03E00000
03E00000
03E00000
03E00000
03E00000
03E00000
03E00000
03E00000
03E00000
03E00000
03E00000
03E00000
03E00000
03E00000
03E00000
03E00000
03E00000
03E00000
03E00000
03E00000
03E00000
03E00000
03F00000
07F00000
07F00000
0FFC0000
FFFF8000
ENDCHAR
STARTCHAR 0394
ENCODING 916
SWIDTH 650 0
DWIDTH 39 0
BBX 35 41 2 0
BITMAP
0000400000
0000600000
0000E00000
0000F00000
0001F00000
0001F80000
0003F80000
0003F80000
0003FC0000
00077C0000
00067E0000
000E7E0000
000E3E0000
001C3F0000
001C1F0000
00181F8000
00381F8000
00300F8000
00700FC000
007007C000
00E007E000
00E007E000
01C003F000
01C003F000
018001F000
038001F800
030001F800
070000FC00
070000FC00
0E00007C00
0E00007E00
0C00007E00
1C00003F00
1800003F00
3800001F00
3800001F80
7000001F80
7000000FC0
7FFFFFFFC0
FFFFFFFFC0
FFFFFFFFE0
ENDCHAR
STARTCHAR 0395
ENCODING 917
SWIDTH 616 0
DWIDTH 37 0
BBX 34 40 1 0
BITMAP
FFFFFFFE00
0FFFFFFE00
07F0001E00
03F0000E00
03F0000600
03F0000600
03F0000200
03F0000200
03F0000200
03F0000000
03F0000000
03F0000000
03F0003000
03F0003000
03F0003000
03F0003000
03F0007000
03F000F000
03FFFFF000
03FFFFF000
03F000F000
03F0007000
03F0003000
03F0003000
03F0003000
03F0003000
03F0000000
03F0000000
03F0000000
03F0000000
03F0000040
03F00000C0
03F0000080
03F0000180
03F0000380
03F0000700
03F0000F00
07F0003F00
0FFFFFFE00
FFFFFFFE00
ENDCHAR
STARTCHAR 0396
ENCODING 918
SWIDTH 616 0
DWIDTH 37 0
BBX 34 40 1 0
BITMAP
0FFFFFFF80
0FFFFFFF80
0F00007F00
0E0000FE00
0C0000FC00
080001FC00
080003F800
180007F000
180007F000
10000FE000
00001FC000
00001FC000
00003F8000
00007F0000
00007F0000
0000FE0000
0001FC0000
0001FC0000
0003F80000
0007F00000
0007E00000
000FE00000
001FC00000
003F800000
003F800000
007F000000
00FE000000
00FE000000
01FC000000
03F8000000
03F8000040
07F00000C0
0FE0000080
0FE0000180
1FC0000180
3F80000380
3F00000780
7F00001F80
FFFFFFFF00
FFFFFFFF00
ENDCHAR
STARTCHAR 0397
ENCODING 919
SWIDTH 716 0
DWIDTH 43 0
BBX 41 40 1 0
BITMAP
FFFF80FFFF80
0FF8000FF800
07F00007F000
07F00003F000
03E00003F000
03E00003E000
03E00003E000
03E00003E000
03E00003E000
03E00003E000
03E00003E000
03E00003E000
03E00003E000
03E00003E000
03E00003E000
03E00003E000
03E00003E000
03E00003E000
03E00003E000
03FFFFFFE000
03FFFFFFE000
03E00003E000
03E00003E000
03E00003E000
03E00003E000
03E00003E000
03E00003E000
03E00003E000
03E00003E000
03E00003E000
03E00003E000
03E00003E000
03E00003E000
03E00003E000
03E00003E000
03E00003F000
07F00007F000
07F00007F000
0FF8000FF800
FFFF80FFFF80
ENDCHAR
STARTCHAR 0398
ENCODING 920
SWIDTH 716 0
DWIDTH 43 0
BBX 39 42 2 -1
BITMAP
0000FF0000
000FFFE000
003F01F800
007C007E00
00F0001F00
03E0000F80
07E00007C0
07C00007E0
0F800003F0
1F800003F0
1F000001F8
3F000001F8
3F000001FC
7F040020FC
7E040060FC
7E040060FE
7E040060FE
FE0700E0FE
FE07FFE0FE
FE07FFE0FE
FE07FFE0FE
FE07FFE0FE
FE07FFE0FE
FE0700E0FE
FE060060FE
7E040060FE
7E040060FE
7F040020FC
7F000000FC
3F000000FC
3F000001F8
1F800001F8
1F800001F0
0FC00003E0
0FC00007E0
07E00007C0
03F0000F80
01F8001F00
00FC007E00
003F01F800
000FFFE000
0001FF0000
ENDCHAR
STARTCHAR 0399
ENCODING 921
SWIDTH 333 0
DWIDTH 20 0
BBX 18 40 1 0
BITMAP
FFFFC0
0FFC00
07F800
03F000
03F000
03F000
03F000
03F000
03F000
03F000
03F000
03F000
03F000
03F000
03F000
03F000
03F000
03F000
03F000
03F000
03F000
03F000
03F000
03F000
03F000
03F000
03F000
03F000
03F000
03F000
03F000
03F000
03F000
03F000
03F000
03F000
03F000
07F000
0FFC00
FFFFC0
ENDCHAR
STARTCHAR 039A
ENCODING 922
SWIDTH 716 0
DWIDTH 43 0
BBX 43 40 1 0
BITMAP
FFFF81FFFC00
0FF8003FE000
07F0001F8000
07F0003E0000
03E0003C0000
03E000780000
03E000F00000
03E000E00000
03E001C00000
03E003800000
03E007000000
03E00E000000
03E01C000000
03E038000000
03E0F0000000
03E1E0000000
03E3C0000000
03E7C0000000
03EF80000000
03FFC0000000
03EFE0000000
03E7F0000000
03E3F8000000
03E1FC000000
03E0FE000000
03E07F000000
03E03F800000
03E01FC00000
03E00FE00000
03E007F00000
03E003F80000
03E001FC0000
03E000FE0000
03E0007F0000
03E0003FC000
03E0001FE000
07F0001FF000
07F0001FFC00
0FF8003FFF00
FFFF80FFFFE0
ENDCHAR
STARTCHAR 039B
ENCODING 923
SWIDTH 733 0
DWIDTH 44 0
BBX 42 41 1 0
BITMAP
000018000000
000018000000
00001C000000
00003C000000
00003E000000
00007E000000
00007F000000
00007F000000
0000FF000000
0000DF800000
0001DF800000
0001CFC00000
00018FC00000
000387E00000
000307E00000
000707E00000
000703F00000
000603F00000
000E01F80000
000C01F80000
001C00FC0000
001C00FC0000
003800FC0000
0038007E0000
0030007E0000
0070003F0000
0070003F0000
00E0001F8000
00E0001F8000
00C0001F8000
01C0000FC000
01C0000FC000
03800007E000
03800007E000
03000007F000
07000003F000
07000003F000
0F000003F800
1F000003FC00
3F80000FFE00
FFF0003FFFC0
ENDCHAR
STARTCHAR 039C
ENCODING 924
SWIDTH 883 0
DWIDTH 53 0
BBX 51 40 1 0
BITMAP
FFE0000000FFE0
1FF0000001FE00
07F0000001FC00
07F8000003FC00
07F8000003FC00
03FC000007FC00
03FC000007F800
037E00000EF800
037E00000EF800
033F00000CF800
033F00001CF800
031F00001CF800
031F800038F800
031F800038F800
030FC00070F800
030FC00070F800
0307E000E0F800
0307E000E0F800
0303F000C0F800
0303F001C0F800
0301F00180F800
0301F80380F800
0300F80300F800
0300FC0700F800
0300FC0700F800
03007E0E00F800
03007E0E00F800
03003F0C00F800
03003F1C00F800
03001F9800F800
03001FB800F800
03000FB000F800
03000FF000F800
030007E000F800
030007E000FC00
070007E000FC00
070003C000FC00
078003C001FC00
0FC0018003FE00
FFFC01803FFFE0
ENDCHAR
STARTCHAR 039D
ENCODING 925
SWIDTH 716 0
DWIDTH 43 0
BBX 43 41 -1 -1
BITMAP
FFE00003FFE0
1FF000007F00
07F800001E00
01FC00001C00
00FC00001C00
00FE00001C00
00FF00001C00
00FF80001C00
00FFC0001C00
00EFC0001C00
00EFE0001C00
00E7F0001C00
00E3F8001C00
00E1F8001C00
00E0FC001C00
00E07E001C00
00E07F001C00
00E03F801C00
00E01F801C00
00E00FC01C00
00E007E01C00
00E007F01C00
00E003F01C00
00E001F81C00
00E000FC1C00
00E0007E1C00
00E0007E1C00
00E0003F1C00
00E0001F9C00
00E0000FDC00
00E00007FC00
00E00007FC00
00E00003FC00
00E00001FC00
00E00000FC00
00E000007C00
00E000007C00
01E000003C00
03F000001C00
3FFF00000C00
000000000400
ENDCHAR
STARTCHAR 039E
ENCODING 926
SWIDTH 650 0
DWIDTH 39 0
BBX 34 40 2 0
BITMAP
3FFFFFFF80
3FFFFFFF80
3FFFFFFF80
3FFFFFFF80
3FFFFFFF80
3C00000780
3000000180
2000000180
2000000080
2000000080
0000000000
0000000000
0000000000
0100003000
0100003000
0180003000
01C0007000
01FFFFF000
01FFFFF000
01FFFFF000
01FFFFF000
01FFFFF000
01C0007000
0180003000
0100003000
0100001000
0000000000
0000000000
0000000000
8000000040
8000000040
C000000040
C000000040
C0000000C0
F0000001C0
FFFFFFFFC0
FFFFFFFFC0
FFFFFFFFC0
FFFFFFFFC0
FFFFFFFFC0
ENDCHAR
STARTCHAR 039F
ENCODING 927
SWIDTH 716 0
DWIDTH 43 0
BBX 39 42 2 -1
BITMAP
0001FF0000
000FFFE000
003F01F800
007C007E00
01F0001F00
03E0000F80
07C00007C0
0FC00007E0
0F800003E0
1F800003F0
3F000001F8
3F000001F8
3F000001FC
7F000000FC
7E000000FC
7E000000FC
FE000000FE
FE000000FE
FE000000FE
FE000000FE
FE000000FE
FE000000FE
FE000000FE
FE000000FE
FE000000FE
FE000000FE
7E000000FC
7E000000FC
7F000000FC
3F000001F8
3F000001F8
3F800001F8
1F800003F0
0F800003E0
0FC00007E0
07E00007C0
03E0000F80
01F0001F00
00FC007C00
003F01F800
000FFFE000
0001FF0000
ENDCHAR
STARTCHAR 03A0
ENCODING 928
SWIDTH 716 0
DWIDTH 43 0
BBX 41 40 1 0
BITMAP
FFFFFFFFFF80
0FFFFFFFFC00
07E00003F000
07E00003F000
03E00003F000
03E00003F000
03E00003F000
03E00003F000
03E00003F000
03E00003F000
03E00003F000
03E00003F000
03E00003F000
03E00003F000
03E00003F000
03E00003F000
03E00003F000
03E00003F000
03E00003F000
03E00003F000
03E00003F000
03E00003F000
03E00003F000
03E00003F000
03E00003F000
03E00003F000
03E00003F000
03E00003F000
03E00003F000
03E00003F000
03E00003F000
03E00003F000
03E00003F000
03E00003F000
03E00003F000
03F00003F000
07F00003F000
07F00007F000
0FFC000FFC00
FFFF80FFFF80
ENDCHAR
STARTCHAR 03A1
ENCODING 929
SWIDTH 550 0
DWIDTH 33 0
BBX 30 40 1 0
BITMAP
FFFFF800
0FFFFF00
07F03FC0
07E00FE0
03E007F0
03E003F8
03E001F8
03E001FC
03E001FC
03E001FC
03E000FC
03E000FC
03E001FC
03E001FC
03E001FC
03E001F8
03E003F8
03E007F0
03E00FE0
03F01FC0
03FFFF80
03E7FC00
03E00000
03E00000
03E00000
03E00000
03E00000
03E00000
03E00000
03E00000
03E00000
03E00000
03E00000
03E00000
03E00000
03E00000
07F00000
07F00000
0FF80000
FFFF8000
ENDCHAR
STARTCHAR 03A3
ENCODING 931
SWIDTH 583 0
DWIDTH 35 0
BBX 32 40 1 0
BITMAP
FFFFFFFC
FFFFFFFC
7F80003C
3F80001C
1FC0000C
1FE00004
0FF00004
07F00004
03F80004
03FC0004
01FC0000
00FE0000
007F0000
003F8000
003F8000
001FC000
000FE000
0007E000
0007F000
0003F000
0001E000
0001C000
00038000
00078000
000F0000
001E0000
003C0000
00380000
00700001
00E00001
01E00003
03C00003
07800007
0700000F
0E00003E
1FFFFFFE
3FFFFFFE
7FFFFFFE
FFFFFFFE
FFFFFFFE
ENDCHAR
STARTCHAR 03A4
ENCODING 932
SWIDTH 616 0
DWIDTH 37 0
BBX 33 40 2 0
BITMAP
FFFFFFFF80
FFFFFFFF80
F803E00F80
E003E00380
C003E00180
C003E00180
8003E00080
8003E00080
8003E00080
0003E00000
0003E00000
0003E00000
0003E00000
0003E00000
0003E00000
0003E00000
0003E00000
0003E00000
0003E00000
0003E00000
0003E00000
0003E00000
0003E00000
0003E00000
0003E00000
0003E00000
0003E00000
0003E00000
0003E00000
0003E00000
0003E00000
0003E00000
0003E00000
0003E00000
0003E00000
0007E00000
0007E00000
0007F00000
000FF80000
00FFFF8000
ENDCHAR
STARTCHAR 03A5
ENCODING 933
SWIDTH 716 0
DWIDTH 43 0
BBX 41 40 1 0
BITMAP
FFFF800FFF80
3FF80003FE00
0FF00001F800
07F00000F000
07F00000E000
03F80001C000
01F80001C000
01FC00038000
00FC00030000
007E00070000
007F000E0000
003F000E0000
001F801C0000
000FC0380000
000FC0380000
0007E0700000
0003F0700000
0003F0E00000
0001F9C00000
0000F9C00000
0000FF800000
00007F000000
00003F000000
00003E000000
00003E000000
00003E000000
00003E000000
00003E000000
00003E000000
00003E000000
00003E000000
00003E000000
00003E000000
00003E000000
00003E000000
00007E000000
00007F000000
00007F000000
0000FF800000
000FFFF80000
ENDCHAR
STARTCHAR 03A6
ENCODING 934
SWIDTH 733 0
DWIDTH 44 0
BBX 40 40 2 0
BITMAP
001FFFF000
0003FFC000
0000FF0000
0000FE0000
00007E0000
00007E0000
0007FFE000
007C7E3E00
01E07E0F80
03C07E03C0
0F807E01F0
1F007E00F8
3F007E00F8
3E007E00FC
7E007E007E
7E007E007E
FE007E007E
FE007E007F
FC007E007F
FC007E007F
FC007E007F
FC007E007F
FC007E007F
7E007E007E
7E007E007E
7E007E007E
3E007E00FC
3F007E00F8
1F007E00F8
0F807E01F0
07C07E03C0
01E07E0F80
007C7E3E00
000FFFF000
00007E0000
00007E0000
0000FE0000
0000FF0000
0003FFC000
001FFFF000
ENDCHAR
STARTCHAR 03A7
ENCODING 935
SWIDTH 716 0
DWIDTH 43 0
BBX 43 40 0 0
BITMAP
7FFFF00FFFC0
0FFF8001FE00
03FF0000F800
00FF0000F000
00FF0000E000
007F0001C000
003F80038000
001F80038000
000FC0070000
000FE00E0000
0007E01C0000
0003F0180000
0003F8380000
0001F8700000
0000FCE00000
0000FFC00000
00007FC00000
00003F800000
00003F800000
00001F800000
00001FC00000
00001FE00000
00003FE00000
000073F00000
0000E3F80000
0000E1F80000
0001C0FC0000
000380FE0000
0007007F0000
000E003F0000
000E003F8000
001C001FC000
0038000FC000
0070000FE000
00F00007F000
01E00007F000
03E00007F800
07E00007FC00
1FF0000FFF00
FFFE003FFFE0
ENDCHAR
STARTCHAR 03A8
ENCODING 936
SWIDTH 733 0
DWIDTH 44 0
BBX 43 40 1 0
BITMAP
E00FFFFC01E0
7800FFC00780
3C003F800F00
3E003F001F00
3F003F001F00
1F003F003F00
1F003F003F00
1F003F003F00
1F803F003F00
1F803F003F00
1F803F003F00
1F803F003F00
1F803F007E00
1F803F007E00
1F803F007E00
0F803F007E00
0FC03F007C00
07C03F00FC00
07E03F01F800
03F03F03F000
00FC3F0FE000
003FFFFF8000
0007FFF80000
00003F000000
00003F000000
00003F000000
00003F000000
00003F000000
00003F000000
00003F000000
00003F000000
00003F000000
00003F000000
00003F000000
00003F000000
00003F000000
00003F000000
00003F800000
0000FFC00000
000FFFFC0000
ENDCHAR
STARTCHAR 03A9
ENCODING 937
SWIDTH 750 0
DWIDTH 45 0
BBX 41 41 2 0
BITMAP
0000FF800000
000FFFF80000
003F80FE0000
007E003F0000
01F8001FC000
03F0000FE000
07F00007F000
07E00003F000
0FC00001F800
1FC00001FC00
1F800000FC00
3F800000FE00
3F800000FE00
3F000000FE00
7F000000FE00
7F0000007E00
7F0000007E00
7F0000007E00
7F0000007E00
7F0000007E00
7F0000007E00
3F0000007E00
3F000000FE00
3F800000FE00
3F800000FC00
1F800000FC00
1F800000F800
0FC00001F800
07C00001F000
03E00003E000
01F00007C000
00F8000F8000
803C003E0080
800F00780180
C00300600180
E00300600380
FFFF007FFF80
FFFF007FFF80
FFFF007FFF80
FFFF007FFF80
FFFF00FFFF80
ENDCHAR
STARTCHAR 03AA
ENCODING 938
SWIDTH 333 0
DWIDTH 20 0
BBX 18 49 1 0
BITMAP
3C0F00
7E1F80
7E1F80
7E1F80
3C0F00
000000
000000
000000
000000
FFFFC0
0FFC00
07F800
03F000
03F000
03F000
03F000
03F000
03F000
03F000
03F000
03F000
03F000
03F000
03F000
03F000
03F000
03F000
03F000
03F000
03F000
03F000
03F000
03F000
03F000
03F000
03F000
03F000
03F000
03F000
03F000
03F000
03F000
03F000
03F000
03F000
03F000
07F000
0FFC00
FFFFC0
ENDCHAR
STARTCHAR 03AB
ENCODING 939
SWIDTH 716 0
DWIDTH 43 0
BBX 41 49 1 0
BITMAP
0003C0700000
0007E1F80000
0007E1FC0000
0007E1F80000
0003C0F00000
000000000000
000000000000
000000000000
000000000000
FFFF800FFF80
3FF80003FE00
0FF00001F800
07F00000F000
07F00000E000
03F80001C000
01F80001C000
01FC00038000
00FC00030000
007E00070000
007F000E0000
003F000E0000
001F801C0000
000FC0380000
000FC0380000
0007E0700000
0003F0700000
0003F0E00000
0001F9C00000
0000F9C00000
0000FF800000
00007F000000
00003F000000
00003E000000
00003E000000
00003E000000
00003E000000
00003E000000
00003E000000
00003E000000
00003E000000
00003E000000
00003E000000
00003E000000
00003E000000
00007E000000
00007F000000
00007F000000
0000FF800000
000FFFF80000
ENDCHAR
STARTCHAR 03AC
ENCODING 940
SWIDTH 516 0
DWIDTH 31 0
BBX 28 42 3 -1
BITMAP
000FC000
000FC000
000F8000
001F0000
001E0000
001C0000
00380000
00300000
00300000
00600000
00000000
00000000
00000000
01F80000
07FC0F80
0F0E0F80
1E070F80
3E031F00
7C019F00
7C019F00
7C00DF00
F800FE00
F8007E00
F8007E00
F8007E00
F8003E00
F8007C00
F8007C00
F8007C00
F8007C00
F800F800
F800F800
F800F800
F800F800
FC01F810
7C01FC10
7C03EC30
3E03EE30
1E07C7E0
1F0F87E0
07FF07C0
01F80380
ENDCHAR
STARTCHAR 03AD
ENCODING 941
SWIDTH 416 0
DWIDTH 25 0
BBX 22 42 2 -1
BITMAP
000FC0
000F80
001F80
001F00
001E00
003C00
003800
003000
006000
004000
000000
000000
000000
00FF00
07FFE0
0F83F0
1F01F8
3E00F8
3E00F8
3C0070
7C0000
3C0000
3C0000
1E0000
0E0000
070000
01FF80
07FF80
1F0000
3E0000
7C0000
FC0000
FC0000
FC0038
FC007C
FC007C
7C00FC
7E00FC
3F01F8
1F83F0
07FFE0
00FF00
ENDCHAR
STARTCHAR 03AE
ENCODING 942
SWIDTH 516 0
DWIDTH 31 0
BBX 28 54 0 -13
BITMAP
0000FC00
0001F800
0001F000
0001E000
0003C000
0003C000
00038000
00070000
00060000
00040000
00000000
00000000
00000000
0F003E00
3F80FF00
7FC3FF80
67E7FFC0
43EE0FC0
C3EC07E0
83F003E0
03E003E0
03E003E0
03E003E0
03E003E0
03E003E0
03E003E0
03E003E0
03E003E0
03E003E0
03E003E0
03E003E0
03E003E0
03E003E0
03E003E0
03E003E0
03E003E0
03E003E0
03E003E0
03E003E0
03E003E0
03E003E0
000003E0
000003E0
000003E0
000003E0
000003E0
000003E0
000003E0
000003E0
000003E0
000001E0
000001F0
000001F0
000001F0
ENDCHAR
STARTCHAR 03AF
ENCODING 943
SWIDTH 266 0
DWIDTH 16 0
BBX 15 42 1 -1
BITMAP
01F8
01F8
01F0
03E0
03C0
0380
0700
0600
0600
0C00
0000
0000
0000
0180
0F80
7F80
FF80
0F80
0F80
0F80
0F80
0780
0780
0780
0780
0780
0780
0780
0780
0780
0780
0780
0780
0780
0780
0782
07C2
07C2
07C6
07FC
03FC
00F0
ENDCHAR
STARTCHAR 03B0
ENCODING 944
SWIDTH 500 0
DWIDTH 30 0
BBX 27 42 0 -1
BITMAP
0003F800
0003F000
0003E000
0003C000
00078000
03870F00
0FC71F80
0FEE1F80
0FCC1F80
07880F00
00000000
00000000
00000000
1F006000
3F803C00
7FC01E00
C7C00F00
C7C00780
83E00780
83E007C0
03E003C0
03E003E0
03E003E0
03E003E0
03E003E0
03E003E0
03E003E0
03E003E0
03E003E0
03E003E0
03E003E0
03E003E0
03E003C0
03E007C0
03E007C0
03E00780
01E00F00
01F00F00
00F01E00
00FC3C00
003FF000
000FC000
ENDCHAR
STARTCHAR 03B1
ENCODING 945
SWIDTH 516 0
DWIDTH 31 0
BBX 28 29 3 -1
BITMAP
01F80000
07FC0F80
0F0E0F80
1E070F80
3E031F00
7C019F00
7C019F00
7C00DF00
F800FE00
F8007E00
F8007E00
F8007E00
F8003E00
F8007C00
F8007C00
F8007C00
F8007C00
F800F800
F800F800
F800F800
F800F800
FC01F810
7C01FC10
7C03EC30
3E03EE30
1E07C7E0
1F0F87E0
07FF07C0
01F80380
ENDCHAR
STARTCHAR 03B2
ENCODING 946
SWIDTH 516 0
DWIDTH 31 0
BBX 26 55 3 -13
BITMAP
007F0000
03FFC000
07C1F000
0F00F800
1E007C00
3E007C00
3E003E00
3C003E00
3C003E00
7C003E00
7C003E00
7C003E00
7C003E00
7C003C00
7C007C00
7C007800
7C007000
7C3EE000
7C3FC000
7C3FF000
7C007800
7C007C00
7C003E00
7C003F00
7C001F00
7C001F80
7C000F80
7C000F80
7C000F80
7C000FC0
7C000FC0
7C000F80
7C000F80
7C000F80
7C000F80
7C001F00
7C001F00
7C001E00
7E003E00
7F007C00
7D81F800
7CFFE000
7C3F8000
7C000000
7C000000
7C000000
7C000000
7C000000
7C000000
7C000000
7C000000
7C000000
7C000000
F8000000
F8000000
ENDCHAR
STARTCHAR 03B3
ENCODING 947
SWIDTH 450 0
DWIDTH 27 0
BBX 26 40 0 -13
BITMAP
0F000FC0
3F801F80
7FC01F80
7FC01F00
61E01F00
C0E03E00
C0E03E00
80703C00
80707C00
80307C00
00307800
00387800
0038F000
0018F000
0018E000
0019E000
0019C000
001DC000
001D8000
000F8000
000F0000
000F0000
000E0000
000E0000
00040000
00040000
000C0000
000C0000
001E0000
001E0000
003E0000
003E0000
003E0000
003E0000
003E0000
007C0000
007C0000
007C0000
003C0000
00380000
ENDCHAR
STARTCHAR 03B4
ENCODING 948
SWIDTH 466 0
DWIDTH 28 0
BBX 24 43 2 -1
BITMAP
00FF00
03FFE0
0707F8
0C03F8
0801FC
0800FC
08007C
0C0038
0E0000
070000
038000
01E000
00F000
007C00
003E00
001F00
000FC0
003FE0
01FBF0
03C1F8
0F80F8
1F00FC
1E007E
3C007E
7C003E
7C003F
7C003F
F8001F
F8001F
F8001F
F8001F
F8001F
FC001F
FC001E
7C001E
7C003E
7E003C
3E0038
3F0078
1F80F0
0FC1C0
03FF80
00FE00
ENDCHAR
STARTCHAR 03B5
ENCODING 949
SWIDTH 416 0
DWIDTH 25 0
BBX 22 29 2 -1
BITMAP
00FF00
07FFE0
0F83F0
1F01F8
3E00F8
3E00F8
3C0070
7C0000
3C0000
3C0000
1E0000
0E0000
070000
01FF80
07FF80
1F0000
3E0000
7C0000
FC0000
FC0000
FC0038
FC007C
FC007C
7C00FC
7E00FC
3F01F8
1F83F0
07FFE0
00FF00
ENDCHAR
STARTCHAR 03B6
ENCODING 950
SWIDTH 416 0
DWIDTH 25 0
BBX 22 55 2 -13
BITMAP
018000
070038
0E00F8
0C01F8
0C07F0
0C0FE0
0C1FC0
073F00
03F800
00C000
018000
038000
030000
060000
0E0000
0C0000
180000
180000
380000
300000
300000
700000
600000
600000
600000
E00000
E00000
E00000
E00000
E00000
E00000
E00000
E00000
E00000
F00000
700000
780000
7E0000
3FFFE0
3FFFF0
1FFFF8
07FFFC
01FFFC
00001C
00000C
00000C
00000C
00000C
00000C
00001C
003C38
003FF8
003FF0
003FE0
001F80
ENDCHAR
STARTCHAR 03B7
ENCODING 951
SWIDTH 516 0
DWIDTH 31 0
BBX 28 41 0 -13
BITMAP
0F003E00
3F80FF00
7FC3FF80
67E7FFC0
43EE0FC0
C3EC07E0
83F003E0
03E003E0
03E003E0
03E003E0
03E003E0
03E003E0
03E003E0
03E003E0
03E003E0
03E003E0
03E003E0
03E003E0
03E003E0
03E003E0
03E003E0
03E003E0
03E003E0
03E003E0
03E003E0
03E003E0
03E003E0
03E003E0
000003E0
000003E0
000003E0
000003E0
000003E0
000003E0
000003E0
000003E0
000003E0
000001E0
000001F0
000001F0
000001F0
ENDCHAR
STARTCHAR 03B8
ENCODING 952
SWIDTH 483 0
DWIDTH 29 0
BBX 24 42 2 -1
BITMAP
003E00
00FF80
01C3C0
0380E0
0700F0
0F0078
0E0078
1E003C
1E003C
3E003E
3C003E
3C003E
7C001F
7C001F
7C001F
7C001F
7C001F
7C001F
FC001F
FC001F
FFFFFF
FFFFFF
FC001F
FC001F
FC001F
7C001F
7C001F
7C001F
7C001F
7C001E
7C003E
3C003E
3E003E
3E003C
1E003C
1F0078
0F0078
0780F0
0780E0
03E3C0
00FF80
003E00
ENDCHAR
STARTCHAR 03B9
ENCODING 953
SWIDTH 266 0
DWIDTH 16 0
BBX 15 29 1 -1
BITMAP
0180
0F80
7F80
FF80
0F80
0F80
0F80
0F80
0780
0780
0780
0780
0780
0780
0780
0780
0780
0780
0780
0780
0780
0780
0782
07C2
07C2
07C6
07FC
03FC
00F0
ENDCHAR
STARTCHAR 03BA
ENCODING 954
SWIDTH 500 0
DWIDTH 30 0
BBX 30 28 1 0
BITMAP
038001E0
0F8007F0
7F801FF8
FF803FF0
0F8060F0
0F80C000
0F818000
0F838000
0F870000
0F8E0000
0F9C0000
0FB80000
0FFC0000
0FFE0000
0FBF0000
0F9F8000
0F9F8000
0F8FC000
0F87E000
0F83F000
0F83F000
0F81F800
0F80FC00
0F807E00
0F807F00
0F803F80
0F801FE0
0F800FFC
ENDCHAR
STARTCHAR 03BB
ENCODING 955
SWIDTH 483 0
DWIDTH 29 0
BBX 28 42 1 0
BITMAP
07800000
1FC00000
1FE00000
3FE00000
30F00000
60700000
60300000
40380000
40180000
00180000
001C0000
001C0000
000C0000
000C0000
000C0000
000E0000
000E0000
001E0000
001E0000
003F0000
003F0000
007F0000
007F0000
00FF8000
00FB8000
01F98000
01F18000
03F18000
03E1C000
03E0C000
07E0C000
07C0C000
0FC0E000
0F80E010
1F806010
1F007010
3F007830
3E003C70
7E003FF0
7C001FE0
FC001FC0
FC000780
ENDCHAR
STARTCHAR 03BC
ENCODING 956
SWIDTH 533 0
DWIDTH 32 0
BBX 29 40 3 -13
BITMAP
3E003E00
3E003E00
3E003E00
3E003E00
3E003E00
3E003E00
3E003E00
3E003E00
3E003E00
3E003E00
3E003E00
3E003E00
3E003E00
3E003E00
3E003E00
3E003E00
3E003E00
3E003E00
3E003E00
3E003E00
3E003E00
3E007E08
3F00FE08
3F83BE18
3FFF1F10
3FFE1FF0
37F80FE0
31E007C0
30000000
38000000
38000000
78000000
78000000
78000000
7C000000
FC000000
FC000000
FC000000
7C000000
38000000
ENDCHAR
STARTCHAR 03BD
ENCODING 957
SWIDTH 450 0
DWIDTH 27 0
BBX 27 29 -1 -1
BITMAP
030003C0
1F8007E0
7F8007E0
FF8007E0
0FC007E0
07C003C0
07C003C0
03E003C0
03E00380
01E00380
01F00300
01F00700
00F00600
00F80E00
00F80C00
00780C00
007C1800
007C1800
003C3000
003E3000
003E6000
001E6000
001FC000
001FC000
000F8000
000F8000
000F0000
00070000
00060000
ENDCHAR
STARTCHAR 03BE
ENCODING 958
SWIDTH 450 0
DWIDTH 27 0
BBX 24 55 2 -13
BITMAP
038000
0E00E0
0C03F0
0C07E0
0C1FE0
0C3FC0
077F00
01F800
018000
010000
030000
020000
060000
060000
060000
030000
0301F8
019FFC
01FFFC
00FFF0
038000
070000
0E0000
1C0000
380000
300000
700000
600000
E00000
E00000
E00000
E00000
E00000
E00000
E00000
F00000
780000
7C0000
3FFFF0
1FFFFC
0FFFFE
07FFFE
00FFFF
000007
000003
000003
000003
000003
000003
000007
000F0E
000FFE
000FFC
000FF0
0007C0
ENDCHAR
STARTCHAR 03BF
ENCODING 959
SWIDTH 500 0
DWIDTH 30 0
BBX 26 29 2 -1
BITMAP
003F8000
01FFE000
03C1F800
0F00FC00
0E007E00
1E003E00
3C003F00
3C001F00
7C001F80
7C000F80
7C000FC0
F8000FC0
F8000FC0
F8000FC0
FC000FC0
FC000FC0
FC000FC0
FC000FC0
FC000F80
7C000F80
7E000F80
7E000F00
3F000F00
1F001E00
1F801C00
0FC03800
07F0F000
01FFE000
007F0000
ENDCHAR
STARTCHAR 03C0
ENCODING 960
SWIDTH 500 0
DWIDTH 30 0
BBX 29 28 0 -1
BITMAP
03FFFFF8
0FFFFFF8
1FFFFFF8
3FFFFFF8
38703C00
60703C00
40703C00
C0703C00
00703C00
00703C00
00703C00
00703C00
00F03C00
00E07C00
00E07C00
00E07C00
01E07C00
01E07C00
03E07C00
03E07C08
07E07C08
0FC07C18
0FC07E38
1FC07FF0
1FC07FF0
1F803FE0
1F801FC0
0F000F80
ENDCHAR
STARTCHAR 03C1
ENCODING 961
SWIDTH 500 0
DWIDTH 30 0
BBX 25 41 3 -13
BITMAP
003F8000
01FFE000
03FFF800
0707FC00
0E01FC00
1C00FE00
3C007F00
3C003F00
7C003F00
7C001F80
7C001F80
7C000F80
7C000F80
7C000F80
7C000F80
7C000F80
7C000F80
7C000F00
7C000F00
7C000F00
7C000E00
7C001E00
7C001C00
7C003C00
7E003800
7F00F000
7F81E000
7DFF8000
7C7E0000
7C000000
7C000000
7C000000
7C000000
78000000
78000000
F8000000
F8000000
F8000000
F8000000
F8000000
F8000000
ENDCHAR
ENDFONT
